NotoSansMarchen-Regular.ufo
<glyph name="uni25CC" format="2">
	<advance width="635"/>
	<unicode hex="25CC"/>
	<anchor x="316" y="570" name="top"/>
	<anchor x="462" y="568" name="topright"/>
	<anchor x="513" y="80" name="bottom_right"/>
	<anchor x="316" y="40" name="bottom"/>
	<outline>
		<contour>
			<point x="316" y="462" type="curve" smooth="yes"/>
			<point x="329" y="462"/>
			<point x="340" y="473"/>
			<point x="340" y="486" type="curve" smooth="yes"/>
			<point x="340" y="499"/>
			<point x="329" y="510"/>
			<point x="316" y="510" type="curve" smooth="yes"/>
			<point x="303" y="510"/>
			<point x="292" y="499"/>
			<point x="292" y="486" type="curve" smooth="yes"/>
			<point x="292" y="473"/>
			<point x="303" y="462"/>
		</contour>
		<contour>
			<point x="219" y="438" type="curve" smooth="yes"/>
			<point x="232" y="438"/>
			<point x="243" y="449"/>
			<point x="243" y="462" type="curve" smooth="yes"/>
			<point x="243" y="475"/>
			<point x="232" y="486"/>
			<point x="219" y="486" type="curve" smooth="yes"/>
			<point x="206" y="486"/>
			<point x="195" y="475"/>
			<point x="195" y="462" type="curve" smooth="yes"/>
			<point x="195" y="449"/>
			<point x="206" y="438"/>
		</contour>
		<contour>
			<point x="413" y="438" type="curve" smooth="yes"/>
			<point x="426" y="438"/>
			<point x="437" y="449"/>
			<point x="437" y="462" type="curve" smooth="yes"/>
			<point x="437" y="475"/>
			<point x="426" y="486"/>
			<point x="413" y="486" type="curve" smooth="yes"/>
			<point x="400" y="486"/>
			<point x="389" y="475"/>
			<point x="389" y="462" type="curve" smooth="yes"/>
			<point x="389" y="449"/>
			<point x="400" y="438"/>
		</contour>
		<contour>
			<point x="148" y="368" type="curve" smooth="yes"/>
			<point x="161" y="368"/>
			<point x="172" y="379"/>
			<point x="172" y="392" type="curve" smooth="yes"/>
			<point x="172" y="405"/>
			<point x="161" y="416"/>
			<point x="148" y="416" type="curve" smooth="yes"/>
			<point x="135" y="416"/>
			<point x="124" y="405"/>
			<point x="124" y="392" type="curve" smooth="yes"/>
			<point x="124" y="379"/>
			<point x="135" y="368"/>
		</contour>
		<contour>
			<point x="483" y="366" type="curve" smooth="yes"/>
			<point x="496" y="366"/>
			<point x="507" y="377"/>
			<point x="507" y="390" type="curve" smooth="yes"/>
			<point x="507" y="403"/>
			<point x="496" y="414"/>
			<point x="483" y="414" type="curve" smooth="yes"/>
			<point x="470" y="414"/>
			<point x="459" y="403"/>
			<point x="459" y="390" type="curve" smooth="yes"/>
			<point x="459" y="377"/>
			<point x="470" y="366"/>
		</contour>
		<contour>
			<point x="122" y="267" type="curve" smooth="yes"/>
			<point x="135" y="267"/>
			<point x="146" y="278"/>
			<point x="146" y="291" type="curve" smooth="yes"/>
			<point x="146" y="304"/>
			<point x="135" y="315"/>
			<point x="122" y="315" type="curve" smooth="yes"/>
			<point x="109" y="315"/>
			<point x="98" y="304"/>
			<point x="98" y="291" type="curve" smooth="yes"/>
			<point x="98" y="278"/>
			<point x="109" y="267"/>
		</contour>
		<contour>
			<point x="513" y="267" type="curve" smooth="yes"/>
			<point x="526" y="267"/>
			<point x="537" y="278"/>
			<point x="537" y="291" type="curve" smooth="yes"/>
			<point x="537" y="304"/>
			<point x="526" y="315"/>
			<point x="513" y="315" type="curve" smooth="yes"/>
			<point x="500" y="315"/>
			<point x="489" y="304"/>
			<point x="489" y="291" type="curve" smooth="yes"/>
			<point x="489" y="278"/>
			<point x="500" y="267"/>
		</contour>
		<contour>
			<point x="485" y="173" type="curve" smooth="yes"/>
			<point x="498" y="173"/>
			<point x="509" y="184"/>
			<point x="509" y="197" type="curve" smooth="yes"/>
			<point x="509" y="210"/>
			<point x="498" y="221"/>
			<point x="485" y="221" type="curve" smooth="yes"/>
			<point x="472" y="221"/>
			<point x="461" y="210"/>
			<point x="461" y="197" type="curve" smooth="yes"/>
			<point x="461" y="184"/>
			<point x="472" y="173"/>
		</contour>
		<contour>
			<point x="146" y="172" type="curve" smooth="yes"/>
			<point x="159" y="172"/>
			<point x="170" y="183"/>
			<point x="170" y="196" type="curve" smooth="yes"/>
			<point x="170" y="209"/>
			<point x="159" y="220"/>
			<point x="146" y="220" type="curve" smooth="yes"/>
			<point x="133" y="220"/>
			<point x="122" y="209"/>
			<point x="122" y="196" type="curve" smooth="yes"/>
			<point x="122" y="183"/>
			<point x="133" y="172"/>
		</contour>
		<contour>
			<point x="414" y="101" type="curve" smooth="yes"/>
			<point x="427" y="101"/>
			<point x="438" y="112"/>
			<point x="438" y="125" type="curve" smooth="yes"/>
			<point x="438" y="138"/>
			<point x="427" y="149"/>
			<point x="414" y="149" type="curve" smooth="yes"/>
			<point x="401" y="149"/>
			<point x="390" y="138"/>
			<point x="390" y="125" type="curve" smooth="yes"/>
			<point x="390" y="112"/>
			<point x="401" y="101"/>
		</contour>
		<contour>
			<point x="219" y="100" type="curve" smooth="yes"/>
			<point x="232" y="100"/>
			<point x="243" y="111"/>
			<point x="243" y="124" type="curve" smooth="yes"/>
			<point x="243" y="137"/>
			<point x="232" y="148"/>
			<point x="219" y="148" type="curve" smooth="yes"/>
			<point x="206" y="148"/>
			<point x="195" y="137"/>
			<point x="195" y="124" type="curve" smooth="yes"/>
			<point x="195" y="111"/>
			<point x="206" y="100"/>
		</contour>
		<contour>
			<point x="316" y="73" type="curve" smooth="yes"/>
			<point x="329" y="73"/>
			<point x="340" y="84"/>
			<point x="340" y="97" type="curve" smooth="yes"/>
			<point x="340" y="110"/>
			<point x="329" y="121"/>
			<point x="316" y="121" type="curve" smooth="yes"/>
			<point x="303" y="121"/>
			<point x="292" y="110"/>
			<point x="292" y="97" type="curve" smooth="yes"/>
			<point x="292" y="84"/>
			<point x="303" y="73"/>
		</contour>
	</outline>
</glyph>
<glyph name="mark_marc" format="2">
	<advance width="715"/>
	<unicode hex="11C70"/>
	<outline>
		<contour>
			<point x="654" y="366" type="line"/>
			<point x="488" y="366" type="line"/>
			<point x="488" y="436" type="line"/>
			<point x="654" y="436" type="line"/>
			<point x="654" y="678" type="line"/>
			<point x="558" y="678" type="line"/>
			<point x="558" y="522" type="line"/>
			<point x="488" y="522" type="line"/>
			<point x="488" y="678" type="line"/>
			<point x="226" y="678" type="line"/>
			<point x="226" y="592" type="line"/>
			<point x="392" y="592" type="line"/>
			<point x="392" y="522" type="line"/>
			<point x="226" y="522" type="line"/>
			<point x="226" y="280" type="line"/>
			<point x="322" y="280" type="line"/>
			<point x="322" y="436" type="line"/>
			<point x="392" y="436" type="line"/>
			<point x="392" y="280" type="line"/>
			<point x="558" y="280" type="line"/>
			<point x="558" y="210" type="line"/>
			<point x="156" y="210" type="line"/>
			<point x="156" y="678" type="line"/>
			<point x="60" y="708" type="line"/>
			<point x="60" y="124" type="line"/>
			<point x="654" y="124" type="line"/>
		</contour>
	</outline>
</glyph>
<glyph name="shad_marc" format="2">
  <advance width="430"/>
  <unicode hex="11C71"/>
  <outline>
    <contour>
      <point x="60" y="419" type="line"/>
      <point x="370" y="419" type="line"/>
      <point x="370" y="661" type="line"/>
      <point x="60" y="661" type="line"/>
    </contour>
    <contour>
      <point x="110" y="505" type="line"/>
      <point x="110" y="575" type="line"/>
      <point x="320" y="575" type="line"/>
      <point x="320" y="505" type="line"/>
    </contour>
    <contour>
      <point x="60" y="117" type="line"/>
      <point x="370" y="117" type="line"/>
      <point x="370" y="359" type="line"/>
      <point x="60" y="359" type="line"/>
    </contour>
    <contour>
      <point x="110" y="203" type="line"/>
      <point x="110" y="273" type="line"/>
      <point x="320" y="273" type="line"/>
      <point x="320" y="203" type="line"/>
    </contour>
  </outline>
</glyph>
<glyph name="ka_marc" format="2">
	<advance width="548"/>
	<unicode hex="11C72"/>
	<anchor x="270" y="718" name="top"/>
	<anchor x="271" y="78" name="bottom"/>
	<anchor x="442" y="178" name="bottom_right"/>
	<outline>
		<contour>
			<point x="60" y="678" type="line"/>
			<point x="60" y="592" type="line"/>
			<point x="226" y="592" type="line"/>
			<point x="226" y="471" type="line"/>
			<point x="179" y="493"/>
			<point x="117" y="504"/>
			<point x="60" y="501" type="curve"/>
			<point x="60" y="200" type="line"/>
			<point x="156" y="141" type="line"/>
			<point x="156" y="417" type="line"/>
			<point x="180" y="419"/>
			<point x="202" y="414"/>
			<point x="226" y="402" type="curve"/>
			<point x="226" y="160" type="line"/>
			<point x="322" y="101" type="line"/>
			<point x="322" y="592" type="line"/>
			<point x="392" y="592" type="line"/>
			<point x="392" y="137" type="line"/>
			<point x="488" y="78" type="line"/>
			<point x="488" y="678" type="line"/>
		</contour>
	</outline>
</glyph>
<glyph name="kha_marc" format="2">
	<advance width="558"/>
	<unicode hex="11C73"/>
	<anchor x="266" y="718" name="top"/>
	<anchor x="275" y="78" name="bottom"/>
	<anchor x="434" y="160" name="bottom_right"/>
	<outline>
		<contour>
			<point x="322" y="311" type="curve"/>
			<point x="322" y="436" type="line"/>
			<point x="481" y="436" type="line"/>
			<point x="481" y="522" type="line"/>
			<point x="322" y="522" type="line"/>
			<point x="322" y="592" type="line"/>
			<point x="481" y="592" type="line"/>
			<point x="481" y="678" type="line"/>
			<point x="60" y="678" type="line"/>
			<point x="60" y="592" type="line"/>
			<point x="226" y="592" type="line"/>
			<point x="226" y="522" type="line"/>
			<point x="60" y="522" type="line"/>
			<point x="60" y="138" type="line"/>
			<point x="156" y="79" type="line"/>
			<point x="156" y="436" type="line"/>
			<point x="226" y="436" type="line"/>
			<point x="226" y="229" type="line"/>
			<point x="308" y="229"/>
			<point x="418" y="224"/>
			<point x="492" y="113" type="curve"/>
			<point x="538" y="121" type="line"/>
			<point x="488" y="236"/>
			<point x="406" y="291"/>
		</contour>
	</outline>
</glyph>
<glyph name="ga_marc" format="2">
	<advance width="538"/>
	<unicode hex="11C74"/>
	<anchor x="274" y="718" name="top"/>
	<anchor x="253" y="78" name="bottom"/>
	<anchor x="433" y="160" name="bottom_right"/>
	<outline>
		<contour>
			<point x="60" y="678" type="line"/>
			<point x="60" y="592" type="line"/>
			<point x="226" y="592" type="line"/>
			<point x="226" y="522" type="line"/>
			<point x="60" y="522" type="line"/>
			<point x="60" y="280" type="line"/>
			<point x="108" y="280" type="line"/>
			<point x="38" y="148" type="line"/>
			<point x="50" y="102" type="line"/>
			<point x="74" y="121"/>
			<point x="113" y="138"/>
			<point x="162" y="138" type="curve" smooth="yes"/>
			<point x="209" y="138"/>
			<point x="254" y="122"/>
			<point x="292" y="84" type="curve"/>
			<point x="338" y="92" type="line"/>
			<point x="297" y="171"/>
			<point x="217" y="217"/>
			<point x="155" y="217" type="curve" smooth="yes"/>
			<point x="149" y="217"/>
			<point x="141" y="217"/>
			<point x="133" y="215" type="curve"/>
			<point x="167" y="280" type="line"/>
			<point x="293" y="280" type="line"/>
			<point x="311" y="366" type="line"/>
			<point x="156" y="366" type="line"/>
			<point x="156" y="436" type="line"/>
			<point x="312" y="436" type="line"/>
			<point x="312" y="592" type="line"/>
			<point x="382" y="592" type="line"/>
			<point x="382" y="137" type="line"/>
			<point x="478" y="78" type="line"/>
			<point x="478" y="678" type="line"/>
		</contour>
	</outline>
</glyph>
<glyph name="nga_marc" format="2">
	<advance width="516"/>
	<unicode hex="11C75"/>
	<anchor x="238" y="718" name="top"/>
	<anchor x="245" y="78" name="bottom"/>
	<anchor x="406" y="160" name="bottom_right"/>
	<outline>
		<contour>
			<point x="157" y="274" type="curve"/>
			<point x="157" y="436" type="line"/>
			<point x="412" y="436" type="line"/>
			<point x="430" y="522" type="line"/>
			<point x="294" y="522" type="line"/>
			<point x="294" y="592" type="line"/>
			<point x="430" y="592" type="line"/>
			<point x="430" y="678" type="line"/>
			<point x="60" y="678" type="line"/>
			<point x="60" y="592" type="line"/>
			<point x="198" y="592" type="line"/>
			<point x="198" y="522" type="line"/>
			<point x="60" y="522" type="line"/>
			<point x="60" y="188" type="line"/>
			<point x="331" y="188"/>
			<point x="401" y="146"/>
			<point x="462" y="92" type="curve"/>
			<point x="508" y="100" type="line"/>
			<point x="394" y="243"/>
			<point x="288" y="271"/>
		</contour>
	</outline>
</glyph>
<glyph name="ca_marc" format="2">
	<advance width="671"/>
	<unicode hex="11C76"/>
	<anchor x="330" y="718" name="top"/>
	<anchor x="311" y="78" name="bottom"/>
	<anchor x="311" y="78" name="bottom_right"/>
	<outline>
		<contour>
			<point x="60" y="678" type="line"/>
			<point x="60" y="592" type="line"/>
			<point x="203" y="592" type="line"/>
			<point x="203" y="522" type="line"/>
			<point x="60" y="522" type="line"/>
			<point x="60" y="128" type="line"/>
			<point x="156" y="69" type="line"/>
			<point x="156" y="436" type="line"/>
			<point x="349" y="436" type="line"/>
			<point x="349" y="366" type="line"/>
			<point x="230" y="366" type="line"/>
			<point x="230" y="144" type="line"/>
			<point x="294" y="144"/>
			<point x="363" y="145"/>
			<point x="433" y="78" type="curve"/>
			<point x="479" y="86" type="line"/>
			<point x="438" y="166"/>
			<point x="378" y="220"/>
			<point x="316" y="230" type="curve"/>
			<point x="316" y="280" type="line"/>
			<point x="445" y="280" type="line"/>
			<point x="445" y="522" type="line"/>
			<point x="299" y="522" type="line"/>
			<point x="299" y="592" type="line"/>
			<point x="515" y="592" type="line"/>
			<point x="515" y="54" type="line"/>
			<point x="611" y="-5" type="line"/>
			<point x="611" y="678" type="line"/>
		</contour>
	</outline>
</glyph>
<glyph name="cha_marc" format="2">
	<advance width="494"/>
	<unicode hex="11C77"/>
	<anchor x="238" y="718" name="top"/>
	<anchor x="274" y="78" name="bottom"/>
	<anchor x="274" y="78" name="bottom_right"/>
	<outline>
		<contour>
			<point x="306" y="216" type="curve" smooth="yes"/>
			<point x="300" y="216"/>
			<point x="292" y="216"/>
			<point x="284" y="214" type="curve"/>
			<point x="319" y="280" type="line"/>
			<point x="432" y="280" type="line"/>
			<point x="432" y="522" type="line"/>
			<point x="291" y="522" type="line"/>
			<point x="291" y="592" type="line"/>
			<point x="432" y="592" type="line"/>
			<point x="432" y="678" type="line"/>
			<point x="60" y="678" type="line"/>
			<point x="60" y="592" type="line"/>
			<point x="195" y="592" type="line"/>
			<point x="195" y="522" type="line"/>
			<point x="60" y="522" type="line"/>
			<point x="60" y="137" type="line"/>
			<point x="156" y="78" type="line"/>
			<point x="156" y="436" type="line"/>
			<point x="336" y="436" type="line"/>
			<point x="336" y="366" type="line"/>
			<point x="226" y="366" type="line"/>
			<point x="226" y="280" type="line"/>
			<point x="260" y="280" type="line"/>
			<point x="189" y="147" type="line"/>
			<point x="201" y="101" type="line"/>
			<point x="225" y="120"/>
			<point x="264" y="137"/>
			<point x="313" y="137" type="curve" smooth="yes"/>
			<point x="360" y="137"/>
			<point x="405" y="121"/>
			<point x="443" y="83" type="curve"/>
			<point x="489" y="91" type="line"/>
			<point x="448" y="170"/>
			<point x="368" y="216"/>
		</contour>
	</outline>
</glyph>
<glyph name="ja_marc" format="2">
	<advance width="513"/>
	<unicode hex="11C78"/>
	<anchor x="264" y="718" name="top"/>
	<anchor x="267" y="78" name="bottom"/>
	<outline>
		<contour>
			<point x="326" y="219" type="curve" smooth="yes"/>
			<point x="320" y="219"/>
			<point x="312" y="219"/>
			<point x="304" y="217" type="curve"/>
			<point x="337" y="280" type="line"/>
			<point x="451" y="280" type="line"/>
			<point x="451" y="522" type="line"/>
			<point x="205" y="522" type="line"/>
			<point x="205" y="592" type="line"/>
			<point x="451" y="592" type="line"/>
			<point x="451" y="678" type="line"/>
			<point x="60" y="678" type="line"/>
			<point x="60" y="592" type="line"/>
			<point x="109" y="592" type="line"/>
			<point x="109" y="436" type="line"/>
			<point x="355" y="436" type="line"/>
			<point x="355" y="366" type="line"/>
			<point x="70" y="366" type="line"/>
			<point x="70" y="137" type="line"/>
			<point x="166" y="78" type="line"/>
			<point x="166" y="280" type="line"/>
			<point x="278" y="280" type="line"/>
			<point x="209" y="150" type="line"/>
			<point x="221" y="104" type="line"/>
			<point x="245" y="123"/>
			<point x="284" y="140"/>
			<point x="333" y="140" type="curve" smooth="yes"/>
			<point x="380" y="140"/>
			<point x="425" y="124"/>
			<point x="463" y="86" type="curve"/>
			<point x="509" y="94" type="line"/>
			<point x="468" y="173"/>
			<point x="388" y="219"/>
		</contour>
	</outline>
</glyph>
<glyph name="nya_marc" format="2">
	<advance width="714"/>
	<unicode hex="11C79"/>
	<anchor x="358" y="718" name="top"/>
	<anchor x="292" y="78" name="bottom"/>
	<anchor x="609" y="144" name="bottom_right"/>
	<outline>
		<contour>
			<point x="60" y="678" type="line"/>
			<point x="60" y="436" type="line"/>
			<point x="226" y="436" type="line"/>
			<point x="226" y="366" type="line"/>
			<point x="60" y="366" type="line"/>
			<point x="60" y="124" type="line"/>
			<point x="156" y="124" type="line"/>
			<point x="156" y="280" type="line"/>
			<point x="226" y="280" type="line"/>
			<point x="226" y="124" type="line"/>
			<point x="494" y="124" type="line"/>
			<point x="494" y="210" type="line"/>
			<point x="322" y="210" type="line"/>
			<point x="322" y="280" type="line"/>
			<point x="488" y="280" type="line"/>
			<point x="488" y="522" type="line"/>
			<point x="392" y="522" type="line"/>
			<point x="392" y="366" type="line"/>
			<point x="322" y="366" type="line"/>
			<point x="322" y="522" type="line"/>
			<point x="156" y="522" type="line"/>
			<point x="156" y="592" type="line"/>
			<point x="558" y="592" type="line"/>
			<point x="558" y="123" type="line"/>
			<point x="654" y="64" type="line"/>
			<point x="654" y="678" type="line"/>
		</contour>
	</outline>
</glyph>
<glyph name="ta_marc" format="2">
	<advance width="619"/>
	<unicode hex="11C7A"/>
	<anchor x="310" y="718" name="top"/>
	<anchor x="289" y="28" name="bottom"/>
	<anchor x="514" y="142" name="bottom_right"/>
	<outline>
		<contour>
			<point x="60" y="678" type="line"/>
			<point x="60" y="592" type="line"/>
			<point x="156" y="592" type="line"/>
			<point x="156" y="522" type="line"/>
			<point x="60" y="522" type="line"/>
			<point x="60" y="286" type="line"/>
			<point x="151" y="286" type="line"/>
			<point x="151" y="226" type="line"/>
			<point x="60" y="226" type="line"/>
			<point x="60" y="141" type="line"/>
			<point x="237" y="141" type="line"/>
			<point x="237" y="286" type="line"/>
			<point x="307" y="286" type="line"/>
			<point x="307" y="142" type="line"/>
			<point x="393" y="89" type="line"/>
			<point x="393" y="372" type="line"/>
			<point x="156" y="372" type="line"/>
			<point x="156" y="436" type="line"/>
			<point x="393" y="436" type="line"/>
			<point x="393" y="522" type="line"/>
			<point x="252" y="522" type="line"/>
			<point x="252" y="592" type="line"/>
			<point x="463" y="592" type="line"/>
			<point x="463" y="87" type="line"/>
			<point x="559" y="28" type="line"/>
			<point x="559" y="678" type="line"/>
		</contour>
	</outline>
</glyph>
<glyph name="tha_marc" format="2">
	<advance width="548"/>
	<unicode hex="11C7B"/>
	<anchor x="284" y="718" name="top"/>
	<anchor x="267" y="78" name="bottom"/>
	<anchor x="443" y="160" name="bottom_right"/>
	<outline>
		<contour>
			<point x="60" y="678" type="line"/>
			<point x="60" y="592" type="line"/>
			<point x="392" y="592" type="line"/>
			<point x="392" y="204" type="line"/>
			<point x="322" y="204" type="line"/>
			<point x="322" y="522" type="line"/>
			<point x="60" y="522" type="line"/>
			<point x="60" y="436" type="line"/>
			<point x="226" y="436" type="line"/>
			<point x="226" y="366" type="line"/>
			<point x="60" y="366" type="line"/>
			<point x="60" y="177" type="line"/>
			<point x="156" y="118" type="line"/>
			<point x="156" y="280" type="line"/>
			<point x="226" y="280" type="line"/>
			<point x="226" y="118" type="line"/>
			<point x="488" y="118" type="line"/>
			<point x="488" y="678" type="line"/>
		</contour>
	</outline>
</glyph>
<glyph name="da_marc" format="2">
	<advance width="551"/>
	<unicode hex="11C7C"/>
	<anchor x="274" y="718" name="top"/>
	<anchor x="277" y="78" name="bottom"/>
	<anchor x="446" y="160" name="bottom_right"/>
	<outline>
		<contour>
			<point x="491" y="678" type="line"/>
			<point x="60" y="678" type="line"/>
			<point x="60" y="440" type="line"/>
			<point x="229" y="440" type="line"/>
			<point x="229" y="370" type="line"/>
			<point x="60" y="370" type="line"/>
			<point x="60" y="150" type="line"/>
			<point x="136" y="150"/>
			<point x="207" y="149"/>
			<point x="277" y="84" type="curve"/>
			<point x="323" y="92" type="line"/>
			<point x="280" y="172"/>
			<point x="216" y="226"/>
			<point x="146" y="236" type="curve"/>
			<point x="146" y="285" type="line"/>
			<point x="325" y="285" type="line"/>
			<point x="325" y="522" type="line"/>
			<point x="156" y="522" type="line"/>
			<point x="156" y="592" type="line"/>
			<point x="395" y="592" type="line"/>
			<point x="395" y="139" type="line"/>
			<point x="491" y="80" type="line"/>
		</contour>
	</outline>
</glyph>
<glyph name="na_marc" format="2">
	<advance width="538"/>
	<unicode hex="11C7D"/>
	<anchor x="268" y="718" name="top"/>
	<anchor x="286" y="77" name="bottom"/>
	<anchor x="433" y="144" name="bottom_right"/>
	<outline>
		<contour>
			<point x="478" y="592" type="line"/>
			<point x="478" y="678" type="line"/>
			<point x="60" y="678" type="line"/>
			<point x="60" y="592" type="line"/>
			<point x="216" y="592" type="line"/>
			<point x="216" y="522" type="line"/>
			<point x="60" y="522" type="line"/>
			<point x="60" y="436" type="line"/>
			<point x="216" y="436" type="line"/>
			<point x="216" y="366" type="line"/>
			<point x="60" y="366" type="line"/>
			<point x="60" y="280" type="line"/>
			<point x="216" y="280" type="line"/>
			<point x="216" y="210" type="line"/>
			<point x="60" y="210" type="line"/>
			<point x="60" y="124" type="line"/>
			<point x="312" y="124" type="line"/>
			<point x="312" y="436" type="line"/>
			<point x="382" y="436" type="line"/>
			<point x="382" y="137" type="line"/>
			<point x="478" y="78" type="line"/>
			<point x="478" y="522" type="line"/>
			<point x="312" y="522" type="line"/>
			<point x="312" y="592" type="line"/>
		</contour>
	</outline>
</glyph>
<glyph name="pa_marc" format="2">
	<advance width="657"/>
	<unicode hex="11C7E"/>
	<anchor x="324" y="718" name="top"/>
	<anchor x="276" y="77" name="bottom"/>
	<anchor x="552" y="140" name="bottom_right"/>
	<outline>
		<contour>
			<point x="597" y="678" type="line"/>
			<point x="218" y="678" type="line"/>
			<point x="218" y="446" type="line"/>
			<point x="335" y="446" type="line"/>
			<point x="335" y="384" type="line"/>
			<point x="156" y="384" type="line"/>
			<point x="156" y="678" type="line"/>
			<point x="60" y="678" type="line"/>
			<point x="60" y="298" type="line"/>
			<point x="201" y="298" type="line"/>
			<point x="201" y="228" type="line"/>
			<point x="63" y="228" type="line"/>
			<point x="63" y="142" type="line"/>
			<point x="431" y="142" type="line"/>
			<point x="431" y="228" type="line"/>
			<point x="297" y="228" type="line"/>
			<point x="297" y="298" type="line"/>
			<point x="431" y="298" type="line"/>
			<point x="431" y="532" type="line"/>
			<point x="314" y="532" type="line"/>
			<point x="314" y="592" type="line"/>
			<point x="501" y="592" type="line"/>
			<point x="501" y="141" type="line"/>
			<point x="597" y="82" type="line"/>
		</contour>
	</outline>
</glyph>
<glyph name="pha_marc" format="2">
	<advance width="646"/>
	<unicode hex="11C7F"/>
	<anchor x="324" y="718" name="top"/>
	<anchor x="276" y="78" name="bottom"/>
	<anchor x="541" y="181" name="bottom_right"/>
	<outline>
		<contour>
			<point x="60" y="678" type="line"/>
			<point x="60" y="299" type="line"/>
			<point x="196" y="299" type="line"/>
			<point x="196" y="229" type="line"/>
			<point x="60" y="229" type="line"/>
			<point x="60" y="143" type="line"/>
			<point x="420" y="143" type="line"/>
			<point x="420" y="229" type="line"/>
			<point x="282" y="229" type="line"/>
			<point x="282" y="299" type="line"/>
			<point x="420" y="299" type="line"/>
			<point x="420" y="522" type="line"/>
			<point x="146" y="522" type="line"/>
			<point x="146" y="592" type="line"/>
			<point x="490" y="592" type="line"/>
			<point x="490" y="144" type="line"/>
			<point x="586" y="85" type="line"/>
			<point x="586" y="678" type="line"/>
		</contour>
		<contour>
			<point x="334" y="436" type="line"/>
			<point x="334" y="385" type="line"/>
			<point x="146" y="385" type="line"/>
			<point x="146" y="436" type="line"/>
		</contour>
	</outline>
</glyph>
<glyph name="ba_marc" format="2">
	<advance width="575"/>
	<unicode hex="11C80"/>
	<anchor x="289" y="718" name="top"/>
	<anchor x="277" y="78" name="bottom"/>
	<anchor x="470" y="241" name="bottom_right"/>
	<outline>
		<contour>
			<point x="60" y="678" type="line"/>
			<point x="60" y="446" type="line"/>
			<point x="168" y="446" type="line"/>
			<point x="168" y="386" type="line"/>
			<point x="60" y="386" type="line"/>
			<point x="60" y="164" type="line"/>
			<point x="359" y="164" type="line"/>
			<point x="359" y="386" type="line"/>
			<point x="254" y="386" type="line"/>
			<point x="254" y="446" type="line"/>
			<point x="359" y="446" type="line"/>
			<point x="359" y="532" type="line"/>
			<point x="146" y="532" type="line"/>
			<point x="146" y="592" type="line"/>
			<point x="419" y="592" type="line"/>
			<point x="419" y="138" type="line"/>
			<point x="515" y="79" type="line"/>
			<point x="515" y="678" type="line"/>
		</contour>
		<contour>
			<point x="309" y="250" type="line"/>
			<point x="110" y="250" type="line"/>
			<point x="110" y="300" type="line"/>
			<point x="309" y="300" type="line"/>
		</contour>
	</outline>
</glyph>
<glyph name="ma_marc" format="2">
	<advance width="565"/>
	<unicode hex="11C81"/>
	<anchor x="282" y="718" name="top"/>
	<anchor x="259" y="78" name="bottom"/>
	<anchor x="460" y="201" name="bottom_right"/>
	<outline>
		<contour>
			<point x="60" y="678" type="line"/>
			<point x="60" y="592" type="line"/>
			<point x="170" y="592" type="line"/>
			<point x="170" y="522" type="line"/>
			<point x="60" y="522" type="line"/>
			<point x="60" y="292" type="line"/>
			<point x="253" y="292" type="line"/>
			<point x="253" y="222" type="line"/>
			<point x="60" y="222" type="line"/>
			<point x="60" y="142" type="line"/>
			<point x="339" y="142" type="line"/>
			<point x="339" y="372" type="line"/>
			<point x="146" y="372" type="line"/>
			<point x="146" y="442" type="line"/>
			<point x="339" y="442" type="line"/>
			<point x="339" y="522" type="line"/>
			<point x="266" y="522" type="line"/>
			<point x="266" y="592" type="line"/>
			<point x="409" y="592" type="line"/>
			<point x="409" y="141" type="line"/>
			<point x="505" y="82" type="line"/>
			<point x="505" y="678" type="line"/>
		</contour>
	</outline>
</glyph>
<glyph name="tsa_marc" format="2">
	<advance width="556"/>
	<unicode hex="11C82"/>
	<anchor x="304" y="718" name="top"/>
	<anchor x="276" y="78" name="bottom"/>
	<anchor x="487" y="123" name="bottom_right"/>
	<outline>
		<contour>
			<point x="390" y="237" type="curve"/>
			<point x="390" y="293" type="line"/>
			<point x="495" y="293" type="line"/>
			<point x="495" y="379" type="line"/>
			<point x="312" y="379" type="line"/>
			<point x="312" y="439" type="line"/>
			<point x="495" y="439" type="line"/>
			<point x="495" y="525" type="line"/>
			<point x="402" y="525" type="line"/>
			<point x="402" y="592" type="line"/>
			<point x="495" y="592" type="line"/>
			<point x="495" y="678" type="line"/>
			<point x="60" y="678" type="line"/>
			<point x="60" y="154" type="line"/>
			<point x="156" y="95" type="line"/>
			<point x="156" y="592" type="line"/>
			<point x="315" y="592" type="line"/>
			<point x="315" y="525" type="line"/>
			<point x="216" y="525" type="line"/>
			<point x="216" y="293" type="line"/>
			<point x="314" y="293" type="line"/>
			<point x="314" y="239" type="line"/>
			<point x="285" y="236"/>
			<point x="248" y="228"/>
			<point x="207" y="208" type="curve"/>
			<point x="199" y="126" type="line"/>
			<point x="234" y="147"/>
			<point x="301" y="169"/>
			<point x="356" y="169" type="curve" smooth="yes"/>
			<point x="408" y="169"/>
			<point x="456" y="149"/>
			<point x="498" y="105" type="curve"/>
			<point x="544" y="113" type="line"/>
			<point x="507" y="180"/>
			<point x="457" y="223"/>
		</contour>
	</outline>
</glyph>
<glyph name="tsha_marc" format="2">
	<advance width="557"/>
	<unicode hex="11C83"/>
	<anchor x="280" y="718" name="top"/>
	<anchor x="255" y="78" name="bottom"/>
	<anchor x="452" y="214" name="bottom_right"/>
	<outline>
		<contour>
			<point x="497" y="592" type="line"/>
			<point x="497" y="678" type="line"/>
			<point x="64" y="678" type="line"/>
			<point x="64" y="592" type="line"/>
			<point x="227" y="592" type="line"/>
			<point x="227" y="532" type="line"/>
			<point x="64" y="532" type="line"/>
			<point x="64" y="300" type="line"/>
			<point x="155" y="300" type="line"/>
			<point x="155" y="255" type="line"/>
			<point x="129" y="251"/>
			<point x="99" y="241"/>
			<point x="68" y="224" type="curve"/>
			<point x="60" y="142" type="line"/>
			<point x="93" y="164"/>
			<point x="135" y="185"/>
			<point x="183" y="185" type="curve" smooth="yes"/>
			<point x="229" y="185"/>
			<point x="277" y="165"/>
			<point x="319" y="121" type="curve"/>
			<point x="365" y="129" type="line"/>
			<point x="330" y="192"/>
			<point x="283" y="234"/>
			<point x="231" y="250" type="curve"/>
			<point x="231" y="300" type="line"/>
			<point x="331" y="300" type="line"/>
			<point x="331" y="386" type="line"/>
			<point x="160" y="386" type="line"/>
			<point x="160" y="446" type="line"/>
			<point x="401" y="446" type="line"/>
			<point x="401" y="138" type="line"/>
			<point x="497" y="79" type="line"/>
			<point x="497" y="532" type="line"/>
			<point x="323" y="532" type="line"/>
			<point x="323" y="592" type="line"/>
		</contour>
	</outline>
</glyph>
<glyph name="dza_marc" format="2">
	<advance width="552"/>
	<unicode hex="11C84"/>
	<anchor x="288" y="718" name="top"/>
	<anchor x="285" y="78" name="bottom"/>
	<outline>
		<contour>
			<point x="312" y="442" type="line"/>
			<point x="474" y="442" type="line"/>
			<point x="492" y="522" type="line"/>
			<point x="388" y="522" type="line"/>
			<point x="388" y="592" type="line"/>
			<point x="491" y="592" type="line"/>
			<point x="491" y="678" type="line"/>
			<point x="60" y="678" type="line"/>
			<point x="60" y="138" type="line"/>
			<point x="156" y="79" type="line"/>
			<point x="156" y="592" type="line"/>
			<point x="292" y="592" type="line"/>
			<point x="292" y="522" type="line"/>
			<point x="226" y="522" type="line"/>
			<point x="226" y="292" type="line"/>
			<point x="405" y="292" type="line"/>
			<point x="405" y="200" type="line"/>
			<point x="341" y="218"/>
			<point x="285" y="225"/>
			<point x="226" y="225" type="curve"/>
			<point x="226" y="145" type="line"/>
			<point x="317" y="144"/>
			<point x="386" y="130"/>
			<point x="491" y="88" type="curve"/>
			<point x="491" y="372" type="line"/>
			<point x="312" y="372" type="line"/>
		</contour>
	</outline>
</glyph>
<glyph name="wa_marc" format="2">
	<advance width="584"/>
	<unicode hex="11C85"/>
	<anchor x="293" y="718" name="top"/>
	<anchor x="269" y="78" name="bottom"/>
	<anchor x="479" y="200" name="bottom_right"/>
	<outline>
		<contour>
			<point x="60" y="678" type="line"/>
			<point x="60" y="592" type="line"/>
			<point x="308" y="592" type="line"/>
			<point x="308" y="532" type="line"/>
			<point x="60" y="532" type="line"/>
			<point x="60" y="448" type="line"/>
			<point x="308" y="448" type="line"/>
			<point x="308" y="388" type="line"/>
			<point x="60" y="388" type="line"/>
			<point x="60" y="170" type="line"/>
			<point x="358" y="170" type="line"/>
			<point x="358" y="448" type="line"/>
			<point x="428" y="448" type="line"/>
			<point x="428" y="163" type="line"/>
			<point x="524" y="104" type="line"/>
			<point x="524" y="678" type="line"/>
		</contour>
		<contour>
			<point x="358" y="532" type="line"/>
			<point x="358" y="592" type="line"/>
			<point x="428" y="592" type="line"/>
			<point x="428" y="532" type="line"/>
		</contour>
		<contour>
			<point x="307" y="256" type="line"/>
			<point x="110" y="256" type="line"/>
			<point x="110" y="302" type="line"/>
			<point x="307" y="302" type="line"/>
		</contour>
	</outline>
</glyph>
<glyph name="zha_marc" format="2">
	<advance width="505"/>
	<unicode hex="11C86"/>
	<anchor x="274" y="718" name="top"/>
	<anchor x="280" y="78" name="bottom"/>
	<anchor x="442" y="69" name="bottom_right"/>
	<outline>
		<contour>
			<point x="316" y="230" type="curve"/>
			<point x="316" y="280" type="line"/>
			<point x="445" y="280" type="line"/>
			<point x="445" y="522" type="line"/>
			<point x="299" y="522" type="line"/>
			<point x="299" y="592" type="line"/>
			<point x="444" y="592" type="line"/>
			<point x="444" y="678" type="line"/>
			<point x="60" y="678" type="line"/>
			<point x="60" y="592" type="line"/>
			<point x="203" y="592" type="line"/>
			<point x="203" y="522" type="line"/>
			<point x="63" y="522" type="line"/>
			<point x="63" y="128" type="line"/>
			<point x="159" y="69" type="line"/>
			<point x="159" y="436" type="line"/>
			<point x="349" y="436" type="line"/>
			<point x="349" y="366" type="line"/>
			<point x="230" y="366" type="line"/>
			<point x="230" y="144" type="line"/>
			<point x="306" y="144"/>
			<point x="377" y="143"/>
			<point x="447" y="78" type="curve"/>
			<point x="493" y="86" type="line"/>
			<point x="450" y="166"/>
			<point x="386" y="220"/>
		</contour>
	</outline>
</glyph>
<glyph name="za_marc" format="2">
	<advance width="613"/>
	<unicode hex="11C87"/>
	<anchor x="304" y="718" name="top"/>
	<anchor x="277" y="78" name="bottom"/>
	<anchor x="508" y="185" name="bottom_right"/>
	<outline>
		<contour>
			<point x="60" y="678" type="line"/>
			<point x="60" y="592" type="line"/>
			<point x="209" y="592" type="line"/>
			<point x="209" y="522" type="line"/>
			<point x="60" y="522" type="line"/>
			<point x="60" y="436" type="line"/>
			<point x="301" y="436" type="line"/>
			<point x="301" y="366" type="line"/>
			<point x="60" y="366" type="line"/>
			<point x="60" y="137" type="line"/>
			<point x="156" y="78" type="line"/>
			<point x="156" y="280" type="line"/>
			<point x="216" y="280" type="line"/>
			<point x="216" y="124" type="line"/>
			<point x="387" y="124" type="line"/>
			<point x="387" y="210" type="line"/>
			<point x="302" y="210" type="line"/>
			<point x="302" y="280" type="line"/>
			<point x="387" y="280" type="line"/>
			<point x="387" y="522" type="line"/>
			<point x="305" y="522" type="line"/>
			<point x="305" y="592" type="line"/>
			<point x="457" y="592" type="line"/>
			<point x="457" y="137" type="line"/>
			<point x="553" y="78" type="line"/>
			<point x="553" y="678" type="line"/>
		</contour>
	</outline>
</glyph>
<glyph name="aa_marc" format="2">
	<advance width="548"/>
	<unicode hex="11C88"/>
	<anchor x="276" y="718" name="top"/>
	<anchor x="443" y="174" name="bottom_right"/>
	<outline>
		<contour>
			<point x="60" y="678" type="line"/>
			<point x="60" y="592" type="line"/>
			<point x="392" y="592" type="line"/>
			<point x="392" y="532" type="line"/>
			<point x="60" y="532" type="line"/>
			<point x="60" y="446" type="line"/>
			<point x="226" y="446" type="line"/>
			<point x="226" y="345" type="line"/>
			<point x="179" y="367"/>
			<point x="117" y="378"/>
			<point x="60" y="375" type="curve"/>
			<point x="60" y="180" type="line"/>
			<point x="156" y="121" type="line"/>
			<point x="156" y="291" type="line"/>
			<point x="180" y="293"/>
			<point x="202" y="288"/>
			<point x="226" y="276" type="curve"/>
			<point x="226" y="138" type="line"/>
			<point x="322" y="79" type="line"/>
			<point x="322" y="446" type="line"/>
			<point x="392" y="446" type="line"/>
			<point x="392" y="108" type="line"/>
			<point x="488" y="49" type="line"/>
			<point x="488" y="678" type="line"/>
		</contour>
	</outline>
</glyph>
<glyph name="ya_marc" format="2">
  <advance width="528"/>
  <unicode hex="11C89"/>
  <anchor x="267" y="78" name="bottom"/>
  <anchor x="423" y="241" name="bottom_right"/>
  <anchor x="264" y="718" name="top"/>
  <outline>
    <contour>
      <point x="468" y="446" type="line"/>
      <point x="468" y="678" type="line"/>
      <point x="60" y="678" type="line"/>
      <point x="60" y="592" type="line"/>
      <point x="372" y="592" type="line"/>
      <point x="372" y="532" type="line"/>
      <point x="60" y="532" type="line"/>
      <point x="60" y="300" type="line"/>
      <point x="216" y="300" type="line"/>
      <point x="216" y="240" type="line"/>
      <point x="60" y="240" type="line"/>
      <point x="60" y="154" type="line"/>
      <point x="302" y="154" type="line"/>
      <point x="302" y="300" type="line"/>
      <point x="372" y="300" type="line"/>
      <point x="372" y="148" type="line"/>
      <point x="468" y="89" type="line"/>
      <point x="468" y="386" type="line"/>
      <point x="156" y="386" type="line"/>
      <point x="156" y="446" type="line"/>
    </contour>
  </outline>
</glyph>
<glyph name="ra_marc" format="2">
	<advance width="502"/>
	<unicode hex="11C8A"/>
	<anchor x="269" y="718" name="top"/>
	<anchor x="277" y="78" name="bottom"/>
	<anchor x="442" y="160" name="bottom_right"/>
	<outline>
		<contour>
			<point x="302" y="388" type="curve"/>
			<point x="302" y="451" type="line"/>
			<point x="441" y="451" type="line"/>
			<point x="441" y="678" type="line"/>
			<point x="60" y="678" type="line"/>
			<point x="60" y="137" type="line"/>
			<point x="156" y="78" type="line"/>
			<point x="156" y="592" type="line"/>
			<point x="345" y="592" type="line"/>
			<point x="345" y="532" type="line"/>
			<point x="216" y="532" type="line"/>
			<point x="216" y="302" type="line"/>
			<point x="292" y="302"/>
			<point x="363" y="301"/>
			<point x="433" y="236" type="curve"/>
			<point x="479" y="244" type="line"/>
			<point x="436" y="324"/>
			<point x="372" y="378"/>
		</contour>
	</outline>
</glyph>
<glyph name="la_marc" format="2">
	<advance width="596"/>
	<unicode hex="11C8B"/>
	<anchor x="536" y="394" name="ya"/>
	<anchor x="298" y="718" name="top"/>
	<anchor x="491" y="304" name="bottom_right"/>
	<anchor x="297" y="141" name="bottom"/>
	<outline>
		<contour>
			<point x="226" y="678" type="line"/>
			<point x="226" y="522" type="line"/>
			<point x="156" y="522" type="line"/>
			<point x="156" y="678" type="line"/>
			<point x="60" y="678" type="line"/>
			<point x="60" y="436" type="line"/>
			<point x="274" y="436" type="line"/>
			<point x="274" y="366" type="line"/>
			<point x="60" y="366" type="line"/>
			<point x="60" y="280" type="line"/>
			<point x="370" y="280" type="line"/>
			<point x="370" y="522" type="line"/>
			<point x="322" y="522" type="line"/>
			<point x="322" y="592" type="line"/>
			<point x="440" y="592" type="line"/>
			<point x="440" y="200" type="line"/>
			<point x="536" y="141" type="line"/>
			<point x="536" y="678" type="line"/>
		</contour>
	</outline>
</glyph>
<glyph name="sha_marc" format="2">
	<advance width="543"/>
	<unicode hex="11C8C"/>
	<anchor x="272" y="718" name="top"/>
	<anchor x="272" y="78" name="bottom"/>
	<anchor x="437" y="241" name="bottom_right"/>
	<outline>
		<contour>
			<point x="72" y="678" type="line"/>
			<point x="72" y="592" type="line"/>
			<point x="158" y="592" type="line"/>
			<point x="158" y="532" type="line"/>
			<point x="72" y="532" type="line"/>
			<point x="72" y="446" type="line"/>
			<point x="231" y="446" type="line"/>
			<point x="231" y="386" type="line"/>
			<point x="72" y="386" type="line"/>
			<point x="72" y="300" type="line"/>
			<point x="145" y="300" type="line"/>
			<point x="145" y="245" type="line"/>
			<point x="118" y="241"/>
			<point x="85" y="232"/>
			<point x="50" y="214" type="curve"/>
			<point x="42" y="132" type="line"/>
			<point x="76" y="154"/>
			<point x="128" y="175"/>
			<point x="179" y="175" type="curve" smooth="yes"/>
			<point x="227" y="175"/>
			<point x="275" y="155"/>
			<point x="317" y="111" type="curve"/>
			<point x="363" y="119" type="line"/>
			<point x="327" y="184"/>
			<point x="279" y="227"/>
			<point x="221" y="241" type="curve"/>
			<point x="221" y="300" type="line"/>
			<point x="327" y="300" type="line"/>
			<point x="327" y="532" type="line"/>
			<point x="254" y="532" type="line"/>
			<point x="254" y="592" type="line"/>
			<point x="387" y="592" type="line"/>
			<point x="387" y="138" type="line"/>
			<point x="483" y="79" type="line"/>
			<point x="483" y="678" type="line"/>
		</contour>
	</outline>
</glyph>
<glyph name="sa_marc" format="2">
	<advance width="510"/>
	<unicode hex="11C8D"/>
	<anchor x="255" y="718" name="top"/>
	<anchor x="276" y="78" name="bottom"/>
	<anchor x="405" y="202" name="bottom_right"/>
	<outline>
		<contour>
			<point x="450" y="592" type="line"/>
			<point x="450" y="678" type="line"/>
			<point x="60" y="678" type="line"/>
			<point x="60" y="436" type="line"/>
			<point x="196" y="436" type="line"/>
			<point x="196" y="366" type="line"/>
			<point x="60" y="366" type="line"/>
			<point x="60" y="173" type="line"/>
			<point x="156" y="114" type="line"/>
			<point x="156" y="281" type="line"/>
			<point x="284" y="281" type="line"/>
			<point x="284" y="436" type="line"/>
			<point x="354" y="436" type="line"/>
			<point x="354" y="162" type="line"/>
			<point x="450" y="103" type="line"/>
			<point x="450" y="522" type="line"/>
			<point x="156" y="522" type="line"/>
			<point x="156" y="592" type="line"/>
		</contour>
	</outline>
</glyph>
<glyph name="ha_marc" format="2">
	<advance width="541"/>
	<unicode hex="11C8E"/>
	<anchor x="270" y="718" name="top"/>
	<anchor x="277" y="78" name="bottom"/>
	<anchor x="436" y="274" name="bottom_right"/>
	<outline>
		<contour>
			<point x="481" y="592" type="line"/>
			<point x="481" y="678" type="line"/>
			<point x="60" y="678" type="line"/>
			<point x="60" y="436" type="line"/>
			<point x="229" y="436" type="line"/>
			<point x="229" y="366" type="line"/>
			<point x="60" y="366" type="line"/>
			<point x="60" y="280" type="line"/>
			<point x="315" y="280" type="line"/>
			<point x="315" y="436" type="line"/>
			<point x="385" y="436" type="line"/>
			<point x="385" y="170" type="line"/>
			<point x="481" y="111" type="line"/>
			<point x="481" y="522" type="line"/>
			<point x="156" y="522" type="line"/>
			<point x="156" y="592" type="line"/>
		</contour>
	</outline>
</glyph>
<glyph name="ka_marc.sub" format="2">
	<advance width="0"/>
	<unicode hex="11C92"/>
	<anchor x="-247" y="118" name="_bottom"/>
	<anchor x="-247" y="-540" name="bottom"/>
	<anchor x="-79" y="-432" name="wa_ra_mkmk"/>
	<outline>
		<contour>
			<point x="-461" y="68" type="line"/>
			<point x="-461" y="-18" type="line"/>
			<point x="-295" y="-18" type="line"/>
			<point x="-295" y="-139" type="line"/>
			<point x="-342" y="-117"/>
			<point x="-404" y="-106"/>
			<point x="-461" y="-109" type="curve"/>
			<point x="-461" y="-410" type="line"/>
			<point x="-365" y="-469" type="line"/>
			<point x="-365" y="-193" type="line"/>
			<point x="-341" y="-191"/>
			<point x="-319" y="-196"/>
			<point x="-295" y="-208" type="curve"/>
			<point x="-295" y="-450" type="line"/>
			<point x="-199" y="-509" type="line"/>
			<point x="-199" y="-18" type="line"/>
			<point x="-129" y="-18" type="line"/>
			<point x="-129" y="-473" type="line"/>
			<point x="-33" y="-532" type="line"/>
			<point x="-33" y="68" type="line"/>
		</contour>
	</outline>
</glyph>
<glyph name="kha_marc.sub" format="2">
  <unicode hex="11C93"/>
  <anchor x="-247" y="118" name="_bottom"/>
  <anchor x="-247" y="-540" name="bottom"/>
  <anchor x="-109" y="-450" name="wa_ra_mkmk"/>
  <outline>
    <contour>
      <point x="-221" y="-299" type="curve"/>
      <point x="-221" y="-174" type="line"/>
      <point x="-62" y="-174" type="line"/>
      <point x="-62" y="-88" type="line"/>
      <point x="-221" y="-88" type="line"/>
      <point x="-221" y="-18" type="line"/>
      <point x="-62" y="-18" type="line"/>
      <point x="-62" y="68" type="line"/>
      <point x="-483" y="68" type="line"/>
      <point x="-483" y="-18" type="line"/>
      <point x="-317" y="-18" type="line"/>
      <point x="-317" y="-88" type="line"/>
      <point x="-483" y="-88" type="line"/>
      <point x="-483" y="-531" type="line"/>
      <point x="-387" y="-531" type="line"/>
      <point x="-387" y="-174" type="line"/>
      <point x="-317" y="-174" type="line"/>
      <point x="-317" y="-381" type="line"/>
      <point x="-235" y="-381"/>
      <point x="-125" y="-386"/>
      <point x="-51" y="-497" type="curve"/>
      <point x="-5" y="-489" type="line"/>
      <point x="-55" y="-374"/>
      <point x="-137" y="-319"/>
    </contour>
  </outline>
</glyph>
<glyph name="ga_marc.sub" format="2">
	<advance width="0"/>
	<unicode hex="11C94"/>
	<anchor x="-247" y="118" name="_bottom"/>
	<anchor x="-247" y="-540" name="bottom"/>
	<anchor x="-70" y="-450" name="wa_ra_mkmk"/>
	<outline>
		<contour>
			<point x="-443" y="68" type="line"/>
			<point x="-443" y="-18" type="line"/>
			<point x="-277" y="-18" type="line"/>
			<point x="-277" y="-88" type="line"/>
			<point x="-443" y="-88" type="line"/>
			<point x="-443" y="-330" type="line"/>
			<point x="-395" y="-330" type="line"/>
			<point x="-465" y="-462" type="line"/>
			<point x="-453" y="-508" type="line"/>
			<point x="-429" y="-489"/>
			<point x="-390" y="-472"/>
			<point x="-341" y="-472" type="curve" smooth="yes"/>
			<point x="-294" y="-472"/>
			<point x="-249" y="-488"/>
			<point x="-211" y="-526" type="curve"/>
			<point x="-165" y="-518" type="line"/>
			<point x="-206" y="-439"/>
			<point x="-286" y="-393"/>
			<point x="-348" y="-393" type="curve" smooth="yes"/>
			<point x="-354" y="-393"/>
			<point x="-362" y="-393"/>
			<point x="-370" y="-395" type="curve"/>
			<point x="-336" y="-330" type="line"/>
			<point x="-210" y="-330" type="line"/>
			<point x="-192" y="-244" type="line"/>
			<point x="-347" y="-244" type="line"/>
			<point x="-347" y="-174" type="line"/>
			<point x="-191" y="-174" type="line"/>
			<point x="-191" y="-18" type="line"/>
			<point x="-121" y="-18" type="line"/>
			<point x="-121" y="-532" type="line"/>
			<point x="-25" y="-532" type="line"/>
			<point x="-25" y="68" type="line"/>
		</contour>
	</outline>
</glyph>
<glyph name="nga_marc.sub" format="2">
	<advance width="0"/>
	<unicode hex="11C95"/>
	<anchor x="-247" y="118" name="_bottom"/>
	<anchor x="-247" y="-540" name="bottom"/>
	<anchor x="-124" y="-450" name="wa_ra_mkmk"/>
	<outline>
		<contour>
			<point x="-373" y="-336" type="curve"/>
			<point x="-373" y="-174" type="line"/>
			<point x="-118" y="-174" type="line"/>
			<point x="-100" y="-88" type="line"/>
			<point x="-236" y="-88" type="line"/>
			<point x="-236" y="-18" type="line"/>
			<point x="-100" y="-18" type="line"/>
			<point x="-100" y="68" type="line"/>
			<point x="-470" y="68" type="line"/>
			<point x="-470" y="-18" type="line"/>
			<point x="-332" y="-18" type="line"/>
			<point x="-332" y="-88" type="line"/>
			<point x="-470" y="-88" type="line"/>
			<point x="-470" y="-422" type="line"/>
			<point x="-199" y="-422"/>
			<point x="-129" y="-464"/>
			<point x="-68" y="-518" type="curve"/>
			<point x="-22" y="-510" type="line"/>
			<point x="-136" y="-367"/>
			<point x="-242" y="-339"/>
		</contour>
	</outline>
</glyph>
<glyph name="ca_marc.sub" format="2">
	<advance width="0"/>
	<unicode hex="11C96"/>
	<anchor x="-247" y="118" name="_bottom"/>
	<anchor x="-247" y="-540" name="bottom"/>
	<anchor x="-174" y="-450" name="wa_ra_mkmk"/>
	<outline>
		<contour>
			<point x="-525" y="68" type="line"/>
			<point x="-525" y="-18" type="line"/>
			<point x="-382" y="-18" type="line"/>
			<point x="-382" y="-88" type="line"/>
			<point x="-522" y="-88" type="line"/>
			<point x="-522" y="-482" type="line"/>
			<point x="-426" y="-541" type="line"/>
			<point x="-426" y="-174" type="line"/>
			<point x="-236" y="-174" type="line"/>
			<point x="-236" y="-244" type="line"/>
			<point x="-355" y="-244" type="line"/>
			<point x="-355" y="-466" type="line"/>
			<point x="-291" y="-466"/>
			<point x="-222" y="-465"/>
			<point x="-152" y="-532" type="curve"/>
			<point x="-106" y="-524" type="line"/>
			<point x="-147" y="-444"/>
			<point x="-207" y="-390"/>
			<point x="-269" y="-380" type="curve"/>
			<point x="-269" y="-330" type="line"/>
			<point x="-140" y="-330" type="line"/>
			<point x="-140" y="-88" type="line"/>
			<point x="-286" y="-88" type="line"/>
			<point x="-286" y="-18" type="line"/>
			<point x="-70" y="-18" type="line"/>
			<point x="-70" y="-534" type="line"/>
			<point x="26" y="-593" type="line"/>
			<point x="26" y="68" type="line"/>
		</contour>
	</outline>
</glyph>
<glyph name="cha_marc.sub" format="2">
  <unicode hex="11C97"/>
  <anchor x="-247" y="118" name="_bottom"/>
  <anchor x="-247" y="-540" name="bottom"/>
  <anchor x="-112" y="-450" name="wa_ra_mkmk"/>
  <outline>
    <contour>
      <point x="-212" y="-394" type="curve" smooth="yes"/>
      <point x="-218" y="-394"/>
      <point x="-226" y="-394"/>
      <point x="-234" y="-396" type="curve"/>
      <point x="-199" y="-330" type="line"/>
      <point x="-86" y="-330" type="line"/>
      <point x="-86" y="-88" type="line"/>
      <point x="-227" y="-88" type="line"/>
      <point x="-227" y="-18" type="line"/>
      <point x="-86" y="-18" type="line"/>
      <point x="-86" y="68" type="line"/>
      <point x="-458" y="68" type="line"/>
      <point x="-458" y="-18" type="line"/>
      <point x="-323" y="-18" type="line"/>
      <point x="-323" y="-88" type="line"/>
      <point x="-458" y="-88" type="line"/>
      <point x="-458" y="-532" type="line"/>
      <point x="-362" y="-532" type="line"/>
      <point x="-362" y="-174" type="line"/>
      <point x="-182" y="-174" type="line"/>
      <point x="-182" y="-244" type="line"/>
      <point x="-292" y="-244" type="line"/>
      <point x="-292" y="-330" type="line"/>
      <point x="-258" y="-330" type="line"/>
      <point x="-329" y="-463" type="line"/>
      <point x="-317" y="-509" type="line"/>
      <point x="-293" y="-490"/>
      <point x="-254" y="-473"/>
      <point x="-205" y="-473" type="curve" smooth="yes"/>
      <point x="-158" y="-473"/>
      <point x="-113" y="-489"/>
      <point x="-75" y="-527" type="curve"/>
      <point x="-29" y="-519" type="line"/>
      <point x="-70" y="-440"/>
      <point x="-150" y="-394"/>
    </contour>
  </outline>
</glyph>
<glyph name="ja_marc.sub" format="2">
	<advance width="0"/>
	<unicode hex="11C98"/>
	<anchor x="-248" y="118" name="_bottom"/>
	<anchor x="-247" y="-540" name="bottom"/>
	<anchor x="-95" y="-450" name="wa_ra_mkmk"/>
	<outline>
		<contour>
			<point x="-201" y="-391" type="curve" smooth="yes"/>
			<point x="-207" y="-391"/>
			<point x="-215" y="-391"/>
			<point x="-223" y="-393" type="curve"/>
			<point x="-190" y="-330" type="line"/>
			<point x="-76" y="-330" type="line"/>
			<point x="-76" y="-88" type="line"/>
			<point x="-322" y="-88" type="line"/>
			<point x="-322" y="-18" type="line"/>
			<point x="-76" y="-18" type="line"/>
			<point x="-76" y="68" type="line"/>
			<point x="-467" y="68" type="line"/>
			<point x="-467" y="-18" type="line"/>
			<point x="-418" y="-18" type="line"/>
			<point x="-418" y="-174" type="line"/>
			<point x="-172" y="-174" type="line"/>
			<point x="-172" y="-244" type="line"/>
			<point x="-457" y="-244" type="line"/>
			<point x="-457" y="-532" type="line"/>
			<point x="-361" y="-532" type="line"/>
			<point x="-361" y="-330" type="line"/>
			<point x="-249" y="-330" type="line"/>
			<point x="-318" y="-460" type="line"/>
			<point x="-306" y="-506" type="line"/>
			<point x="-282" y="-487"/>
			<point x="-243" y="-470"/>
			<point x="-194" y="-470" type="curve" smooth="yes"/>
			<point x="-147" y="-470"/>
			<point x="-102" y="-486"/>
			<point x="-64" y="-524" type="curve"/>
			<point x="-18" y="-516" type="line"/>
			<point x="-59" y="-437"/>
			<point x="-139" y="-391"/>
		</contour>
	</outline>
</glyph>
<glyph name="nya_marc.sub" format="2">
	<advance width="0"/>
	<unicode hex="11C99"/>
	<anchor x="-247" y="118" name="_bottom"/>
	<anchor x="-247" y="-540" name="bottom"/>
	<anchor x="-5" y="-430" name="wa_ra_mkmk"/>
	<outline>
		<contour>
			<point x="-534" y="68" type="line"/>
			<point x="-534" y="-174" type="line"/>
			<point x="-378" y="-174" type="line"/>
			<point x="-378" y="-244" type="line"/>
			<point x="-534" y="-244" type="line"/>
			<point x="-534" y="-486" type="line"/>
			<point x="-438" y="-486" type="line"/>
			<point x="-438" y="-330" type="line"/>
			<point x="-378" y="-330" type="line"/>
			<point x="-378" y="-486" type="line"/>
			<point x="-120" y="-486" type="line"/>
			<point x="-120" y="-400" type="line"/>
			<point x="-282" y="-400" type="line"/>
			<point x="-282" y="-330" type="line"/>
			<point x="-126" y="-330" type="line"/>
			<point x="-126" y="-88" type="line"/>
			<point x="-222" y="-88" type="line"/>
			<point x="-222" y="-244" type="line"/>
			<point x="-282" y="-244" type="line"/>
			<point x="-282" y="-88" type="line"/>
			<point x="-438" y="-88" type="line"/>
			<point x="-438" y="-18" type="line"/>
			<point x="-56" y="-18" type="line"/>
			<point x="-56" y="-486" type="line"/>
			<point x="40" y="-486" type="line"/>
			<point x="40" y="68" type="line"/>
		</contour>
	</outline>
</glyph>
<glyph name="ta_marc.sub" format="2">
  <unicode hex="11C9A"/>
  <anchor x="-247" y="118" name="_bottom"/>
  <anchor x="-247" y="-540" name="bottom"/>
  <anchor x="-40" y="-430" name="wa_ra_mkmk"/>
  <outline>
    <contour>
      <point x="-494" y="68" type="line"/>
      <point x="-494" y="-18" type="line"/>
      <point x="-398" y="-18" type="line"/>
      <point x="-398" y="-88" type="line"/>
      <point x="-494" y="-88" type="line"/>
      <point x="-494" y="-324" type="line"/>
      <point x="-403" y="-324" type="line"/>
      <point x="-403" y="-384" type="line"/>
      <point x="-494" y="-384" type="line"/>
      <point x="-494" y="-469" type="line"/>
      <point x="-317" y="-469" type="line"/>
      <point x="-317" y="-324" type="line"/>
      <point x="-247" y="-324" type="line"/>
      <point x="-247" y="-469" type="line"/>
      <point x="-161" y="-469" type="line"/>
      <point x="-161" y="-238" type="line"/>
      <point x="-398" y="-238" type="line"/>
      <point x="-398" y="-174" type="line"/>
      <point x="-161" y="-174" type="line"/>
      <point x="-161" y="-88" type="line"/>
      <point x="-302" y="-88" type="line"/>
      <point x="-302" y="-18" type="line"/>
      <point x="-91" y="-18" type="line"/>
      <point x="-91" y="-469" type="line"/>
      <point x="5" y="-469" type="line"/>
      <point x="5" y="68" type="line"/>
    </contour>
  </outline>
</glyph>
<glyph name="tha_marc.sub" format="2">
	<advance width="0"/>
	<unicode hex="11C9B"/>
	<anchor x="-247" y="118" name="_bottom"/>
	<anchor x="-247" y="-540" name="bottom"/>
	<anchor x="-76" y="-450" name="wa_ra_mkmk"/>
	<outline>
		<contour>
			<point x="-459" y="68" type="line"/>
			<point x="-459" y="-18" type="line"/>
			<point x="-127" y="-18" type="line"/>
			<point x="-127" y="-406" type="line"/>
			<point x="-197" y="-406" type="line"/>
			<point x="-197" y="-88" type="line"/>
			<point x="-459" y="-88" type="line"/>
			<point x="-459" y="-174" type="line"/>
			<point x="-293" y="-174" type="line"/>
			<point x="-293" y="-244" type="line"/>
			<point x="-459" y="-244" type="line"/>
			<point x="-459" y="-492" type="line"/>
			<point x="-363" y="-492" type="line"/>
			<point x="-363" y="-330" type="line"/>
			<point x="-293" y="-330" type="line"/>
			<point x="-293" y="-492" type="line"/>
			<point x="-31" y="-492" type="line"/>
			<point x="-31" y="68" type="line"/>
		</contour>
	</outline>
</glyph>
<glyph name="da_marc.sub" format="2">
  <unicode hex="11C9C"/>
  <anchor x="-247" y="118" name="_bottom"/>
  <anchor x="-247" y="-589" name="bottom"/>
  <anchor x="-78" y="-450" name="wa_ra_mkmk"/>
  <outline>
    <contour>
      <point x="-33" y="68" type="line"/>
      <point x="-464" y="68" type="line"/>
      <point x="-464" y="-170" type="line"/>
      <point x="-295" y="-170" type="line"/>
      <point x="-295" y="-240" type="line"/>
      <point x="-464" y="-240" type="line"/>
      <point x="-464" y="-460" type="line"/>
      <point x="-388" y="-460"/>
      <point x="-317" y="-461"/>
      <point x="-247" y="-526" type="curve"/>
      <point x="-201" y="-518" type="line"/>
      <point x="-244" y="-438"/>
      <point x="-308" y="-384"/>
      <point x="-378" y="-374" type="curve"/>
      <point x="-378" y="-325" type="line"/>
      <point x="-199" y="-325" type="line"/>
      <point x="-199" y="-88" type="line"/>
      <point x="-368" y="-88" type="line"/>
      <point x="-368" y="-18" type="line"/>
      <point x="-129" y="-18" type="line"/>
      <point x="-129" y="-530" type="line"/>
      <point x="-33" y="-530" type="line"/>
    </contour>
  </outline>
</glyph>
<glyph name="na_marc.sub" format="2">
  <unicode hex="11C9D"/>
  <anchor x="-247" y="118" name="_bottom"/>
  <anchor x="-247" y="-540" name="bottom"/>
  <anchor x="-83" y="-450" name="wa_ra_mkmk"/>
  <outline>
    <contour>
      <point x="-38" y="-18" type="line"/>
      <point x="-38" y="68" type="line"/>
      <point x="-456" y="68" type="line"/>
      <point x="-456" y="-18" type="line"/>
      <point x="-300" y="-18" type="line"/>
      <point x="-300" y="-88" type="line"/>
      <point x="-456" y="-88" type="line"/>
      <point x="-456" y="-174" type="line"/>
      <point x="-300" y="-174" type="line"/>
      <point x="-300" y="-244" type="line"/>
      <point x="-456" y="-244" type="line"/>
      <point x="-456" y="-330" type="line"/>
      <point x="-300" y="-330" type="line"/>
      <point x="-300" y="-400" type="line"/>
      <point x="-456" y="-400" type="line"/>
      <point x="-456" y="-486" type="line"/>
      <point x="-204" y="-486" type="line"/>
      <point x="-204" y="-174" type="line"/>
      <point x="-134" y="-174" type="line"/>
      <point x="-134" y="-486" type="line"/>
      <point x="-38" y="-486" type="line"/>
      <point x="-38" y="-88" type="line"/>
      <point x="-204" y="-88" type="line"/>
      <point x="-204" y="-18" type="line"/>
    </contour>
  </outline>
</glyph>
<glyph name="pa_marc.sub" format="2">
	<advance width="0"/>
	<unicode hex="11C9E"/>
	<anchor x="-247" y="118" name="_bottom"/>
	<anchor x="-247" y="-540" name="bottom"/>
	<anchor x="-24" y="-450" name="wa_ra_mkmk"/>
	<outline>
		<contour>
			<point x="21" y="68" type="line"/>
			<point x="-358" y="68" type="line"/>
			<point x="-358" y="-164" type="line"/>
			<point x="-241" y="-164" type="line"/>
			<point x="-241" y="-226" type="line"/>
			<point x="-420" y="-226" type="line"/>
			<point x="-420" y="68" type="line"/>
			<point x="-516" y="68" type="line"/>
			<point x="-516" y="-312" type="line"/>
			<point x="-375" y="-312" type="line"/>
			<point x="-375" y="-382" type="line"/>
			<point x="-513" y="-382" type="line"/>
			<point x="-513" y="-468" type="line"/>
			<point x="-145" y="-468" type="line"/>
			<point x="-145" y="-382" type="line"/>
			<point x="-279" y="-382" type="line"/>
			<point x="-279" y="-312" type="line"/>
			<point x="-145" y="-312" type="line"/>
			<point x="-145" y="-78" type="line"/>
			<point x="-262" y="-78" type="line"/>
			<point x="-262" y="-18" type="line"/>
			<point x="-75" y="-18" type="line"/>
			<point x="-75" y="-468" type="line"/>
			<point x="21" y="-468" type="line"/>
		</contour>
	</outline>
</glyph>
<glyph name="pha_marc.sub" format="2">
	<advance width="0"/>
	<unicode hex="11C9F"/>
	<anchor x="-247" y="118" name="_bottom"/>
	<anchor x="-247" y="-540" name="bottom"/>
	<anchor x="1" y="-369" name="wa_ra_mkmk"/>
	<outline>
		<contour>
			<point x="-480" y="68" type="line"/>
			<point x="-480" y="-311" type="line"/>
			<point x="-344" y="-311" type="line"/>
			<point x="-344" y="-381" type="line"/>
			<point x="-480" y="-381" type="line"/>
			<point x="-480" y="-467" type="line"/>
			<point x="-120" y="-467" type="line"/>
			<point x="-120" y="-381" type="line"/>
			<point x="-258" y="-381" type="line"/>
			<point x="-258" y="-311" type="line"/>
			<point x="-120" y="-311" type="line"/>
			<point x="-120" y="-88" type="line"/>
			<point x="-394" y="-88" type="line"/>
			<point x="-394" y="-18" type="line"/>
			<point x="-50" y="-18" type="line"/>
			<point x="-50" y="-465" type="line"/>
			<point x="46" y="-465" type="line"/>
			<point x="46" y="68" type="line"/>
		</contour>
		<contour>
			<point x="-206" y="-174" type="line"/>
			<point x="-206" y="-225" type="line"/>
			<point x="-394" y="-225" type="line"/>
			<point x="-394" y="-174" type="line"/>
		</contour>
	</outline>
</glyph>
<glyph name="ba_marc.sub" format="2">
  <unicode hex="11CA0"/>
  <anchor x="-247" y="118" name="_bottom"/>
  <anchor x="-247" y="-540" name="bottom"/>
  <anchor x="-63" y="-369" name="wa_ra_mkmk"/>
  <outline>
    <contour>
      <point x="-473" y="68" type="line"/>
      <point x="-473" y="-164" type="line"/>
      <point x="-365" y="-164" type="line"/>
      <point x="-365" y="-224" type="line"/>
      <point x="-473" y="-224" type="line"/>
      <point x="-473" y="-446" type="line"/>
      <point x="-174" y="-446" type="line"/>
      <point x="-174" y="-224" type="line"/>
      <point x="-279" y="-224" type="line"/>
      <point x="-279" y="-164" type="line"/>
      <point x="-174" y="-164" type="line"/>
      <point x="-174" y="-78" type="line"/>
      <point x="-387" y="-78" type="line"/>
      <point x="-387" y="-18" type="line"/>
      <point x="-114" y="-18" type="line"/>
      <point x="-114" y="-472" type="line"/>
      <point x="-18" y="-531" type="line"/>
      <point x="-18" y="68" type="line"/>
    </contour>
    <contour>
      <point x="-224" y="-360" type="line"/>
      <point x="-423" y="-360" type="line"/>
      <point x="-423" y="-310" type="line"/>
      <point x="-224" y="-310" type="line"/>
    </contour>
  </outline>
</glyph>
<glyph name="ma_marc.sub" format="2">
  <unicode hex="11CA1"/>
  <anchor x="-247" y="118" name="_bottom"/>
  <anchor x="-247" y="-540" name="bottom"/>
  <anchor x="-70" y="-369" name="wa_ra_mkmk"/>
  <outline>
    <contour>
      <point x="-470" y="68" type="line"/>
      <point x="-470" y="-18" type="line"/>
      <point x="-360" y="-18" type="line"/>
      <point x="-360" y="-88" type="line"/>
      <point x="-470" y="-88" type="line"/>
      <point x="-470" y="-318" type="line"/>
      <point x="-277" y="-318" type="line"/>
      <point x="-277" y="-388" type="line"/>
      <point x="-470" y="-388" type="line"/>
      <point x="-470" y="-468" type="line"/>
      <point x="-191" y="-468" type="line"/>
      <point x="-191" y="-238" type="line"/>
      <point x="-384" y="-238" type="line"/>
      <point x="-384" y="-168" type="line"/>
      <point x="-191" y="-168" type="line"/>
      <point x="-191" y="-88" type="line"/>
      <point x="-264" y="-88" type="line"/>
      <point x="-264" y="-18" type="line"/>
      <point x="-121" y="-18" type="line"/>
      <point x="-121" y="-468" type="line"/>
      <point x="-25" y="-468" type="line"/>
      <point x="-25" y="68" type="line"/>
    </contour>
  </outline>
</glyph>
<glyph name="tsa_marc.sub" format="2">
	<advance width="0"/>
	<unicode hex="11CA2"/>
	<anchor x="-247" y="118" name="_bottom"/>
	<anchor x="-247" y="-540" name="bottom"/>
	<anchor x="-61" y="-487" name="wa_ra_mkmk"/>
	<outline>
		<contour>
			<point x="-158" y="-373" type="curve"/>
			<point x="-158" y="-317" type="line"/>
			<point x="-53" y="-317" type="line"/>
			<point x="-53" y="-231" type="line"/>
			<point x="-236" y="-231" type="line"/>
			<point x="-236" y="-171" type="line"/>
			<point x="-53" y="-171" type="line"/>
			<point x="-53" y="-85" type="line"/>
			<point x="-146" y="-85" type="line"/>
			<point x="-146" y="-18" type="line"/>
			<point x="-53" y="-18" type="line"/>
			<point x="-53" y="68" type="line"/>
			<point x="-488" y="68" type="line"/>
			<point x="-488" y="-515" type="line"/>
			<point x="-392" y="-515" type="line"/>
			<point x="-392" y="-18" type="line"/>
			<point x="-233" y="-18" type="line"/>
			<point x="-233" y="-85" type="line"/>
			<point x="-332" y="-85" type="line"/>
			<point x="-332" y="-317" type="line"/>
			<point x="-234" y="-317" type="line"/>
			<point x="-234" y="-371" type="line"/>
			<point x="-263" y="-374"/>
			<point x="-300" y="-382"/>
			<point x="-341" y="-402" type="curve"/>
			<point x="-349" y="-484" type="line"/>
			<point x="-314" y="-463"/>
			<point x="-247" y="-441"/>
			<point x="-192" y="-441" type="curve" smooth="yes"/>
			<point x="-140" y="-441"/>
			<point x="-92" y="-461"/>
			<point x="-50" y="-505" type="curve"/>
			<point x="-4" y="-497" type="line"/>
			<point x="-41" y="-430"/>
			<point x="-91" y="-387"/>
		</contour>
	</outline>
</glyph>
<glyph name="tsha_marc.sub" format="2">
	<advance width="0"/>
	<unicode hex="11CA3"/>
	<anchor x="-233" y="118" name="_bottom"/>
	<anchor x="-247" y="-540" name="bottom"/>
	<anchor x="-59" y="-369" name="wa_ra_mkmk"/>
	<outline>
		<contour>
			<point x="-14" y="-18" type="line"/>
			<point x="-14" y="68" type="line"/>
			<point x="-447" y="68" type="line"/>
			<point x="-447" y="-18" type="line"/>
			<point x="-284" y="-18" type="line"/>
			<point x="-284" y="-78" type="line"/>
			<point x="-447" y="-78" type="line"/>
			<point x="-447" y="-310" type="line"/>
			<point x="-356" y="-310" type="line"/>
			<point x="-356" y="-355" type="line"/>
			<point x="-382" y="-359"/>
			<point x="-412" y="-369"/>
			<point x="-443" y="-386" type="curve"/>
			<point x="-451" y="-468" type="line"/>
			<point x="-418" y="-446"/>
			<point x="-376" y="-425"/>
			<point x="-328" y="-425" type="curve" smooth="yes"/>
			<point x="-282" y="-425"/>
			<point x="-234" y="-445"/>
			<point x="-192" y="-489" type="curve"/>
			<point x="-146" y="-481" type="line"/>
			<point x="-181" y="-418"/>
			<point x="-228" y="-376"/>
			<point x="-280" y="-360" type="curve"/>
			<point x="-280" y="-310" type="line"/>
			<point x="-180" y="-310" type="line"/>
			<point x="-180" y="-224" type="line"/>
			<point x="-351" y="-224" type="line"/>
			<point x="-351" y="-164" type="line"/>
			<point x="-110" y="-164" type="line"/>
			<point x="-110" y="-491" type="line"/>
			<point x="-14" y="-491" type="line"/>
			<point x="-14" y="-78" type="line"/>
			<point x="-188" y="-78" type="line"/>
			<point x="-188" y="-18" type="line"/>
		</contour>
	</outline>
</glyph>
<glyph name="dza_marc.sub" format="2">
  <unicode hex="11CA4"/>
  <anchor x="-247" y="118" name="_bottom"/>
  <anchor x="-247" y="-540" name="bottom"/>
  <anchor x="-81" y="-450" name="wa_ra_mkmk"/>
  <outline>
    <contour>
      <point x="-215" y="-168" type="line"/>
      <point x="-53" y="-168" type="line"/>
      <point x="-35" y="-88" type="line"/>
      <point x="-139" y="-88" type="line"/>
      <point x="-139" y="-18" type="line"/>
      <point x="-36" y="-18" type="line"/>
      <point x="-36" y="68" type="line"/>
      <point x="-467" y="68" type="line"/>
      <point x="-467" y="-531" type="line"/>
      <point x="-371" y="-531" type="line"/>
      <point x="-371" y="-18" type="line"/>
      <point x="-235" y="-18" type="line"/>
      <point x="-235" y="-88" type="line"/>
      <point x="-301" y="-88" type="line"/>
      <point x="-301" y="-318" type="line"/>
      <point x="-122" y="-318" type="line"/>
      <point x="-122" y="-410" type="line"/>
      <point x="-186" y="-392"/>
      <point x="-242" y="-385"/>
      <point x="-301" y="-385" type="curve"/>
      <point x="-301" y="-465" type="line"/>
      <point x="-210" y="-466"/>
      <point x="-141" y="-480"/>
      <point x="-36" y="-522" type="curve"/>
      <point x="-36" y="-238" type="line"/>
      <point x="-215" y="-238" type="line"/>
    </contour>
  </outline>
</glyph>
<glyph name="wa_marc.sub" format="2">
	<advance width="0"/>
	<unicode hex="11CA5"/>
	<anchor x="-48" y="179" name="_bottom_right"/>
	<anchor x="-48" y="179" name="_wa_ra_mkmk"/>
	<anchor x="-48" y="-67" name="wa_ra_mkmk"/>
	<anchor x="-247" y="-540" name="bottom"/>
	<outline>
		<contour>
			<point x="-99" y="180" type="line"/>
			<point x="-99" y="55" type="line"/>
			<point x="-440" y="55" type="line"/>
			<point x="-440" y="-160" type="line"/>
			<point x="-3" y="-160" type="line"/>
			<point x="-3" y="180" type="line"/>
		</contour>
		<contour>
			<point x="-390" y="-74" type="line"/>
			<point x="-390" y="-31" type="line"/>
			<point x="-99" y="-31" type="line"/>
			<point x="-99" y="-74" type="line"/>
		</contour>
	</outline>
</glyph>
<glyph name="zha_marc.sub" format="2">
	<advance width="0"/>
	<unicode hex="11CA6"/>
	<anchor x="-247" y="118" name="_bottom"/>
	<anchor x="-247" y="-540" name="bottom"/>
	<anchor x="-76" y="-541" name="wa_ra_mkmk"/>
	<outline>
		<contour>
			<point x="-202" y="-380" type="curve"/>
			<point x="-202" y="-330" type="line"/>
			<point x="-73" y="-330" type="line"/>
			<point x="-73" y="-88" type="line"/>
			<point x="-219" y="-88" type="line"/>
			<point x="-219" y="-18" type="line"/>
			<point x="-74" y="-18" type="line"/>
			<point x="-74" y="68" type="line"/>
			<point x="-458" y="68" type="line"/>
			<point x="-458" y="-18" type="line"/>
			<point x="-315" y="-18" type="line"/>
			<point x="-315" y="-88" type="line"/>
			<point x="-455" y="-88" type="line"/>
			<point x="-455" y="-541" type="line"/>
			<point x="-359" y="-541" type="line"/>
			<point x="-359" y="-174" type="line"/>
			<point x="-169" y="-174" type="line"/>
			<point x="-169" y="-244" type="line"/>
			<point x="-288" y="-244" type="line"/>
			<point x="-288" y="-466" type="line"/>
			<point x="-212" y="-466"/>
			<point x="-141" y="-467"/>
			<point x="-71" y="-532" type="curve"/>
			<point x="-25" y="-524" type="line"/>
			<point x="-68" y="-444"/>
			<point x="-132" y="-390"/>
		</contour>
	</outline>
</glyph>
<glyph name="za_marc.sub" format="2">
  <unicode hex="11CA7"/>
  <anchor x="-247" y="118" name="_bottom"/>
  <anchor x="-247" y="-540" name="bottom"/>
  <anchor x="-45" y="-424" name="wa_ra_mkmk"/>
  <outline>
    <contour>
      <point x="-493" y="69" type="line"/>
      <point x="-493" y="-17" type="line"/>
      <point x="-344" y="-17" type="line"/>
      <point x="-344" y="-87" type="line"/>
      <point x="-493" y="-87" type="line"/>
      <point x="-493" y="-173" type="line"/>
      <point x="-252" y="-173" type="line"/>
      <point x="-252" y="-243" type="line"/>
      <point x="-493" y="-243" type="line"/>
      <point x="-493" y="-531" type="line"/>
      <point x="-397" y="-531" type="line"/>
      <point x="-397" y="-329" type="line"/>
      <point x="-337" y="-329" type="line"/>
      <point x="-337" y="-485" type="line"/>
      <point x="-166" y="-485" type="line"/>
      <point x="-166" y="-399" type="line"/>
      <point x="-251" y="-399" type="line"/>
      <point x="-251" y="-329" type="line"/>
      <point x="-166" y="-329" type="line"/>
      <point x="-166" y="-87" type="line"/>
      <point x="-248" y="-87" type="line"/>
      <point x="-248" y="-17" type="line"/>
      <point x="-96" y="-17" type="line"/>
      <point x="-96" y="-531" type="line"/>
      <point x="0" y="-531" type="line"/>
      <point x="0" y="69" type="line"/>
    </contour>
  </outline>
</glyph>
<glyph name="ya_marc.sub" format="2">
	<advance width="0"/>
	<unicode hex="11CA9"/>
	<anchor x="-247" y="-540" name="bottom"/>
	<outline>
		<contour>
			<point x="151" y="678" type="line"/>
			<point x="151" y="-46" type="line"/>
			<point x="81" y="-46" type="line"/>
			<point x="81" y="480" type="line"/>
			<point x="-76" y="480" type="line"/>
			<point x="-76" y="394" type="line"/>
			<point x="-15" y="394" type="line"/>
			<point x="-15" y="-120" type="line"/>
			<point x="247" y="-120" type="line"/>
			<point x="247" y="678" type="line"/>
		</contour>
	</outline>
</glyph>
<glyph name="ra_marc.sub" format="2">
	<advance width="0"/>
	<unicode hex="11CAA"/>
	<anchor x="-56" y="99" name="_bottom_right"/>
	<anchor x="-56" y="99" name="_wa_ra_mkmk"/>
	<anchor x="-56" y="-57" name="wa_ra_mkmk"/>
	<anchor x="-247" y="-540" name="bottom"/>
	<outline>
		<contour>
			<point x="-428" y="-150" type="line"/>
			<point x="-11" y="-150" type="line"/>
			<point x="-11" y="100" type="line"/>
			<point x="-107" y="100" type="line"/>
			<point x="-107" y="-114" type="line"/>
			<point x="-203" y="-64" type="line"/>
			<point x="-428" y="-64" type="line"/>
		</contour>
	</outline>
</glyph>
<glyph name="la_marc.sub" format="2">
  <unicode hex="11CAB"/>
  <anchor x="-247" y="118" name="_bottom"/>
  <anchor x="-247" y="-540" name="bottom"/>
  <anchor x="-54" y="-306" name="wa_ra_mkmk"/>
  <outline>
    <contour>
      <point x="-319" y="68" type="line"/>
      <point x="-319" y="-88" type="line"/>
      <point x="-389" y="-88" type="line"/>
      <point x="-389" y="68" type="line"/>
      <point x="-485" y="68" type="line"/>
      <point x="-485" y="-174" type="line"/>
      <point x="-271" y="-174" type="line"/>
      <point x="-271" y="-244" type="line"/>
      <point x="-485" y="-244" type="line"/>
      <point x="-485" y="-330" type="line"/>
      <point x="-175" y="-330" type="line"/>
      <point x="-175" y="-88" type="line"/>
      <point x="-223" y="-88" type="line"/>
      <point x="-223" y="-18" type="line"/>
      <point x="-105" y="-18" type="line"/>
      <point x="-105" y="-469" type="line"/>
      <point x="-9" y="-469" type="line"/>
      <point x="-9" y="68" type="line"/>
    </contour>
  </outline>
</glyph>
<glyph name="sha_marc.sub" format="2">
	<advance width="0"/>
	<unicode hex="11CAC"/>
	<anchor x="-247" y="118" name="_bottom"/>
	<anchor x="-247" y="-540" name="bottom"/>
	<anchor x="-65" y="-369" name="wa_ra_mkmk"/>
	<outline>
		<contour>
			<point x="-431" y="68" type="line"/>
			<point x="-431" y="-18" type="line"/>
			<point x="-345" y="-18" type="line"/>
			<point x="-345" y="-78" type="line"/>
			<point x="-431" y="-78" type="line"/>
			<point x="-431" y="-164" type="line"/>
			<point x="-272" y="-164" type="line"/>
			<point x="-272" y="-224" type="line"/>
			<point x="-431" y="-224" type="line"/>
			<point x="-431" y="-310" type="line"/>
			<point x="-358" y="-310" type="line"/>
			<point x="-358" y="-365" type="line"/>
			<point x="-385" y="-369"/>
			<point x="-418" y="-378"/>
			<point x="-453" y="-396" type="curve"/>
			<point x="-461" y="-478" type="line"/>
			<point x="-427" y="-456"/>
			<point x="-375" y="-435"/>
			<point x="-324" y="-435" type="curve" smooth="yes"/>
			<point x="-276" y="-435"/>
			<point x="-228" y="-455"/>
			<point x="-186" y="-499" type="curve"/>
			<point x="-140" y="-491" type="line"/>
			<point x="-176" y="-426"/>
			<point x="-224" y="-383"/>
			<point x="-282" y="-369" type="curve"/>
			<point x="-282" y="-310" type="line"/>
			<point x="-176" y="-310" type="line"/>
			<point x="-176" y="-78" type="line"/>
			<point x="-249" y="-78" type="line"/>
			<point x="-249" y="-18" type="line"/>
			<point x="-116" y="-18" type="line"/>
			<point x="-116" y="-531" type="line"/>
			<point x="-20" y="-531" type="line"/>
			<point x="-20" y="68" type="line"/>
		</contour>
	</outline>
</glyph>
<glyph name="sa_marc.sub" format="2">
  <unicode hex="11CAD"/>
  <anchor x="-247" y="118" name="_bottom"/>
  <anchor x="-247" y="-540" name="bottom"/>
  <anchor x="-97" y="-369" name="wa_ra_mkmk"/>
  <outline>
    <contour>
      <point x="-52" y="-18" type="line"/>
      <point x="-52" y="68" type="line"/>
      <point x="-442" y="68" type="line"/>
      <point x="-442" y="-174" type="line"/>
      <point x="-306" y="-174" type="line"/>
      <point x="-306" y="-244" type="line"/>
      <point x="-442" y="-244" type="line"/>
      <point x="-442" y="-469" type="line"/>
      <point x="-346" y="-469" type="line"/>
      <point x="-346" y="-329" type="line"/>
      <point x="-218" y="-329" type="line"/>
      <point x="-218" y="-174" type="line"/>
      <point x="-148" y="-174" type="line"/>
      <point x="-148" y="-469" type="line"/>
      <point x="-52" y="-469" type="line"/>
      <point x="-52" y="-88" type="line"/>
      <point x="-346" y="-88" type="line"/>
      <point x="-346" y="-18" type="line"/>
    </contour>
  </outline>
</glyph>
<glyph name="ha_marc.sub" format="2">
  <unicode hex="11CAE"/>
  <anchor x="-247" y="118" name="_bottom"/>
  <anchor x="-247" y="-540" name="bottom"/>
  <anchor x="-81" y="-306" name="wa_ra_mkmk"/>
  <outline>
    <contour>
      <point x="-36" y="-18" type="line"/>
      <point x="-36" y="68" type="line"/>
      <point x="-457" y="68" type="line"/>
      <point x="-457" y="-174" type="line"/>
      <point x="-288" y="-174" type="line"/>
      <point x="-288" y="-244" type="line"/>
      <point x="-457" y="-244" type="line"/>
      <point x="-457" y="-330" type="line"/>
      <point x="-202" y="-330" type="line"/>
      <point x="-202" y="-174" type="line"/>
      <point x="-132" y="-174" type="line"/>
      <point x="-132" y="-469" type="line"/>
      <point x="-36" y="-469" type="line"/>
      <point x="-36" y="-88" type="line"/>
      <point x="-361" y="-88" type="line"/>
      <point x="-361" y="-18" type="line"/>
    </contour>
  </outline>
</glyph>
<glyph name="a_marc.sub" format="2">
	<advance width="0"/>
	<unicode hex="11CAF"/>
	<anchor x="-187" y="50" name="top"/>
	<anchor x="-247" y="-540" name="bottom"/>
	<outline>
		<contour>
			<point x="-542" y="10" type="line"/>
			<point x="-542" y="-76" type="line"/>
			<point x="72" y="-76" type="line"/>
			<point x="72" y="-570" type="line"/>
			<point x="168" y="-629" type="line"/>
			<point x="168" y="10" type="line"/>
		</contour>
		<contour>
			<point x="-73" y="-411" type="curve"/>
			<point x="-98" y="-339"/>
			<point x="-131" y="-268"/>
			<point x="-160" y="-218" type="curve"/>
			<point x="-141" y="-136" type="line"/>
			<point x="-346" y="-136" type="line"/>
			<point x="-366" y="-222" type="line"/>
			<point x="-345" y="-222" type="line"/>
			<point x="-365" y="-254"/>
			<point x="-381" y="-292"/>
			<point x="-385" y="-340" type="curve"/>
			<point x="-334" y="-341"/>
			<point x="-286" y="-367"/>
			<point x="-286" y="-400" type="curve" smooth="yes"/>
			<point x="-286" y="-428"/>
			<point x="-319" y="-445"/>
			<point x="-361" y="-445" type="curve" smooth="yes"/>
			<point x="-427" y="-445"/>
			<point x="-487" y="-403"/>
			<point x="-487" y="-315" type="curve" smooth="yes"/>
			<point x="-487" y="-278"/>
			<point x="-476" y="-244"/>
			<point x="-453" y="-222" type="curve"/>
			<point x="-430" y="-222" type="line"/>
			<point x="-410" y="-136" type="line"/>
			<point x="-516" y="-136" type="line"/>
			<point x="-536" y="-222" type="line"/>
			<point x="-509" y="-222" type="line"/>
			<point x="-531" y="-249"/>
			<point x="-550" y="-291"/>
			<point x="-550" y="-345" type="curve" smooth="yes"/>
			<point x="-550" y="-455"/>
			<point x="-469" y="-531"/>
			<point x="-377" y="-531" type="curve" smooth="yes"/>
			<point x="-285" y="-531"/>
			<point x="-224" y="-464"/>
			<point x="-224" y="-375" type="curve" smooth="yes"/>
			<point x="-224" y="-314"/>
			<point x="-256" y="-267"/>
			<point x="-302" y="-253" type="curve"/>
			<point x="-302" y="-243"/>
			<point x="-299" y="-233"/>
			<point x="-293" y="-222" type="curve"/>
			<point x="-247" y="-222" type="line"/>
			<point x="-180" y="-302"/>
			<point x="-97" y="-462"/>
			<point x="-76" y="-553" type="curve"/>
			<point x="2" y="-569" type="line"/>
			<point x="2" y="-216" type="line" smooth="yes"/>
			<point x="2" y="-182"/>
			<point x="7" y="-152"/>
			<point x="10" y="-136" type="curve"/>
			<point x="-94" y="-136" type="line"/>
			<point x="-78" y="-181"/>
			<point x="-73" y="-303"/>
		</contour>
	</outline>
</glyph>
<glyph name="aa_marc.sub" format="2">
  <unicode hex="11CB0"/>
  <anchor x="-247" y="130" name="_bottom"/>
  <anchor x="-247" y="-540" name="bottom"/>
  <anchor x="-78" y="-408" name="wa_ra_mkmk"/>
  <outline>
    <contour>
      <point x="-461" y="68" type="line"/>
      <point x="-461" y="-18" type="line"/>
      <point x="-129" y="-18" type="line"/>
      <point x="-129" y="-78" type="line"/>
      <point x="-461" y="-78" type="line"/>
      <point x="-461" y="-164" type="line"/>
      <point x="-295" y="-164" type="line"/>
      <point x="-295" y="-265" type="line"/>
      <point x="-342" y="-243"/>
      <point x="-404" y="-232"/>
      <point x="-461" y="-235" type="curve"/>
      <point x="-461" y="-392" type="line"/>
      <point x="-365" y="-451" type="line"/>
      <point x="-365" y="-319" type="line"/>
      <point x="-341" y="-317"/>
      <point x="-319" y="-322"/>
      <point x="-295" y="-334" type="curve"/>
      <point x="-295" y="-452" type="line"/>
      <point x="-199" y="-511" type="line"/>
      <point x="-199" y="-164" type="line"/>
      <point x="-129" y="-164" type="line"/>
      <point x="-129" y="-492" type="line"/>
      <point x="-33" y="-551" type="line"/>
      <point x="-33" y="68" type="line"/>
    </contour>
  </outline>
</glyph>
<glyph name="i_marc" format="2">
	<advance width="164"/>
	<unicode hex="11CB1"/>
	<outline>
		<contour>
			<point x="188" y="869" type="curve" smooth="yes"/>
			<point x="108" y="869"/>
			<point x="60" y="808"/>
			<point x="60" y="714" type="curve" smooth="yes"/>
			<point x="60" y="-122" type="line"/>
			<point x="156" y="-181" type="line"/>
			<point x="156" y="717" type="line" smooth="yes"/>
			<point x="156" y="768"/>
			<point x="169" y="797"/>
			<point x="215" y="797" type="curve" smooth="yes"/>
			<point x="289" y="797"/>
			<point x="350" y="723"/>
			<point x="379" y="669" type="curve"/>
			<point x="411" y="669" type="line"/>
			<point x="377" y="751"/>
			<point x="300" y="869"/>
		</contour>
	</outline>
</glyph>
<glyph name="u_marc" format="2">
	<advance width="0"/>
	<unicode hex="11CB2"/>
	<anchor x="-56" y="-57" name="wa_ra_mkmk"/>
	<anchor x="-56" y="99" name="_bottom_right"/>
	<anchor x="-56" y="99" name="_wa_ra_mkmk"/>
	<outline>
		<contour>
			<point x="-11" y="99" type="line"/>
			<point x="-107" y="99" type="line"/>
			<point x="-107" y="-64" type="line"/>
			<point x="-428" y="-64" type="line"/>
			<point x="-428" y="-150" type="line"/>
			<point x="-11" y="-150" type="line"/>
		</contour>
	</outline>
</glyph>
<glyph name="e_marc" format="2">
	<advance width="0"/>
	<unicode hex="11CB3"/>
	<anchor x="394" y="520" name="_topright"/>
	<anchor x="306" y="718" name="top"/>
	<outline>
		<contour>
			<point x="490" y="520" type="line"/>
			<point x="490" y="678" type="line"/>
			<point x="60" y="678" type="line"/>
			<point x="60" y="592" type="line"/>
			<point x="394" y="592" type="line"/>
			<point x="394" y="520" type="line"/>
		</contour>
	</outline>
</glyph>
<glyph name="o_marc" format="2">
	<advance width="0"/>
	<unicode hex="11CB4"/>
	<anchor x="-311" y="520" name="_topright"/>
	<anchor x="-319" y="718" name="top"/>
	<outline>
		<contour>
			<point x="-667" y="678" type="line"/>
			<point x="-667" y="592" type="line"/>
			<point x="-156" y="592" type="line"/>
			<point x="-156" y="59" type="line"/>
			<point x="-60" y="0" type="line"/>
			<point x="-60" y="678" type="line"/>
		</contour>
	</outline>
</glyph>
<glyph name="anusvara_marc" format="2">
	<advance width="0"/>
	<unicode hex="11CB5"/>
	<anchor x="-136" y="497" name="_top"/>
	<outline>
		<contour>
			<point x="-154" y="752" type="line"/>
			<point x="-291" y="593" type="line"/>
			<point x="-116" y="505" type="line"/>
			<point x="21" y="664" type="line"/>
		</contour>
		<contour>
			<point x="-129" y="679" type="line"/>
			<point x="-77" y="653" type="line"/>
			<point x="-142" y="577" type="line"/>
			<point x="-195" y="603" type="line"/>
		</contour>
	</outline>
</glyph>
<glyph name="candrabindu_marc" format="2">
  <unicode hex="11CB6"/>
  <anchor x="-87" y="482" name="_top"/>
  <outline>
    <contour>
      <point x="-132" y="867" type="line"/>
      <point x="-269" y="708" type="line"/>
      <point x="-94" y="620" type="line"/>
      <point x="43" y="779" type="line"/>
    </contour>
    <contour>
      <point x="-107" y="794" type="line"/>
      <point x="-55" y="768" type="line"/>
      <point x="-120" y="692" type="line"/>
      <point x="-173" y="718" type="line"/>
    </contour>
    <contour>
      <point x="99" y="746" type="line"/>
      <point x="83" y="705"/>
      <point x="18" y="565"/>
      <point x="-117" y="565" type="curve" smooth="yes"/>
      <point x="-207" y="565"/>
      <point x="-285" y="625"/>
      <point x="-312" y="653" type="curve"/>
      <point x="-360" y="637" type="line"/>
      <point x="-331" y="591"/>
      <point x="-240" y="492"/>
      <point x="-95" y="492" type="curve" smooth="yes"/>
      <point x="88" y="492"/>
      <point x="169" y="663"/>
      <point x="190" y="715" type="curve"/>
    </contour>
  </outline>
</glyph>
<glyph name="a_aa_marc.sub" format="2">
	<advance width="830"/>
	<anchor x="415" y="718" name="top"/>
	<outline>
		<contour>
			<point x="60" y="678" type="line"/>
			<point x="60" y="592" type="line"/>
			<point x="674" y="592" type="line"/>
			<point x="674" y="-628" type="line"/>
			<point x="770" y="-687" type="line"/>
			<point x="770" y="678" type="line"/>
		</contour>
		<contour>
			<point x="529" y="257" type="curve"/>
			<point x="504" y="329"/>
			<point x="471" y="400"/>
			<point x="442" y="450" type="curve"/>
			<point x="461" y="532" type="line"/>
			<point x="256" y="532" type="line"/>
			<point x="236" y="446" type="line"/>
			<point x="257" y="446" type="line"/>
			<point x="237" y="414"/>
			<point x="221" y="376"/>
			<point x="217" y="328" type="curve"/>
			<point x="268" y="327"/>
			<point x="316" y="301"/>
			<point x="316" y="268" type="curve" smooth="yes"/>
			<point x="316" y="240"/>
			<point x="283" y="223"/>
			<point x="241" y="223" type="curve" smooth="yes"/>
			<point x="175" y="223"/>
			<point x="115" y="265"/>
			<point x="115" y="353" type="curve" smooth="yes"/>
			<point x="115" y="390"/>
			<point x="126" y="424"/>
			<point x="149" y="446" type="curve"/>
			<point x="172" y="446" type="line"/>
			<point x="192" y="532" type="line"/>
			<point x="86" y="532" type="line"/>
			<point x="66" y="446" type="line"/>
			<point x="93" y="446" type="line"/>
			<point x="71" y="419"/>
			<point x="52" y="377"/>
			<point x="52" y="323" type="curve" smooth="yes"/>
			<point x="52" y="213"/>
			<point x="133" y="137"/>
			<point x="225" y="137" type="curve" smooth="yes"/>
			<point x="317" y="137"/>
			<point x="378" y="204"/>
			<point x="378" y="293" type="curve" smooth="yes"/>
			<point x="378" y="354"/>
			<point x="346" y="401"/>
			<point x="300" y="415" type="curve"/>
			<point x="300" y="425"/>
			<point x="303" y="435"/>
			<point x="309" y="446" type="curve"/>
			<point x="355" y="446" type="line"/>
			<point x="422" y="366"/>
			<point x="505" y="206"/>
			<point x="526" y="115" type="curve"/>
			<point x="604" y="99" type="line"/>
			<point x="604" y="452" type="line" smooth="yes"/>
			<point x="604" y="486"/>
			<point x="609" y="516"/>
			<point x="612" y="532" type="curve"/>
			<point x="508" y="532" type="line"/>
			<point x="524" y="487"/>
			<point x="529" y="365"/>
		</contour>
		<contour>
			<point x="146" y="-37" type="line"/>
			<point x="508" y="-37" type="line"/>
			<point x="508" y="-97" type="line"/>
			<point x="146" y="-97" type="line"/>
			<point x="146" y="-183" type="line"/>
			<point x="327" y="-183" type="line"/>
			<point x="327" y="-284" type="line"/>
			<point x="280" y="-262"/>
			<point x="203" y="-251"/>
			<point x="146" y="-254" type="curve"/>
			<point x="146" y="-449" type="line"/>
			<point x="242" y="-508" type="line"/>
			<point x="242" y="-338" type="line"/>
			<point x="266" y="-336"/>
			<point x="303" y="-341"/>
			<point x="327" y="-353" type="curve"/>
			<point x="327" y="-491" type="line"/>
			<point x="423" y="-550" type="line"/>
			<point x="423" y="-183" type="line"/>
			<point x="508" y="-183" type="line"/>
			<point x="508" y="-551" type="line"/>
			<point x="604" y="-610" type="line"/>
			<point x="604" y="49" type="line"/>
			<point x="146" y="49" type="line"/>
		</contour>
	</outline>
</glyph>
<glyph name="a_e_marc" format="2">
	<advance width="830"/>
	<anchor x="414" y="718" name="top"/>
	<outline>
		<contour>
			<point x="60" y="678" type="line"/>
			<point x="60" y="592" type="line"/>
			<point x="674" y="592" type="line"/>
			<point x="674" y="532" type="line"/>
			<point x="60" y="532" type="line"/>
			<point x="60" y="446" type="line"/>
			<point x="674" y="446" type="line"/>
			<point x="674" y="-48" type="line"/>
			<point x="770" y="-107" type="line"/>
			<point x="770" y="678" type="line"/>
		</contour>
		<contour>
			<point x="529" y="111" type="curve"/>
			<point x="504" y="183"/>
			<point x="471" y="254"/>
			<point x="442" y="304" type="curve"/>
			<point x="461" y="386" type="line"/>
			<point x="256" y="386" type="line"/>
			<point x="236" y="300" type="line"/>
			<point x="257" y="300" type="line"/>
			<point x="237" y="268"/>
			<point x="221" y="230"/>
			<point x="217" y="182" type="curve"/>
			<point x="268" y="181"/>
			<point x="316" y="155"/>
			<point x="316" y="122" type="curve" smooth="yes"/>
			<point x="316" y="94"/>
			<point x="283" y="77"/>
			<point x="241" y="77" type="curve" smooth="yes"/>
			<point x="175" y="77"/>
			<point x="115" y="119"/>
			<point x="115" y="207" type="curve" smooth="yes"/>
			<point x="115" y="244"/>
			<point x="126" y="278"/>
			<point x="149" y="300" type="curve"/>
			<point x="172" y="300" type="line"/>
			<point x="192" y="386" type="line"/>
			<point x="86" y="386" type="line"/>
			<point x="66" y="300" type="line"/>
			<point x="93" y="300" type="line"/>
			<point x="71" y="273"/>
			<point x="52" y="231"/>
			<point x="52" y="177" type="curve" smooth="yes"/>
			<point x="52" y="67"/>
			<point x="133" y="-9"/>
			<point x="225" y="-9" type="curve" smooth="yes"/>
			<point x="317" y="-9"/>
			<point x="378" y="58"/>
			<point x="378" y="147" type="curve" smooth="yes"/>
			<point x="378" y="208"/>
			<point x="346" y="255"/>
			<point x="300" y="269" type="curve"/>
			<point x="300" y="279"/>
			<point x="303" y="289"/>
			<point x="309" y="300" type="curve"/>
			<point x="355" y="300" type="line"/>
			<point x="422" y="220"/>
			<point x="505" y="60"/>
			<point x="526" y="-31" type="curve"/>
			<point x="604" y="-47" type="line"/>
			<point x="604" y="306" type="line" smooth="yes"/>
			<point x="604" y="340"/>
			<point x="609" y="370"/>
			<point x="612" y="386" type="curve"/>
			<point x="508" y="386" type="line"/>
			<point x="524" y="341"/>
			<point x="529" y="219"/>
		</contour>
	</outline>
</glyph>
<glyph name="a_i_marc" format="2">
	<advance width="996"/>
	<anchor x="581" y="718" name="top"/>
	<anchor x="611" y="718" name="candrabindu_narrow"/>
	<outline>
		<contour>
			<point x="407" y="678" type="line"/>
			<point x="371" y="759"/>
			<point x="296" y="869"/>
			<point x="188" y="869" type="curve" smooth="yes"/>
			<point x="108" y="869"/>
			<point x="60" y="808"/>
			<point x="60" y="714" type="curve" smooth="yes"/>
			<point x="60" y="138" type="line"/>
			<point x="156" y="79" type="line"/>
			<point x="156" y="717" type="line" smooth="yes"/>
			<point x="156" y="768"/>
			<point x="169" y="797"/>
			<point x="215" y="797" type="curve" smooth="yes"/>
			<point x="285" y="797"/>
			<point x="343" y="731"/>
			<point x="374" y="678" type="curve"/>
			<point x="226" y="678" type="line"/>
			<point x="226" y="592" type="line"/>
			<point x="840" y="592" type="line"/>
			<point x="840" y="98" type="line"/>
			<point x="936" y="39" type="line"/>
			<point x="936" y="678" type="line"/>
		</contour>
		<contour>
			<point x="695" y="257" type="curve"/>
			<point x="670" y="329"/>
			<point x="637" y="400"/>
			<point x="608" y="450" type="curve"/>
			<point x="627" y="532" type="line"/>
			<point x="422" y="532" type="line"/>
			<point x="402" y="446" type="line"/>
			<point x="423" y="446" type="line"/>
			<point x="403" y="414"/>
			<point x="387" y="376"/>
			<point x="383" y="328" type="curve"/>
			<point x="434" y="327"/>
			<point x="482" y="301"/>
			<point x="482" y="268" type="curve" smooth="yes"/>
			<point x="482" y="240"/>
			<point x="449" y="223"/>
			<point x="407" y="223" type="curve" smooth="yes"/>
			<point x="341" y="223"/>
			<point x="281" y="265"/>
			<point x="281" y="353" type="curve" smooth="yes"/>
			<point x="281" y="390"/>
			<point x="292" y="424"/>
			<point x="315" y="446" type="curve"/>
			<point x="338" y="446" type="line"/>
			<point x="358" y="532" type="line"/>
			<point x="252" y="532" type="line"/>
			<point x="232" y="446" type="line"/>
			<point x="259" y="446" type="line"/>
			<point x="237" y="419"/>
			<point x="218" y="377"/>
			<point x="218" y="323" type="curve" smooth="yes"/>
			<point x="218" y="213"/>
			<point x="299" y="137"/>
			<point x="391" y="137" type="curve" smooth="yes"/>
			<point x="483" y="137"/>
			<point x="544" y="204"/>
			<point x="544" y="293" type="curve" smooth="yes"/>
			<point x="544" y="354"/>
			<point x="512" y="401"/>
			<point x="466" y="415" type="curve"/>
			<point x="466" y="425"/>
			<point x="469" y="435"/>
			<point x="475" y="446" type="curve"/>
			<point x="521" y="446" type="line"/>
			<point x="588" y="366"/>
			<point x="671" y="206"/>
			<point x="692" y="115" type="curve"/>
			<point x="770" y="99" type="line"/>
			<point x="770" y="452" type="line" smooth="yes"/>
			<point x="770" y="486"/>
			<point x="775" y="516"/>
			<point x="778" y="532" type="curve"/>
			<point x="674" y="532" type="line"/>
			<point x="690" y="487"/>
			<point x="695" y="365"/>
		</contour>
	</outline>
</glyph>
<glyph name="aa_i_marc" format="2">
	<advance width="714"/>
	<anchor x="462" y="718" name="top"/>
	<anchor x="532" y="718" name="candrabindu_narrow"/>
	<anchor x="610" y="174" name="bottom_right"/>
	<outline>
		<contour>
			<point x="375" y="678" type="line"/>
			<point x="342" y="759"/>
			<point x="276" y="869"/>
			<point x="181" y="869" type="curve" smooth="yes"/>
			<point x="108" y="869"/>
			<point x="60" y="808"/>
			<point x="60" y="714" type="curve" smooth="yes"/>
			<point x="60" y="138" type="line"/>
			<point x="156" y="79" type="line"/>
			<point x="156" y="717" type="line" smooth="yes"/>
			<point x="156" y="768"/>
			<point x="169" y="797"/>
			<point x="207" y="797" type="curve" smooth="yes"/>
			<point x="266" y="797"/>
			<point x="314" y="731"/>
			<point x="342" y="678" type="curve"/>
			<point x="226" y="678" type="line"/>
			<point x="226" y="592" type="line"/>
			<point x="558" y="592" type="line"/>
			<point x="558" y="532" type="line"/>
			<point x="226" y="532" type="line"/>
			<point x="226" y="446" type="line"/>
			<point x="392" y="446" type="line"/>
			<point x="392" y="345" type="line"/>
			<point x="345" y="367"/>
			<point x="283" y="378"/>
			<point x="226" y="375" type="curve"/>
			<point x="226" y="180" type="line"/>
			<point x="322" y="121" type="line"/>
			<point x="322" y="291" type="line"/>
			<point x="346" y="293"/>
			<point x="368" y="288"/>
			<point x="392" y="276" type="curve"/>
			<point x="392" y="138" type="line"/>
			<point x="488" y="79" type="line"/>
			<point x="488" y="446" type="line"/>
			<point x="558" y="446" type="line"/>
			<point x="558" y="88" type="line"/>
			<point x="654" y="29" type="line"/>
			<point x="654" y="678" type="line"/>
		</contour>
	</outline>
</glyph>
<glyph name="aa_o_marc" format="2">
	<advance width="706"/>
	<anchor x="356" y="718" name="top"/>
	<anchor x="444" y="28" name="bottom_right"/>
	<outline>
		<contour>
			<point x="53" y="678" type="line"/>
			<point x="53" y="592" type="line"/>
			<point x="550" y="592" type="line"/>
			<point x="550" y="-141" type="line"/>
			<point x="646" y="-200" type="line"/>
			<point x="646" y="678" type="line"/>
		</contour>
		<contour>
			<point x="52" y="446" type="line"/>
			<point x="384" y="446" type="line"/>
			<point x="384" y="386" type="line"/>
			<point x="52" y="386" type="line"/>
			<point x="52" y="300" type="line"/>
			<point x="218" y="300" type="line"/>
			<point x="218" y="199" type="line"/>
			<point x="171" y="221"/>
			<point x="109" y="232"/>
			<point x="52" y="229" type="curve"/>
			<point x="52" y="34" type="line"/>
			<point x="148" y="-25" type="line"/>
			<point x="148" y="145" type="line"/>
			<point x="172" y="147"/>
			<point x="194" y="142"/>
			<point x="218" y="130" type="curve"/>
			<point x="218" y="-8" type="line"/>
			<point x="314" y="-67" type="line"/>
			<point x="314" y="300" type="line"/>
			<point x="384" y="300" type="line"/>
			<point x="384" y="-68" type="line"/>
			<point x="480" y="-127" type="line"/>
			<point x="480" y="532" type="line"/>
			<point x="52" y="532" type="line"/>
		</contour>
	</outline>
</glyph>
<glyph name="aa_u_marc" format="2">
  <advance width="556"/>
  <anchor x="278" y="718" name="top"/>
  <outline>
    <contour>
      <point x="68" y="678" type="line"/>
      <point x="68" y="592" type="line"/>
      <point x="400" y="592" type="line"/>
      <point x="400" y="532" type="line"/>
      <point x="68" y="532" type="line"/>
      <point x="68" y="446" type="line"/>
      <point x="234" y="446" type="line"/>
      <point x="234" y="345" type="line"/>
      <point x="187" y="367"/>
      <point x="125" y="378"/>
      <point x="68" y="375" type="curve"/>
      <point x="68" y="180" type="line"/>
      <point x="164" y="121" type="line"/>
      <point x="164" y="291" type="line"/>
      <point x="188" y="293"/>
      <point x="210" y="288"/>
      <point x="234" y="276" type="curve"/>
      <point x="234" y="138" type="line"/>
      <point x="330" y="79" type="line"/>
      <point x="330" y="446" type="line"/>
      <point x="400" y="446" type="line"/>
      <point x="400" y="10" type="line"/>
      <point x="60" y="10" type="line"/>
      <point x="60" y="-76" type="line"/>
      <point x="496" y="-76" type="line"/>
      <point x="496" y="678" type="line"/>
    </contour>
  </outline>
</glyph>
<glyph name="ba_aa_marc.sub" format="2">
  <advance width="575"/>
  <anchor x="289" y="718" name="top"/>
  <outline>
    <contour>
      <point x="60" y="678" type="line"/>
      <point x="60" y="446" type="line"/>
      <point x="168" y="446" type="line"/>
      <point x="168" y="386" type="line"/>
      <point x="60" y="386" type="line"/>
      <point x="60" y="164" type="line"/>
      <point x="359" y="164" type="line"/>
      <point x="359" y="386" type="line"/>
      <point x="254" y="386" type="line"/>
      <point x="254" y="446" type="line"/>
      <point x="359" y="446" type="line"/>
      <point x="359" y="532" type="line"/>
      <point x="146" y="532" type="line"/>
      <point x="146" y="592" type="line"/>
      <point x="419" y="592" type="line"/>
      <point x="419" y="141" type="line"/>
      <point x="515" y="141" type="line"/>
      <point x="515" y="678" type="line"/>
    </contour>
    <contour>
      <point x="309" y="250" type="line"/>
      <point x="110" y="250" type="line"/>
      <point x="110" y="300" type="line"/>
      <point x="309" y="300" type="line"/>
    </contour>
    <contour>
      <point x="60" y="-5" type="line"/>
      <point x="419" y="-5" type="line"/>
      <point x="419" y="-65" type="line"/>
      <point x="60" y="-65" type="line"/>
      <point x="60" y="-151" type="line"/>
      <point x="240" y="-151" type="line"/>
      <point x="240" y="-252" type="line"/>
      <point x="193" y="-230"/>
      <point x="117" y="-219"/>
      <point x="60" y="-222" type="curve"/>
      <point x="60" y="-417" type="line"/>
      <point x="156" y="-476" type="line"/>
      <point x="156" y="-306" type="line"/>
      <point x="180" y="-304"/>
      <point x="216" y="-309"/>
      <point x="240" y="-321" type="curve"/>
      <point x="240" y="-459" type="line"/>
      <point x="336" y="-518" type="line"/>
      <point x="336" y="-151" type="line"/>
      <point x="419" y="-151" type="line"/>
      <point x="419" y="-529" type="line"/>
      <point x="515" y="-588" type="line"/>
      <point x="515" y="81" type="line"/>
      <point x="60" y="81" type="line"/>
    </contour>
  </outline>
</glyph>
<glyph name="ba_i_marc" format="2">
	<advance width="741"/>
	<anchor x="555" y="718" name="candrabindu_narrow"/>
	<anchor x="475" y="718" name="top"/>
	<anchor x="636" y="241" name="bottom_right"/>
	<anchor x="443" y="78" name="bottom"/>
	<outline>
		<contour>
			<point x="375" y="678" type="line"/>
			<point x="342" y="759"/>
			<point x="276" y="869"/>
			<point x="181" y="869" type="curve" smooth="yes"/>
			<point x="108" y="869"/>
			<point x="60" y="808"/>
			<point x="60" y="714" type="curve" smooth="yes"/>
			<point x="60" y="138" type="line"/>
			<point x="156" y="79" type="line"/>
			<point x="156" y="717" type="line" smooth="yes"/>
			<point x="156" y="768"/>
			<point x="169" y="797"/>
			<point x="207" y="797" type="curve" smooth="yes"/>
			<point x="266" y="797"/>
			<point x="314" y="731"/>
			<point x="342" y="678" type="curve"/>
			<point x="226" y="678" type="line"/>
			<point x="226" y="446" type="line"/>
			<point x="334" y="446" type="line"/>
			<point x="334" y="386" type="line"/>
			<point x="226" y="386" type="line"/>
			<point x="226" y="164" type="line"/>
			<point x="525" y="164" type="line"/>
			<point x="525" y="386" type="line"/>
			<point x="420" y="386" type="line"/>
			<point x="420" y="446" type="line"/>
			<point x="525" y="446" type="line"/>
			<point x="525" y="532" type="line"/>
			<point x="312" y="532" type="line"/>
			<point x="312" y="592" type="line"/>
			<point x="585" y="592" type="line"/>
			<point x="585" y="138" type="line"/>
			<point x="681" y="79" type="line"/>
			<point x="681" y="678" type="line"/>
		</contour>
		<contour>
			<point x="475" y="250" type="line"/>
			<point x="276" y="250" type="line"/>
			<point x="276" y="300" type="line"/>
			<point x="475" y="300" type="line"/>
		</contour>
	</outline>
</glyph>
<glyph name="ba_la.sub" format="2">
  <advance width="598"/>
  <anchor x="300" y="718" name="top"/>
  <outline>
    <contour>
      <point x="60" y="678" type="line"/>
      <point x="60" y="446" type="line"/>
      <point x="175" y="446" type="line"/>
      <point x="175" y="386" type="line"/>
      <point x="60" y="386" type="line"/>
      <point x="60" y="164" type="line"/>
      <point x="374" y="164" type="line"/>
      <point x="374" y="386" type="line"/>
      <point x="261" y="386" type="line"/>
      <point x="261" y="446" type="line"/>
      <point x="374" y="446" type="line"/>
      <point x="374" y="532" type="line"/>
      <point x="146" y="532" type="line"/>
      <point x="146" y="592" type="line"/>
      <point x="442" y="592" type="line"/>
      <point x="442" y="141" type="line"/>
      <point x="538" y="141" type="line"/>
      <point x="538" y="678" type="line"/>
    </contour>
    <contour>
      <point x="324" y="250" type="line"/>
      <point x="110" y="250" type="line"/>
      <point x="110" y="300" type="line"/>
      <point x="324" y="300" type="line"/>
    </contour>
    <contour>
      <point x="228" y="-75" type="line"/>
      <point x="158" y="-75" type="line"/>
      <point x="158" y="81" type="line"/>
      <point x="62" y="81" type="line"/>
      <point x="62" y="-161" type="line"/>
      <point x="276" y="-161" type="line"/>
      <point x="276" y="-231" type="line"/>
      <point x="62" y="-231" type="line"/>
      <point x="62" y="-317" type="line"/>
      <point x="372" y="-317" type="line"/>
      <point x="372" y="-75" type="line"/>
      <point x="324" y="-75" type="line"/>
      <point x="324" y="-5" type="line"/>
      <point x="442" y="-5" type="line"/>
      <point x="442" y="-397" type="line"/>
      <point x="538" y="-456" type="line"/>
      <point x="538" y="81" type="line"/>
      <point x="228" y="81" type="line"/>
    </contour>
  </outline>
</glyph>
<glyph name="ba_la.sub_e_marc" format="2">
  <advance width="598"/>
  <anchor x="299" y="718" name="top"/>
  <outline>
    <contour>
      <point x="60" y="678" type="line"/>
      <point x="60" y="592" type="line"/>
      <point x="442" y="592" type="line"/>
      <point x="442" y="532" type="line"/>
      <point x="60" y="532" type="line"/>
      <point x="60" y="300" type="line"/>
      <point x="175" y="300" type="line"/>
      <point x="175" y="240" type="line"/>
      <point x="60" y="240" type="line"/>
      <point x="60" y="18" type="line"/>
      <point x="374" y="18" type="line"/>
      <point x="374" y="240" type="line"/>
      <point x="261" y="240" type="line"/>
      <point x="261" y="300" type="line"/>
      <point x="374" y="300" type="line"/>
      <point x="374" y="386" type="line"/>
      <point x="146" y="386" type="line"/>
      <point x="146" y="446" type="line"/>
      <point x="442" y="446" type="line"/>
      <point x="442" y="-5" type="line"/>
      <point x="538" y="-5" type="line"/>
      <point x="538" y="678" type="line"/>
    </contour>
    <contour>
      <point x="324" y="104" type="line"/>
      <point x="110" y="104" type="line"/>
      <point x="110" y="154" type="line"/>
      <point x="324" y="154" type="line"/>
    </contour>
    <contour>
      <point x="228" y="-221" type="line"/>
      <point x="158" y="-221" type="line"/>
      <point x="158" y="-65" type="line"/>
      <point x="62" y="-65" type="line"/>
      <point x="62" y="-307" type="line"/>
      <point x="276" y="-307" type="line"/>
      <point x="276" y="-377" type="line"/>
      <point x="62" y="-377" type="line"/>
      <point x="62" y="-463" type="line"/>
      <point x="372" y="-463" type="line"/>
      <point x="372" y="-221" type="line"/>
      <point x="324" y="-221" type="line"/>
      <point x="324" y="-151" type="line"/>
      <point x="442" y="-151" type="line"/>
      <point x="442" y="-543" type="line"/>
      <point x="538" y="-602" type="line"/>
      <point x="538" y="-65" type="line"/>
      <point x="228" y="-65" type="line"/>
    </contour>
  </outline>
</glyph>
<glyph name="ba_la.sub_i_marc" format="2">
	<advance width="764"/>
	<anchor x="466" y="718" name="top"/>
	<anchor x="537" y="718" name="candrabindu_narrow"/>
	<outline>
		<contour>
			<point x="375" y="678" type="line"/>
			<point x="342" y="759"/>
			<point x="276" y="869"/>
			<point x="181" y="869" type="curve" smooth="yes"/>
			<point x="108" y="869"/>
			<point x="60" y="808"/>
			<point x="60" y="714" type="curve" smooth="yes"/>
			<point x="60" y="-248" type="line"/>
			<point x="156" y="-307" type="line"/>
			<point x="156" y="717" type="line" smooth="yes"/>
			<point x="156" y="768"/>
			<point x="169" y="797"/>
			<point x="207" y="797" type="curve" smooth="yes"/>
			<point x="266" y="797"/>
			<point x="314" y="731"/>
			<point x="342" y="678" type="curve"/>
			<point x="226" y="678" type="line"/>
			<point x="226" y="446" type="line"/>
			<point x="341" y="446" type="line"/>
			<point x="341" y="386" type="line"/>
			<point x="226" y="386" type="line"/>
			<point x="226" y="164" type="line"/>
			<point x="540" y="164" type="line"/>
			<point x="540" y="386" type="line"/>
			<point x="427" y="386" type="line"/>
			<point x="427" y="446" type="line"/>
			<point x="540" y="446" type="line"/>
			<point x="540" y="532" type="line"/>
			<point x="312" y="532" type="line"/>
			<point x="312" y="592" type="line"/>
			<point x="608" y="592" type="line"/>
			<point x="608" y="141" type="line"/>
			<point x="704" y="141" type="line"/>
			<point x="704" y="678" type="line"/>
		</contour>
		<contour>
			<point x="490" y="250" type="line"/>
			<point x="276" y="250" type="line"/>
			<point x="276" y="300" type="line"/>
			<point x="490" y="300" type="line"/>
		</contour>
		<contour>
			<point x="394" y="-75" type="line"/>
			<point x="324" y="-75" type="line"/>
			<point x="324" y="81" type="line"/>
			<point x="228" y="81" type="line"/>
			<point x="228" y="-161" type="line"/>
			<point x="442" y="-161" type="line"/>
			<point x="442" y="-231" type="line"/>
			<point x="228" y="-231" type="line"/>
			<point x="228" y="-317" type="line"/>
			<point x="538" y="-317" type="line"/>
			<point x="538" y="-75" type="line"/>
			<point x="490" y="-75" type="line"/>
			<point x="490" y="-5" type="line"/>
			<point x="608" y="-5" type="line"/>
			<point x="608" y="-397" type="line"/>
			<point x="704" y="-456" type="line"/>
			<point x="704" y="81" type="line"/>
			<point x="394" y="81" type="line"/>
		</contour>
	</outline>
</glyph>
<glyph name="ba_ra.sub_o_marc" format="2">
	<advance width="741"/>
	<anchor x="370" y="718" name="top"/>
	<outline>
		<contour>
			<point x="60" y="678" type="line"/>
			<point x="60" y="592" type="line"/>
			<point x="585" y="592" type="line"/>
			<point x="585" y="-139" type="line"/>
			<point x="681" y="-198" type="line"/>
			<point x="681" y="678" type="line"/>
		</contour>
		<contour>
			<point x="60" y="532" type="line"/>
			<point x="60" y="300" type="line"/>
			<point x="168" y="300" type="line"/>
			<point x="168" y="240" type="line"/>
			<point x="60" y="240" type="line"/>
			<point x="60" y="18" type="line"/>
			<point x="359" y="18" type="line"/>
			<point x="359" y="240" type="line"/>
			<point x="254" y="240" type="line"/>
			<point x="254" y="300" type="line"/>
			<point x="359" y="300" type="line"/>
			<point x="359" y="386" type="line"/>
			<point x="146" y="386" type="line"/>
			<point x="146" y="446" type="line"/>
			<point x="419" y="446" type="line"/>
			<point x="419" y="-102" type="line"/>
			<point x="323" y="-52" type="line"/>
			<point x="60" y="-52" type="line"/>
			<point x="60" y="-138" type="line"/>
			<point x="515" y="-138" type="line"/>
			<point x="515" y="532" type="line"/>
		</contour>
		<contour>
			<point x="309" y="104" type="line"/>
			<point x="110" y="104" type="line"/>
			<point x="110" y="154" type="line"/>
			<point x="309" y="154" type="line"/>
		</contour>
	</outline>
</glyph>
<glyph name="ba_u_marc" format="2">
  <advance width="575"/>
  <anchor x="289" y="718" name="top"/>
  <outline>
    <contour>
      <point x="60" y="678" type="line"/>
      <point x="60" y="446" type="line"/>
      <point x="168" y="446" type="line"/>
      <point x="168" y="386" type="line"/>
      <point x="60" y="386" type="line"/>
      <point x="60" y="164" type="line"/>
      <point x="359" y="164" type="line"/>
      <point x="359" y="386" type="line"/>
      <point x="254" y="386" type="line"/>
      <point x="254" y="446" type="line"/>
      <point x="359" y="446" type="line"/>
      <point x="359" y="532" type="line"/>
      <point x="146" y="532" type="line"/>
      <point x="146" y="592" type="line"/>
      <point x="419" y="592" type="line"/>
      <point x="419" y="94" type="line"/>
      <point x="60" y="94" type="line"/>
      <point x="60" y="8" type="line"/>
      <point x="515" y="8" type="line"/>
      <point x="515" y="678" type="line"/>
    </contour>
    <contour>
      <point x="309" y="250" type="line"/>
      <point x="110" y="250" type="line"/>
      <point x="110" y="300" type="line"/>
      <point x="309" y="300" type="line"/>
    </contour>
  </outline>
</glyph>
<glyph name="ba_ya.sub_e_marc" format="2">
	<advance width="741"/>
	<anchor x="287" y="718" name="top"/>
	<outline>
		<contour>
			<point x="585" y="678" type="line"/>
			<point x="585" y="6" type="line"/>
			<point x="515" y="6" type="line"/>
			<point x="515" y="678" type="line"/>
			<point x="60" y="678" type="line"/>
			<point x="60" y="592" type="line"/>
			<point x="419" y="592" type="line"/>
			<point x="419" y="532" type="line"/>
			<point x="60" y="532" type="line"/>
			<point x="60" y="300" type="line"/>
			<point x="168" y="300" type="line"/>
			<point x="168" y="240" type="line"/>
			<point x="60" y="240" type="line"/>
			<point x="60" y="18" type="line"/>
			<point x="359" y="18" type="line"/>
			<point x="359" y="240" type="line"/>
			<point x="254" y="240" type="line"/>
			<point x="254" y="300" type="line"/>
			<point x="359" y="300" type="line"/>
			<point x="359" y="386" type="line"/>
			<point x="146" y="386" type="line"/>
			<point x="146" y="446" type="line"/>
			<point x="419" y="446" type="line"/>
			<point x="419" y="-68" type="line"/>
			<point x="681" y="-68" type="line"/>
			<point x="681" y="678" type="line"/>
		</contour>
		<contour>
			<point x="309" y="104" type="line"/>
			<point x="110" y="104" type="line"/>
			<point x="110" y="154" type="line"/>
			<point x="309" y="154" type="line"/>
		</contour>
	</outline>
</glyph>
<glyph name="ba_ya.sub_u_marc" format="2">
	<advance width="741"/>
	<anchor x="289" y="718" name="top"/>
	<outline>
		<contour>
			<point x="585" y="678" type="line"/>
			<point x="585" y="152" type="line"/>
			<point x="515" y="152" type="line"/>
			<point x="515" y="678" type="line"/>
			<point x="60" y="678" type="line"/>
			<point x="60" y="446" type="line"/>
			<point x="168" y="446" type="line"/>
			<point x="168" y="386" type="line"/>
			<point x="60" y="386" type="line"/>
			<point x="60" y="164" type="line"/>
			<point x="359" y="164" type="line"/>
			<point x="359" y="386" type="line"/>
			<point x="254" y="386" type="line"/>
			<point x="254" y="446" type="line"/>
			<point x="359" y="446" type="line"/>
			<point x="359" y="532" type="line"/>
			<point x="146" y="532" type="line"/>
			<point x="146" y="592" type="line"/>
			<point x="419" y="592" type="line"/>
			<point x="419" y="78" type="line"/>
			<point x="585" y="78" type="line"/>
			<point x="585" y="8" type="line"/>
			<point x="60" y="8" type="line"/>
			<point x="60" y="-78" type="line"/>
			<point x="681" y="-78" type="line"/>
			<point x="681" y="678" type="line"/>
		</contour>
		<contour>
			<point x="309" y="250" type="line"/>
			<point x="110" y="250" type="line"/>
			<point x="110" y="300" type="line"/>
			<point x="309" y="300" type="line"/>
		</contour>
	</outline>
</glyph>
<glyph name="ca_aa_marc.sub" format="2">
	<advance width="671"/>
	<anchor x="330" y="718" name="top"/>
	<outline>
		<contour>
			<point x="60" y="678" type="line"/>
			<point x="60" y="592" type="line"/>
			<point x="203" y="592" type="line"/>
			<point x="203" y="522" type="line"/>
			<point x="60" y="522" type="line"/>
			<point x="60" y="78" type="line"/>
			<point x="156" y="78" type="line"/>
			<point x="156" y="436" type="line"/>
			<point x="349" y="436" type="line"/>
			<point x="349" y="366" type="line"/>
			<point x="230" y="366" type="line"/>
			<point x="230" y="144" type="line"/>
			<point x="294" y="144"/>
			<point x="363" y="145"/>
			<point x="433" y="78" type="curve"/>
			<point x="479" y="86" type="line"/>
			<point x="438" y="166"/>
			<point x="378" y="220"/>
			<point x="316" y="230" type="curve"/>
			<point x="316" y="280" type="line"/>
			<point x="445" y="280" type="line"/>
			<point x="445" y="522" type="line"/>
			<point x="299" y="522" type="line"/>
			<point x="299" y="592" type="line"/>
			<point x="515" y="592" type="line"/>
			<point x="515" y="78" type="line"/>
			<point x="611" y="78" type="line"/>
			<point x="611" y="678" type="line"/>
		</contour>
		<contour>
			<point x="153" y="-68" type="line"/>
			<point x="515" y="-68" type="line"/>
			<point x="515" y="-128" type="line"/>
			<point x="153" y="-128" type="line"/>
			<point x="153" y="-214" type="line"/>
			<point x="334" y="-214" type="line"/>
			<point x="334" y="-315" type="line"/>
			<point x="287" y="-293"/>
			<point x="210" y="-282"/>
			<point x="153" y="-285" type="curve"/>
			<point x="153" y="-480" type="line"/>
			<point x="249" y="-539" type="line"/>
			<point x="249" y="-369" type="line"/>
			<point x="273" y="-367"/>
			<point x="310" y="-372"/>
			<point x="334" y="-384" type="curve"/>
			<point x="334" y="-522" type="line"/>
			<point x="430" y="-581" type="line"/>
			<point x="430" y="-214" type="line"/>
			<point x="515" y="-214" type="line"/>
			<point x="515" y="-592" type="line"/>
			<point x="611" y="-651" type="line"/>
			<point x="611" y="18" type="line"/>
			<point x="153" y="18" type="line"/>
		</contour>
	</outline>
</glyph>
<glyph name="ca_i_marc" format="2">
	<advance width="837"/>
	<anchor x="586" y="718" name="candrabindu_narrow"/>
	<anchor x="536" y="718" name="top"/>
	<anchor x="476" y="77" name="bottom_right"/>
	<anchor x="477" y="78" name="bottom"/>
	<outline>
		<contour>
			<point x="425" y="678" type="line"/>
			<point x="387" y="759"/>
			<point x="307" y="869"/>
			<point x="191" y="869" type="curve" smooth="yes"/>
			<point x="108" y="869"/>
			<point x="60" y="808"/>
			<point x="60" y="714" type="curve" smooth="yes"/>
			<point x="60" y="119" type="line"/>
			<point x="156" y="60" type="line"/>
			<point x="156" y="717" type="line" smooth="yes"/>
			<point x="156" y="768"/>
			<point x="169" y="797"/>
			<point x="220" y="797" type="curve" smooth="yes"/>
			<point x="296" y="797"/>
			<point x="359" y="731"/>
			<point x="392" y="678" type="curve"/>
			<point x="226" y="678" type="line"/>
			<point x="226" y="592" type="line"/>
			<point x="369" y="592" type="line"/>
			<point x="369" y="522" type="line"/>
			<point x="226" y="522" type="line"/>
			<point x="226" y="98" type="line"/>
			<point x="322" y="39" type="line"/>
			<point x="322" y="436" type="line"/>
			<point x="515" y="436" type="line"/>
			<point x="515" y="366" type="line"/>
			<point x="396" y="366" type="line"/>
			<point x="396" y="144" type="line"/>
			<point x="460" y="144"/>
			<point x="529" y="145"/>
			<point x="599" y="78" type="curve"/>
			<point x="645" y="86" type="line"/>
			<point x="604" y="166"/>
			<point x="544" y="220"/>
			<point x="482" y="230" type="curve"/>
			<point x="482" y="280" type="line"/>
			<point x="611" y="280" type="line"/>
			<point x="611" y="522" type="line"/>
			<point x="465" y="522" type="line"/>
			<point x="465" y="592" type="line"/>
			<point x="681" y="592" type="line"/>
			<point x="681" y="54" type="line"/>
			<point x="777" y="-5" type="line"/>
			<point x="777" y="678" type="line"/>
		</contour>
	</outline>
</glyph>
<glyph name="ca_o_marc" format="2">
	<advance width="837"/>
	<anchor x="418" y="718" name="top"/>
	<anchor x="311" y="-68" name="bottom"/>
	<anchor x="310" y="-68" name="bottom_right"/>
	<outline>
		<contour>
			<point x="60" y="678" type="line"/>
			<point x="60" y="592" type="line"/>
			<point x="681" y="592" type="line"/>
			<point x="681" y="-161" type="line"/>
			<point x="777" y="-220" type="line"/>
			<point x="777" y="678" type="line"/>
		</contour>
		<contour>
			<point x="60" y="446" type="line"/>
			<point x="203" y="446" type="line"/>
			<point x="203" y="376" type="line"/>
			<point x="60" y="376" type="line"/>
			<point x="60" y="-48" type="line"/>
			<point x="156" y="-107" type="line"/>
			<point x="156" y="290" type="line"/>
			<point x="349" y="290" type="line"/>
			<point x="349" y="220" type="line"/>
			<point x="230" y="220" type="line"/>
			<point x="230" y="-2" type="line"/>
			<point x="294" y="-2"/>
			<point x="363" y="-1"/>
			<point x="433" y="-68" type="curve"/>
			<point x="479" y="-60" type="line"/>
			<point x="438" y="20"/>
			<point x="378" y="74"/>
			<point x="316" y="84" type="curve"/>
			<point x="316" y="134" type="line"/>
			<point x="445" y="134" type="line"/>
			<point x="445" y="376" type="line"/>
			<point x="299" y="376" type="line"/>
			<point x="299" y="446" type="line"/>
			<point x="515" y="446" type="line"/>
			<point x="515" y="-92" type="line"/>
			<point x="611" y="-151" type="line"/>
			<point x="611" y="532" type="line"/>
			<point x="60" y="532" type="line"/>
		</contour>
	</outline>
</glyph>
<glyph name="ca_ra.sub" format="2">
	<advance width="671"/>
	<outline>
		<contour>
			<point x="60" y="678" type="line"/>
			<point x="60" y="592" type="line"/>
			<point x="203" y="592" type="line"/>
			<point x="203" y="522" type="line"/>
			<point x="60" y="522" type="line"/>
			<point x="60" y="69" type="line"/>
			<point x="156" y="69" type="line"/>
			<point x="156" y="436" type="line"/>
			<point x="349" y="436" type="line"/>
			<point x="349" y="366" type="line"/>
			<point x="230" y="366" type="line"/>
			<point x="230" y="144" type="line"/>
			<point x="306" y="144"/>
			<point x="377" y="143"/>
			<point x="447" y="78" type="curve"/>
			<point x="493" y="86" type="line"/>
			<point x="450" y="166"/>
			<point x="386" y="220"/>
			<point x="316" y="230" type="curve"/>
			<point x="316" y="280" type="line"/>
			<point x="445" y="280" type="line"/>
			<point x="445" y="522" type="line"/>
			<point x="299" y="522" type="line"/>
			<point x="299" y="592" type="line"/>
			<point x="515" y="592" type="line"/>
			<point x="515" y="-51" type="line"/>
			<point x="419" y="-1" type="line"/>
			<point x="60" y="-1" type="line"/>
			<point x="60" y="-87" type="line"/>
			<point x="611" y="-87" type="line"/>
			<point x="611" y="678" type="line"/>
		</contour>
	</outline>
</glyph>
<glyph name="ca_wa.sub" format="2">
  <advance width="671"/>
  <anchor x="330" y="718" name="top"/>
  <outline>
    <contour>
      <point x="60" y="678" type="line"/>
      <point x="60" y="592" type="line"/>
      <point x="203" y="592" type="line"/>
      <point x="203" y="522" type="line"/>
      <point x="60" y="522" type="line"/>
      <point x="60" y="69" type="line"/>
      <point x="156" y="69" type="line"/>
      <point x="156" y="436" type="line"/>
      <point x="349" y="436" type="line"/>
      <point x="349" y="366" type="line"/>
      <point x="230" y="366" type="line"/>
      <point x="230" y="144" type="line"/>
      <point x="294" y="144"/>
      <point x="363" y="145"/>
      <point x="433" y="78" type="curve"/>
      <point x="479" y="86" type="line"/>
      <point x="438" y="166"/>
      <point x="378" y="220"/>
      <point x="316" y="230" type="curve"/>
      <point x="316" y="280" type="line"/>
      <point x="445" y="280" type="line"/>
      <point x="445" y="522" type="line"/>
      <point x="299" y="522" type="line"/>
      <point x="299" y="592" type="line"/>
      <point x="515" y="592" type="line"/>
      <point x="515" y="9" type="line"/>
      <point x="60" y="9" type="line"/>
      <point x="60" y="-206" type="line"/>
      <point x="611" y="-206" type="line"/>
      <point x="611" y="678" type="line"/>
    </contour>
    <contour>
      <point x="515" y="-120" type="line"/>
      <point x="110" y="-120" type="line"/>
      <point x="110" y="-77" type="line"/>
      <point x="515" y="-77" type="line"/>
    </contour>
  </outline>
</glyph>
<glyph name="ca_wa.sub_e_marc" format="2">
  <advance width="671"/>
  <anchor x="335" y="718" name="top"/>
  <outline>
    <contour>
      <point x="60" y="678" type="line"/>
      <point x="60" y="592" type="line"/>
      <point x="515" y="592" type="line"/>
      <point x="515" y="532" type="line"/>
      <point x="60" y="532" type="line"/>
      <point x="60" y="446" type="line"/>
      <point x="203" y="446" type="line"/>
      <point x="203" y="376" type="line"/>
      <point x="60" y="376" type="line"/>
      <point x="60" y="-77" type="line"/>
      <point x="156" y="-77" type="line"/>
      <point x="156" y="290" type="line"/>
      <point x="349" y="290" type="line"/>
      <point x="349" y="220" type="line"/>
      <point x="230" y="220" type="line"/>
      <point x="230" y="-2" type="line"/>
      <point x="294" y="-2"/>
      <point x="363" y="-1"/>
      <point x="433" y="-68" type="curve"/>
      <point x="479" y="-60" type="line"/>
      <point x="438" y="20"/>
      <point x="378" y="74"/>
      <point x="316" y="84" type="curve"/>
      <point x="316" y="134" type="line"/>
      <point x="445" y="134" type="line"/>
      <point x="445" y="376" type="line"/>
      <point x="299" y="376" type="line"/>
      <point x="299" y="446" type="line"/>
      <point x="515" y="446" type="line"/>
      <point x="515" y="-137" type="line"/>
      <point x="60" y="-137" type="line"/>
      <point x="60" y="-352" type="line"/>
      <point x="611" y="-352" type="line"/>
      <point x="611" y="678" type="line"/>
    </contour>
    <contour>
      <point x="515" y="-266" type="line"/>
      <point x="110" y="-266" type="line"/>
      <point x="110" y="-223" type="line"/>
      <point x="515" y="-223" type="line"/>
    </contour>
  </outline>
</glyph>
<glyph name="candrabindu_marc.narrow" format="2">
	<advance width="0"/>
	<anchor x="-87" y="482" name="_candrabindu_narrow"/>
	<outline>
		<contour>
			<point x="-132" y="867" type="line"/>
			<point x="-269" y="708" type="line"/>
			<point x="-94" y="620" type="line"/>
			<point x="43" y="779" type="line"/>
		</contour>
		<contour>
			<point x="-107" y="794" type="line"/>
			<point x="-55" y="768" type="line"/>
			<point x="-120" y="692" type="line"/>
			<point x="-173" y="718" type="line"/>
		</contour>
		<contour>
			<point x="69" y="736" type="line"/>
			<point x="55" y="694"/>
			<point x="8" y="565"/>
			<point x="-117" y="565" type="curve" smooth="yes"/>
			<point x="-183" y="565"/>
			<point x="-241" y="598"/>
			<point x="-272" y="626" type="curve"/>
			<point x="-320" y="610" type="line"/>
			<point x="-291" y="564"/>
			<point x="-207" y="492"/>
			<point x="-102" y="492" type="curve" smooth="yes"/>
			<point x="71" y="492"/>
			<point x="140" y="653"/>
			<point x="160" y="705" type="curve"/>
		</contour>
	</outline>
</glyph>
<glyph name="cha_aa_marc.sub" format="2">
	<advance width="523"/>
	<anchor x="258" y="718" name="top"/>
	<outline>
		<contour>
			<point x="156" y="78" type="line"/>
			<point x="156" y="436" type="line"/>
			<point x="366" y="436" type="line"/>
			<point x="366" y="366" type="line"/>
			<point x="226" y="366" type="line"/>
			<point x="226" y="280" type="line"/>
			<point x="260" y="280" type="line"/>
			<point x="189" y="147" type="line"/>
			<point x="201" y="101" type="line"/>
			<point x="225" y="120"/>
			<point x="264" y="137"/>
			<point x="313" y="137" type="curve" smooth="yes"/>
			<point x="360" y="137"/>
			<point x="405" y="121"/>
			<point x="443" y="83" type="curve"/>
			<point x="489" y="91" type="line"/>
			<point x="448" y="170"/>
			<point x="368" y="216"/>
			<point x="306" y="216" type="curve" smooth="yes"/>
			<point x="300" y="216"/>
			<point x="292" y="216"/>
			<point x="284" y="214" type="curve"/>
			<point x="319" y="280" type="line"/>
			<point x="462" y="280" type="line"/>
			<point x="462" y="522" type="line"/>
			<point x="306" y="522" type="line"/>
			<point x="306" y="592" type="line"/>
			<point x="462" y="592" type="line"/>
			<point x="462" y="678" type="line"/>
			<point x="60" y="678" type="line"/>
			<point x="60" y="592" type="line"/>
			<point x="210" y="592" type="line"/>
			<point x="210" y="522" type="line"/>
			<point x="60" y="522" type="line"/>
			<point x="60" y="78" type="line"/>
		</contour>
		<contour>
			<point x="60" y="-68" type="line"/>
			<point x="392" y="-68" type="line"/>
			<point x="392" y="-128" type="line"/>
			<point x="60" y="-128" type="line"/>
			<point x="60" y="-214" type="line"/>
			<point x="226" y="-214" type="line"/>
			<point x="226" y="-315" type="line"/>
			<point x="179" y="-293"/>
			<point x="117" y="-282"/>
			<point x="60" y="-285" type="curve"/>
			<point x="60" y="-442" type="line"/>
			<point x="156" y="-501" type="line"/>
			<point x="156" y="-369" type="line"/>
			<point x="180" y="-367"/>
			<point x="202" y="-372"/>
			<point x="226" y="-384" type="curve"/>
			<point x="226" y="-502" type="line"/>
			<point x="322" y="-561" type="line"/>
			<point x="322" y="-214" type="line"/>
			<point x="392" y="-214" type="line"/>
			<point x="392" y="-542" type="line"/>
			<point x="488" y="-601" type="line"/>
			<point x="488" y="18" type="line"/>
			<point x="60" y="18" type="line"/>
		</contour>
	</outline>
</glyph>
<glyph name="cha_e_marc" format="2">
	<advance width="494"/>
	<anchor x="246" y="718" name="top"/>
	<anchor x="274" y="-68" name="bottom"/>
	<anchor x="274" y="-68" name="bottom_right"/>
	<outline>
		<contour>
			<point x="306" y="70" type="curve" smooth="yes"/>
			<point x="300" y="70"/>
			<point x="292" y="70"/>
			<point x="284" y="68" type="curve"/>
			<point x="319" y="134" type="line"/>
			<point x="432" y="134" type="line"/>
			<point x="432" y="376" type="line"/>
			<point x="291" y="376" type="line"/>
			<point x="291" y="446" type="line"/>
			<point x="432" y="446" type="line"/>
			<point x="432" y="678" type="line"/>
			<point x="60" y="678" type="line"/>
			<point x="60" y="592" type="line"/>
			<point x="336" y="592" type="line"/>
			<point x="336" y="532" type="line"/>
			<point x="60" y="532" type="line"/>
			<point x="60" y="446" type="line"/>
			<point x="195" y="446" type="line"/>
			<point x="195" y="376" type="line"/>
			<point x="60" y="376" type="line"/>
			<point x="60" y="-68" type="line"/>
			<point x="156" y="-68" type="line"/>
			<point x="156" y="290" type="line"/>
			<point x="336" y="290" type="line"/>
			<point x="336" y="220" type="line"/>
			<point x="226" y="220" type="line"/>
			<point x="226" y="134" type="line"/>
			<point x="260" y="134" type="line"/>
			<point x="189" y="1" type="line"/>
			<point x="201" y="-45" type="line"/>
			<point x="225" y="-26"/>
			<point x="264" y="-9"/>
			<point x="313" y="-9" type="curve" smooth="yes"/>
			<point x="360" y="-9"/>
			<point x="405" y="-25"/>
			<point x="443" y="-63" type="curve"/>
			<point x="489" y="-55" type="line"/>
			<point x="448" y="24"/>
			<point x="368" y="70"/>
		</contour>
	</outline>
</glyph>
<glyph name="cha_i_marc" format="2">
	<advance width="660"/>
	<anchor x="564" y="718" name="candrabindu_narrow"/>
	<anchor x="504" y="718" name="top"/>
	<anchor x="440" y="78" name="bottom_right"/>
	<anchor x="440" y="78" name="bottom"/>
	<outline>
		<contour>
			<point x="472" y="216" type="curve" smooth="yes"/>
			<point x="466" y="216"/>
			<point x="458" y="216"/>
			<point x="450" y="214" type="curve"/>
			<point x="485" y="280" type="line"/>
			<point x="598" y="280" type="line"/>
			<point x="598" y="522" type="line"/>
			<point x="457" y="522" type="line"/>
			<point x="457" y="592" type="line"/>
			<point x="598" y="592" type="line"/>
			<point x="598" y="678" type="line"/>
			<point x="417" y="678" type="line"/>
			<point x="380" y="759"/>
			<point x="302" y="869"/>
			<point x="190" y="869" type="curve" smooth="yes"/>
			<point x="108" y="869"/>
			<point x="60" y="808"/>
			<point x="60" y="714" type="curve" smooth="yes"/>
			<point x="60" y="79" type="line"/>
			<point x="156" y="20" type="line"/>
			<point x="156" y="717" type="line" smooth="yes"/>
			<point x="156" y="768"/>
			<point x="169" y="797"/>
			<point x="218" y="797" type="curve" smooth="yes"/>
			<point x="291" y="797"/>
			<point x="352" y="731"/>
			<point x="384" y="678" type="curve"/>
			<point x="226" y="678" type="line"/>
			<point x="226" y="592" type="line"/>
			<point x="361" y="592" type="line"/>
			<point x="361" y="522" type="line"/>
			<point x="226" y="522" type="line"/>
			<point x="226" y="77" type="line"/>
			<point x="322" y="18" type="line"/>
			<point x="322" y="436" type="line"/>
			<point x="502" y="436" type="line"/>
			<point x="502" y="366" type="line"/>
			<point x="392" y="366" type="line"/>
			<point x="392" y="280" type="line"/>
			<point x="426" y="280" type="line"/>
			<point x="355" y="147" type="line"/>
			<point x="367" y="101" type="line"/>
			<point x="391" y="120"/>
			<point x="430" y="137"/>
			<point x="479" y="137" type="curve" smooth="yes"/>
			<point x="526" y="137"/>
			<point x="571" y="121"/>
			<point x="609" y="83" type="curve"/>
			<point x="655" y="91" type="line"/>
			<point x="614" y="170"/>
			<point x="534" y="216"/>
		</contour>
	</outline>
</glyph>
<glyph name="cha_u_marc" format="2">
  <advance width="518"/>
  <anchor x="249" y="718" name="top"/>
  <outline>
    <contour>
      <point x="354" y="366" type="line"/>
      <point x="226" y="366" type="line"/>
      <point x="226" y="280" type="line"/>
      <point x="277" y="280" type="line"/>
      <point x="206" y="147" type="line"/>
      <point x="218" y="101" type="line"/>
      <point x="242" y="120"/>
      <point x="281" y="137"/>
      <point x="330" y="137" type="curve" smooth="yes"/>
      <point x="377" y="137"/>
      <point x="422" y="121"/>
      <point x="460" y="83" type="curve"/>
      <point x="506" y="91" type="line"/>
      <point x="465" y="170"/>
      <point x="385" y="216"/>
      <point x="323" y="216" type="curve" smooth="yes"/>
      <point x="317" y="216"/>
      <point x="309" y="216"/>
      <point x="301" y="214" type="curve"/>
      <point x="336" y="280" type="line"/>
      <point x="450" y="280" type="line"/>
      <point x="450" y="522" type="line"/>
      <point x="300" y="522" type="line"/>
      <point x="300" y="592" type="line"/>
      <point x="450" y="592" type="line"/>
      <point x="450" y="678" type="line"/>
      <point x="60" y="678" type="line"/>
      <point x="60" y="592" type="line"/>
      <point x="204" y="592" type="line"/>
      <point x="204" y="522" type="line"/>
      <point x="60" y="522" type="line"/>
      <point x="60" y="39" type="line"/>
      <point x="156" y="-20" type="line"/>
      <point x="156" y="436" type="line"/>
      <point x="354" y="436" type="line"/>
    </contour>
    <contour>
      <point x="205" y="58" type="line"/>
      <point x="205" y="-28" type="line"/>
      <point x="506" y="-28" type="line"/>
      <point x="506" y="58" type="line"/>
    </contour>
  </outline>
</glyph>
<glyph name="da_ha.sub" format="2">
  <advance width="551"/>
  <anchor x="274" y="718" name="top"/>
  <outline>
    <contour>
      <point x="491" y="678" type="line"/>
      <point x="60" y="678" type="line"/>
      <point x="60" y="450" type="line"/>
      <point x="229" y="450" type="line"/>
      <point x="229" y="390" type="line"/>
      <point x="60" y="390" type="line"/>
      <point x="60" y="189" type="line"/>
      <point x="136" y="189"/>
      <point x="207" y="188"/>
      <point x="277" y="123" type="curve"/>
      <point x="323" y="131" type="line"/>
      <point x="280" y="211"/>
      <point x="216" y="265"/>
      <point x="146" y="275" type="curve"/>
      <point x="146" y="305" type="line"/>
      <point x="325" y="305" type="line"/>
      <point x="325" y="532" type="line"/>
      <point x="156" y="532" type="line"/>
      <point x="156" y="592" type="line"/>
      <point x="395" y="592" type="line"/>
      <point x="395" y="141" type="line"/>
      <point x="491" y="141" type="line"/>
    </contour>
    <contour>
      <point x="61" y="-161" type="line"/>
      <point x="238" y="-161" type="line"/>
      <point x="238" y="-231" type="line"/>
      <point x="61" y="-231" type="line"/>
      <point x="61" y="-317" type="line"/>
      <point x="324" y="-317" type="line"/>
      <point x="324" y="-161" type="line"/>
      <point x="394" y="-161" type="line"/>
      <point x="394" y="-427" type="line"/>
      <point x="490" y="-486" type="line"/>
      <point x="490" y="-75" type="line"/>
      <point x="157" y="-75" type="line"/>
      <point x="157" y="-5" type="line"/>
      <point x="490" y="-5" type="line"/>
      <point x="490" y="81" type="line"/>
      <point x="61" y="81" type="line"/>
    </contour>
  </outline>
</glyph>
<glyph name="da_ha.sub_aa.sub_i_marc" format="2">
	<advance width="717"/>
	<anchor x="470" y="718" name="top"/>
	<anchor x="540" y="718" name="candrabindu_narrow"/>
	<outline>
		<contour>
			<point x="375" y="678" type="line"/>
			<point x="342" y="759"/>
			<point x="276" y="869"/>
			<point x="181" y="869" type="curve" smooth="yes"/>
			<point x="108" y="869"/>
			<point x="60" y="808"/>
			<point x="60" y="714" type="curve" smooth="yes"/>
			<point x="60" y="-530" type="line"/>
			<point x="156" y="-589" type="line"/>
			<point x="156" y="717" type="line" smooth="yes"/>
			<point x="156" y="768"/>
			<point x="169" y="797"/>
			<point x="207" y="797" type="curve" smooth="yes"/>
			<point x="266" y="797"/>
			<point x="314" y="731"/>
			<point x="342" y="678" type="curve"/>
			<point x="226" y="678" type="line"/>
			<point x="226" y="450" type="line"/>
			<point x="395" y="450" type="line"/>
			<point x="395" y="390" type="line"/>
			<point x="226" y="390" type="line"/>
			<point x="226" y="189" type="line"/>
			<point x="302" y="189"/>
			<point x="373" y="188"/>
			<point x="443" y="123" type="curve"/>
			<point x="489" y="131" type="line"/>
			<point x="446" y="211"/>
			<point x="382" y="265"/>
			<point x="312" y="275" type="curve"/>
			<point x="312" y="305" type="line"/>
			<point x="491" y="305" type="line"/>
			<point x="491" y="532" type="line"/>
			<point x="322" y="532" type="line"/>
			<point x="322" y="592" type="line"/>
			<point x="561" y="592" type="line"/>
			<point x="561" y="141" type="line"/>
			<point x="657" y="141" type="line"/>
			<point x="657" y="678" type="line"/>
		</contour>
		<contour>
			<point x="227" y="-231" type="line"/>
			<point x="227" y="-317" type="line"/>
			<point x="490" y="-317" type="line"/>
			<point x="490" y="-161" type="line"/>
			<point x="560" y="-161" type="line"/>
			<point x="560" y="-316" type="line"/>
			<point x="656" y="-316" type="line"/>
			<point x="656" y="-75" type="line"/>
			<point x="323" y="-75" type="line"/>
			<point x="323" y="-5" type="line"/>
			<point x="656" y="-5" type="line"/>
			<point x="656" y="81" type="line"/>
			<point x="227" y="81" type="line"/>
			<point x="227" y="-161" type="line"/>
			<point x="404" y="-161" type="line"/>
			<point x="404" y="-231" type="line"/>
		</contour>
		<contour>
			<point x="229" y="-462" type="line"/>
			<point x="561" y="-462" type="line"/>
			<point x="561" y="-522" type="line"/>
			<point x="229" y="-522" type="line"/>
			<point x="229" y="-608" type="line"/>
			<point x="395" y="-608" type="line"/>
			<point x="395" y="-709" type="line"/>
			<point x="348" y="-687"/>
			<point x="286" y="-676"/>
			<point x="229" y="-679" type="curve"/>
			<point x="229" y="-874" type="line"/>
			<point x="325" y="-933" type="line"/>
			<point x="325" y="-763" type="line"/>
			<point x="349" y="-761"/>
			<point x="371" y="-766"/>
			<point x="395" y="-778" type="curve"/>
			<point x="395" y="-916" type="line"/>
			<point x="491" y="-975" type="line"/>
			<point x="491" y="-608" type="line"/>
			<point x="561" y="-608" type="line"/>
			<point x="561" y="-966" type="line"/>
			<point x="657" y="-1025" type="line"/>
			<point x="657" y="-376" type="line"/>
			<point x="229" y="-376" type="line"/>
		</contour>
	</outline>
</glyph>
<glyph name="da_ha.sub_i_marc" format="2">
	<advance width="717"/>
	<anchor x="470" y="718" name="top"/>
	<anchor x="540" y="718" name="candrabindu_narrow"/>
	<outline>
		<contour>
			<point x="375" y="678" type="line"/>
			<point x="342" y="759"/>
			<point x="276" y="869"/>
			<point x="181" y="869" type="curve" smooth="yes"/>
			<point x="108" y="869"/>
			<point x="60" y="808"/>
			<point x="60" y="714" type="curve" smooth="yes"/>
			<point x="60" y="-109" type="line"/>
			<point x="156" y="-168" type="line"/>
			<point x="156" y="717" type="line" smooth="yes"/>
			<point x="156" y="768"/>
			<point x="169" y="797"/>
			<point x="207" y="797" type="curve" smooth="yes"/>
			<point x="266" y="797"/>
			<point x="314" y="731"/>
			<point x="342" y="678" type="curve"/>
			<point x="226" y="678" type="line"/>
			<point x="226" y="450" type="line"/>
			<point x="395" y="450" type="line"/>
			<point x="395" y="390" type="line"/>
			<point x="226" y="390" type="line"/>
			<point x="226" y="189" type="line"/>
			<point x="302" y="189"/>
			<point x="373" y="188"/>
			<point x="443" y="123" type="curve"/>
			<point x="489" y="131" type="line"/>
			<point x="446" y="211"/>
			<point x="382" y="265"/>
			<point x="312" y="275" type="curve"/>
			<point x="312" y="305" type="line"/>
			<point x="491" y="305" type="line"/>
			<point x="491" y="532" type="line"/>
			<point x="322" y="532" type="line"/>
			<point x="322" y="592" type="line"/>
			<point x="561" y="592" type="line"/>
			<point x="561" y="141" type="line"/>
			<point x="657" y="141" type="line"/>
			<point x="657" y="678" type="line"/>
		</contour>
		<contour>
			<point x="227" y="-161" type="line"/>
			<point x="404" y="-161" type="line"/>
			<point x="404" y="-231" type="line"/>
			<point x="227" y="-231" type="line"/>
			<point x="227" y="-317" type="line"/>
			<point x="490" y="-317" type="line"/>
			<point x="490" y="-161" type="line"/>
			<point x="560" y="-161" type="line"/>
			<point x="560" y="-427" type="line"/>
			<point x="656" y="-486" type="line"/>
			<point x="656" y="-75" type="line"/>
			<point x="323" y="-75" type="line"/>
			<point x="323" y="-5" type="line"/>
			<point x="656" y="-5" type="line"/>
			<point x="656" y="81" type="line"/>
			<point x="227" y="81" type="line"/>
		</contour>
	</outline>
</glyph>
<glyph name="da_ma.sub" format="2">
	<advance width="551"/>
	<anchor x="274" y="718" name="top"/>
	<outline>
		<contour>
			<point x="491" y="678" type="line"/>
			<point x="60" y="678" type="line"/>
			<point x="60" y="450" type="line"/>
			<point x="229" y="450" type="line"/>
			<point x="229" y="390" type="line"/>
			<point x="60" y="390" type="line"/>
			<point x="60" y="189" type="line"/>
			<point x="136" y="189"/>
			<point x="207" y="188"/>
			<point x="277" y="123" type="curve"/>
			<point x="323" y="131" type="line"/>
			<point x="280" y="211"/>
			<point x="216" y="265"/>
			<point x="146" y="275" type="curve"/>
			<point x="146" y="305" type="line"/>
			<point x="325" y="305" type="line"/>
			<point x="325" y="532" type="line"/>
			<point x="156" y="532" type="line"/>
			<point x="156" y="592" type="line"/>
			<point x="395" y="592" type="line"/>
			<point x="395" y="141" type="line"/>
			<point x="491" y="141" type="line"/>
		</contour>
		<contour>
			<point x="60" y="5" type="line"/>
			<point x="163" y="5" type="line"/>
			<point x="163" y="-65" type="line"/>
			<point x="60" y="-65" type="line"/>
			<point x="60" y="-295" type="line"/>
			<point x="241" y="-295" type="line"/>
			<point x="241" y="-365" type="line"/>
			<point x="60" y="-365" type="line"/>
			<point x="60" y="-445" type="line"/>
			<point x="327" y="-445" type="line"/>
			<point x="327" y="-215" type="line"/>
			<point x="146" y="-215" type="line"/>
			<point x="146" y="-145" type="line"/>
			<point x="327" y="-145" type="line"/>
			<point x="327" y="-65" type="line"/>
			<point x="259" y="-65" type="line"/>
			<point x="259" y="5" type="line"/>
			<point x="395" y="5" type="line"/>
			<point x="395" y="-446" type="line"/>
			<point x="491" y="-505" type="line"/>
			<point x="491" y="91" type="line"/>
			<point x="60" y="91" type="line"/>
		</contour>
	</outline>
</glyph>
<glyph name="da_ma.sub_e_marc" format="2">
  <advance width="551"/>
  <anchor x="275" y="718" name="top"/>
  <outline>
    <contour>
      <point x="60" y="678" type="line"/>
      <point x="60" y="592" type="line"/>
      <point x="395" y="592" type="line"/>
      <point x="395" y="532" type="line"/>
      <point x="60" y="532" type="line"/>
      <point x="60" y="304" type="line"/>
      <point x="229" y="304" type="line"/>
      <point x="229" y="244" type="line"/>
      <point x="60" y="244" type="line"/>
      <point x="60" y="43" type="line"/>
      <point x="136" y="43"/>
      <point x="207" y="42"/>
      <point x="277" y="-23" type="curve"/>
      <point x="323" y="-15" type="line"/>
      <point x="280" y="65"/>
      <point x="216" y="119"/>
      <point x="146" y="129" type="curve"/>
      <point x="146" y="159" type="line"/>
      <point x="325" y="159" type="line"/>
      <point x="325" y="386" type="line"/>
      <point x="156" y="386" type="line"/>
      <point x="156" y="446" type="line"/>
      <point x="395" y="446" type="line"/>
      <point x="395" y="-5" type="line"/>
      <point x="491" y="-5" type="line"/>
      <point x="491" y="678" type="line"/>
    </contour>
    <contour>
      <point x="60" y="-141" type="line"/>
      <point x="163" y="-141" type="line"/>
      <point x="163" y="-211" type="line"/>
      <point x="60" y="-211" type="line"/>
      <point x="60" y="-441" type="line"/>
      <point x="241" y="-441" type="line"/>
      <point x="241" y="-511" type="line"/>
      <point x="60" y="-511" type="line"/>
      <point x="60" y="-591" type="line"/>
      <point x="327" y="-591" type="line"/>
      <point x="327" y="-361" type="line"/>
      <point x="146" y="-361" type="line"/>
      <point x="146" y="-291" type="line"/>
      <point x="327" y="-291" type="line"/>
      <point x="327" y="-211" type="line"/>
      <point x="259" y="-211" type="line"/>
      <point x="259" y="-141" type="line"/>
      <point x="395" y="-141" type="line"/>
      <point x="395" y="-592" type="line"/>
      <point x="491" y="-651" type="line"/>
      <point x="491" y="-55" type="line"/>
      <point x="60" y="-55" type="line"/>
    </contour>
  </outline>
</glyph>
<glyph name="da_o_marc" format="2">
	<advance width="717"/>
	<anchor x="358" y="718" name="top"/>
	<anchor x="277" y="-68" name="bottom"/>
	<anchor x="446" y="14" name="bottom_right"/>
	<outline>
		<contour>
			<point x="60" y="678" type="line"/>
			<point x="60" y="592" type="line"/>
			<point x="561" y="592" type="line"/>
			<point x="561" y="-65" type="line"/>
			<point x="657" y="-124" type="line"/>
			<point x="657" y="678" type="line"/>
		</contour>
		<contour>
			<point x="491" y="532" type="line"/>
			<point x="60" y="532" type="line"/>
			<point x="60" y="294" type="line"/>
			<point x="229" y="294" type="line"/>
			<point x="229" y="224" type="line"/>
			<point x="60" y="224" type="line"/>
			<point x="60" y="4" type="line"/>
			<point x="136" y="4"/>
			<point x="207" y="3"/>
			<point x="277" y="-62" type="curve"/>
			<point x="323" y="-54" type="line"/>
			<point x="280" y="26"/>
			<point x="216" y="80"/>
			<point x="146" y="90" type="curve"/>
			<point x="146" y="139" type="line"/>
			<point x="325" y="139" type="line"/>
			<point x="325" y="376" type="line"/>
			<point x="156" y="376" type="line"/>
			<point x="156" y="446" type="line"/>
			<point x="395" y="446" type="line"/>
			<point x="395" y="-7" type="line"/>
			<point x="491" y="-66" type="line"/>
		</contour>
	</outline>
</glyph>
<glyph name="da_ra.sub" format="2">
	<advance width="551"/>
	<anchor x="274" y="718" name="top"/>
	<outline>
		<contour>
			<point x="491" y="678" type="line"/>
			<point x="60" y="678" type="line"/>
			<point x="60" y="440" type="line"/>
			<point x="229" y="440" type="line"/>
			<point x="229" y="370" type="line"/>
			<point x="60" y="370" type="line"/>
			<point x="60" y="150" type="line"/>
			<point x="136" y="150"/>
			<point x="207" y="149"/>
			<point x="277" y="84" type="curve"/>
			<point x="323" y="92" type="line"/>
			<point x="280" y="172"/>
			<point x="216" y="226"/>
			<point x="146" y="236" type="curve"/>
			<point x="146" y="285" type="line"/>
			<point x="325" y="285" type="line"/>
			<point x="325" y="522" type="line"/>
			<point x="156" y="522" type="line"/>
			<point x="156" y="592" type="line"/>
			<point x="395" y="592" type="line"/>
			<point x="395" y="-26" type="line"/>
			<point x="299" y="24" type="line"/>
			<point x="60" y="24" type="line"/>
			<point x="60" y="-62" type="line"/>
			<point x="491" y="-62" type="line"/>
		</contour>
	</outline>
</glyph>
<glyph name="da_ra.sub_i_marc" format="2">
	<advance width="717"/>
	<anchor x="460" y="718" name="top"/>
	<anchor x="540" y="718" name="candrabindu_narrow"/>
	<outline>
		<contour>
			<point x="375" y="678" type="line"/>
			<point x="342" y="759"/>
			<point x="276" y="869"/>
			<point x="181" y="869" type="curve" smooth="yes"/>
			<point x="108" y="869"/>
			<point x="60" y="808"/>
			<point x="60" y="714" type="curve" smooth="yes"/>
			<point x="60" y="17" type="line"/>
			<point x="156" y="-42" type="line"/>
			<point x="156" y="717" type="line" smooth="yes"/>
			<point x="156" y="768"/>
			<point x="169" y="797"/>
			<point x="207" y="797" type="curve" smooth="yes"/>
			<point x="266" y="797"/>
			<point x="314" y="731"/>
			<point x="342" y="678" type="curve"/>
			<point x="226" y="678" type="line"/>
			<point x="226" y="440" type="line"/>
			<point x="395" y="440" type="line"/>
			<point x="395" y="370" type="line"/>
			<point x="226" y="370" type="line"/>
			<point x="226" y="150" type="line"/>
			<point x="302" y="150"/>
			<point x="373" y="149"/>
			<point x="443" y="84" type="curve"/>
			<point x="489" y="92" type="line"/>
			<point x="446" y="172"/>
			<point x="382" y="226"/>
			<point x="312" y="236" type="curve"/>
			<point x="312" y="285" type="line"/>
			<point x="491" y="285" type="line"/>
			<point x="491" y="522" type="line"/>
			<point x="322" y="522" type="line"/>
			<point x="322" y="592" type="line"/>
			<point x="561" y="592" type="line"/>
			<point x="561" y="-26" type="line"/>
			<point x="465" y="24" type="line"/>
			<point x="226" y="24" type="line"/>
			<point x="226" y="-62" type="line"/>
			<point x="657" y="-62" type="line"/>
			<point x="657" y="678" type="line"/>
		</contour>
	</outline>
</glyph>
<glyph name="da_ra.sub_o_marc" format="2">
  <advance width="718"/>
  <anchor x="358" y="718" name="top"/>
  <outline>
    <contour>
      <point x="60" y="678" type="line"/>
      <point x="60" y="592" type="line"/>
      <point x="562" y="592" type="line"/>
      <point x="562" y="-209" type="line"/>
      <point x="658" y="-268" type="line"/>
      <point x="658" y="678" type="line"/>
    </contour>
    <contour>
      <point x="492" y="532" type="line"/>
      <point x="61" y="532" type="line"/>
      <point x="61" y="294" type="line"/>
      <point x="230" y="294" type="line"/>
      <point x="230" y="224" type="line"/>
      <point x="61" y="224" type="line"/>
      <point x="61" y="4" type="line"/>
      <point x="137" y="4"/>
      <point x="208" y="3"/>
      <point x="278" y="-62" type="curve"/>
      <point x="324" y="-54" type="line"/>
      <point x="281" y="26"/>
      <point x="217" y="80"/>
      <point x="147" y="90" type="curve"/>
      <point x="147" y="139" type="line"/>
      <point x="326" y="139" type="line"/>
      <point x="326" y="376" type="line"/>
      <point x="157" y="376" type="line"/>
      <point x="157" y="446" type="line"/>
      <point x="396" y="446" type="line"/>
      <point x="396" y="-172" type="line"/>
      <point x="300" y="-122" type="line"/>
      <point x="60" y="-122" type="line"/>
      <point x="60" y="-208" type="line"/>
      <point x="492" y="-208" type="line"/>
    </contour>
  </outline>
</glyph>
<glyph name="da_u_marc" format="2">
	<advance width="552"/>
	<anchor x="275" y="718" name="top"/>
	<outline>
		<contour>
			<point x="492" y="678" type="line"/>
			<point x="61" y="678" type="line"/>
			<point x="61" y="440" type="line"/>
			<point x="230" y="440" type="line"/>
			<point x="230" y="370" type="line"/>
			<point x="61" y="370" type="line"/>
			<point x="61" y="150" type="line"/>
			<point x="137" y="150"/>
			<point x="208" y="149"/>
			<point x="278" y="84" type="curve"/>
			<point x="324" y="92" type="line"/>
			<point x="281" y="172"/>
			<point x="217" y="226"/>
			<point x="147" y="236" type="curve"/>
			<point x="147" y="285" type="line"/>
			<point x="326" y="285" type="line"/>
			<point x="326" y="522" type="line"/>
			<point x="157" y="522" type="line"/>
			<point x="157" y="592" type="line"/>
			<point x="396" y="592" type="line"/>
			<point x="396" y="24" type="line"/>
			<point x="60" y="24" type="line"/>
			<point x="60" y="-62" type="line"/>
			<point x="492" y="-62" type="line"/>
		</contour>
	</outline>
</glyph>
<glyph name="da_ya.sub" format="2">
  <advance width="717"/>
  <anchor x="274" y="718" name="top"/>
  <outline>
    <contour>
      <point x="561" y="678" type="line"/>
      <point x="561" y="152" type="line"/>
      <point x="491" y="152" type="line"/>
      <point x="491" y="678" type="line"/>
      <point x="60" y="678" type="line"/>
      <point x="60" y="440" type="line"/>
      <point x="229" y="440" type="line"/>
      <point x="229" y="370" type="line"/>
      <point x="60" y="370" type="line"/>
      <point x="60" y="150" type="line"/>
      <point x="136" y="150"/>
      <point x="207" y="149"/>
      <point x="277" y="84" type="curve"/>
      <point x="323" y="92" type="line"/>
      <point x="280" y="172"/>
      <point x="216" y="226"/>
      <point x="146" y="236" type="curve"/>
      <point x="146" y="285" type="line"/>
      <point x="325" y="285" type="line"/>
      <point x="325" y="522" type="line"/>
      <point x="156" y="522" type="line"/>
      <point x="156" y="592" type="line"/>
      <point x="395" y="592" type="line"/>
      <point x="395" y="78" type="line"/>
      <point x="657" y="78" type="line"/>
      <point x="657" y="678" type="line"/>
    </contour>
  </outline>
</glyph>
<glyph name="dza_aa_marc.sub" format="2">
	<advance width="552"/>
	<anchor x="288" y="718" name="top"/>
	<outline>
		<contour>
			<point x="312" y="442" type="line"/>
			<point x="474" y="442" type="line"/>
			<point x="492" y="522" type="line"/>
			<point x="388" y="522" type="line"/>
			<point x="388" y="592" type="line"/>
			<point x="491" y="592" type="line"/>
			<point x="491" y="678" type="line"/>
			<point x="60" y="678" type="line"/>
			<point x="60" y="79" type="line"/>
			<point x="156" y="79" type="line"/>
			<point x="156" y="592" type="line"/>
			<point x="292" y="592" type="line"/>
			<point x="292" y="522" type="line"/>
			<point x="226" y="522" type="line"/>
			<point x="226" y="292" type="line"/>
			<point x="405" y="292" type="line"/>
			<point x="405" y="200" type="line"/>
			<point x="341" y="218"/>
			<point x="285" y="225"/>
			<point x="226" y="225" type="curve"/>
			<point x="226" y="145" type="line"/>
			<point x="317" y="144"/>
			<point x="386" y="130"/>
			<point x="491" y="88" type="curve"/>
			<point x="491" y="372" type="line"/>
			<point x="312" y="372" type="line"/>
		</contour>
		<contour>
			<point x="60" y="-67" type="line"/>
			<point x="395" y="-67" type="line"/>
			<point x="395" y="-127" type="line"/>
			<point x="60" y="-127" type="line"/>
			<point x="60" y="-213" type="line"/>
			<point x="227" y="-213" type="line"/>
			<point x="227" y="-314" type="line"/>
			<point x="180" y="-292"/>
			<point x="117" y="-281"/>
			<point x="60" y="-284" type="curve"/>
			<point x="60" y="-479" type="line"/>
			<point x="156" y="-538" type="line"/>
			<point x="156" y="-368" type="line"/>
			<point x="180" y="-366"/>
			<point x="203" y="-371"/>
			<point x="227" y="-383" type="curve"/>
			<point x="227" y="-521" type="line"/>
			<point x="323" y="-580" type="line"/>
			<point x="323" y="-213" type="line"/>
			<point x="395" y="-213" type="line"/>
			<point x="395" y="-551" type="line"/>
			<point x="491" y="-610" type="line"/>
			<point x="491" y="19" type="line"/>
			<point x="60" y="19" type="line"/>
		</contour>
	</outline>
</glyph>
<glyph name="dza_i_marc" format="2">
	<advance width="718"/>
	<anchor x="544" y="718" name="top"/>
	<anchor x="451" y="78" name="bottom"/>
	<anchor x="623" y="718" name="candrabindu_narrow"/>
	<outline>
		<contour>
			<point x="478" y="442" type="line"/>
			<point x="640" y="442" type="line"/>
			<point x="658" y="522" type="line"/>
			<point x="554" y="522" type="line"/>
			<point x="554" y="592" type="line"/>
			<point x="657" y="592" type="line"/>
			<point x="657" y="678" type="line"/>
			<point x="473" y="678" type="line"/>
			<point x="430" y="759"/>
			<point x="335" y="869"/>
			<point x="201" y="869" type="curve" smooth="yes"/>
			<point x="108" y="869"/>
			<point x="60" y="808"/>
			<point x="60" y="714" type="curve" smooth="yes"/>
			<point x="60" y="138" type="line"/>
			<point x="156" y="79" type="line"/>
			<point x="156" y="717" type="line" smooth="yes"/>
			<point x="156" y="768"/>
			<point x="169" y="797"/>
			<point x="232" y="797" type="curve" smooth="yes"/>
			<point x="324" y="797"/>
			<point x="401" y="731"/>
			<point x="440" y="678" type="curve"/>
			<point x="226" y="678" type="line"/>
			<point x="226" y="138" type="line"/>
			<point x="322" y="79" type="line"/>
			<point x="322" y="592" type="line"/>
			<point x="458" y="592" type="line"/>
			<point x="458" y="522" type="line"/>
			<point x="392" y="522" type="line"/>
			<point x="392" y="292" type="line"/>
			<point x="571" y="292" type="line"/>
			<point x="571" y="200" type="line"/>
			<point x="507" y="218"/>
			<point x="451" y="225"/>
			<point x="392" y="225" type="curve"/>
			<point x="392" y="145" type="line"/>
			<point x="483" y="144"/>
			<point x="552" y="130"/>
			<point x="657" y="88" type="curve"/>
			<point x="657" y="372" type="line"/>
			<point x="478" y="372" type="line"/>
		</contour>
	</outline>
</glyph>
<glyph name="dza_o_marc" format="2">
	<advance width="717"/>
	<anchor x="358" y="718" name="top"/>
	<anchor x="285" y="-68" name="bottom"/>
	<outline>
		<contour>
			<point x="60" y="678" type="line"/>
			<point x="60" y="592" type="line"/>
			<point x="561" y="592" type="line"/>
			<point x="561" y="-81" type="line"/>
			<point x="657" y="-140" type="line"/>
			<point x="657" y="678" type="line"/>
		</contour>
		<contour>
			<point x="474" y="296" type="line"/>
			<point x="492" y="376" type="line"/>
			<point x="388" y="376" type="line"/>
			<point x="388" y="446" type="line"/>
			<point x="491" y="446" type="line"/>
			<point x="491" y="532" type="line"/>
			<point x="60" y="532" type="line"/>
			<point x="60" y="-8" type="line"/>
			<point x="156" y="-67" type="line"/>
			<point x="156" y="446" type="line"/>
			<point x="292" y="446" type="line"/>
			<point x="292" y="376" type="line"/>
			<point x="226" y="376" type="line"/>
			<point x="226" y="146" type="line"/>
			<point x="405" y="146" type="line"/>
			<point x="405" y="54" type="line"/>
			<point x="341" y="72"/>
			<point x="285" y="79"/>
			<point x="226" y="79" type="curve"/>
			<point x="226" y="-1" type="line"/>
			<point x="317" y="-2"/>
			<point x="386" y="-16"/>
			<point x="491" y="-58" type="curve"/>
			<point x="491" y="226" type="line"/>
			<point x="312" y="226" type="line"/>
			<point x="312" y="296" type="line"/>
		</contour>
	</outline>
</glyph>
<glyph name="dza_ra.sub_e_marc" format="2">
	<advance width="552"/>
	<anchor x="275" y="718" name="top"/>
	<outline>
		<contour>
			<point x="312" y="296" type="line"/>
			<point x="474" y="296" type="line"/>
			<point x="492" y="376" type="line"/>
			<point x="388" y="376" type="line"/>
			<point x="388" y="446" type="line"/>
			<point x="491" y="446" type="line"/>
			<point x="491" y="678" type="line"/>
			<point x="60" y="678" type="line"/>
			<point x="60" y="592" type="line"/>
			<point x="395" y="592" type="line"/>
			<point x="395" y="532" type="line"/>
			<point x="60" y="532" type="line"/>
			<point x="60" y="-67" type="line"/>
			<point x="156" y="-67" type="line"/>
			<point x="156" y="446" type="line"/>
			<point x="292" y="446" type="line"/>
			<point x="292" y="376" type="line"/>
			<point x="226" y="376" type="line"/>
			<point x="226" y="146" type="line"/>
			<point x="405" y="146" type="line"/>
			<point x="405" y="54" type="line"/>
			<point x="341" y="72"/>
			<point x="285" y="79"/>
			<point x="226" y="79" type="curve"/>
			<point x="226" y="-1" type="line"/>
			<point x="286" y="-2"/>
			<point x="337" y="-8"/>
			<point x="395" y="-25" type="curve"/>
			<point x="395" y="-187" type="line"/>
			<point x="299" y="-137" type="line"/>
			<point x="60" y="-137" type="line"/>
			<point x="60" y="-223" type="line"/>
			<point x="491" y="-223" type="line"/>
			<point x="491" y="226" type="line"/>
			<point x="312" y="226" type="line"/>
		</contour>
	</outline>
</glyph>
<glyph name="dza_wa.sub" format="2">
	<advance width="552"/>
	<outline>
		<contour>
			<point x="312" y="442" type="line"/>
			<point x="474" y="442" type="line"/>
			<point x="492" y="522" type="line"/>
			<point x="388" y="522" type="line"/>
			<point x="388" y="592" type="line"/>
			<point x="491" y="592" type="line"/>
			<point x="491" y="678" type="line"/>
			<point x="60" y="678" type="line"/>
			<point x="60" y="79" type="line"/>
			<point x="156" y="79" type="line"/>
			<point x="156" y="592" type="line"/>
			<point x="292" y="592" type="line"/>
			<point x="292" y="522" type="line"/>
			<point x="226" y="522" type="line"/>
			<point x="226" y="292" type="line"/>
			<point x="405" y="292" type="line"/>
			<point x="405" y="200" type="line"/>
			<point x="341" y="218"/>
			<point x="285" y="225"/>
			<point x="226" y="225" type="curve"/>
			<point x="226" y="145" type="line"/>
			<point x="286" y="144"/>
			<point x="337" y="138"/>
			<point x="395" y="121" type="curve"/>
			<point x="395" y="9" type="line"/>
			<point x="60" y="9" type="line"/>
			<point x="60" y="-206" type="line"/>
			<point x="491" y="-206" type="line"/>
			<point x="491" y="372" type="line"/>
			<point x="312" y="372" type="line"/>
		</contour>
		<contour>
			<point x="395" y="-120" type="line"/>
			<point x="110" y="-120" type="line"/>
			<point x="110" y="-77" type="line"/>
			<point x="395" y="-77" type="line"/>
		</contour>
	</outline>
</glyph>
<glyph name="ga_aa_marc.sub" format="2">
  <advance width="545"/>
  <anchor x="279" y="718" name="top"/>
  <outline>
    <contour>
      <point x="60" y="678" type="line"/>
      <point x="60" y="592" type="line"/>
      <point x="231" y="592" type="line"/>
      <point x="231" y="522" type="line"/>
      <point x="60" y="522" type="line"/>
      <point x="60" y="280" type="line"/>
      <point x="108" y="280" type="line"/>
      <point x="38" y="148" type="line"/>
      <point x="50" y="102" type="line"/>
      <point x="74" y="121"/>
      <point x="113" y="138"/>
      <point x="162" y="138" type="curve" smooth="yes"/>
      <point x="209" y="138"/>
      <point x="254" y="122"/>
      <point x="292" y="84" type="curve"/>
      <point x="338" y="92" type="line"/>
      <point x="297" y="171"/>
      <point x="217" y="217"/>
      <point x="155" y="217" type="curve" smooth="yes"/>
      <point x="149" y="217"/>
      <point x="141" y="217"/>
      <point x="133" y="215" type="curve"/>
      <point x="167" y="280" type="line"/>
      <point x="299" y="280" type="line"/>
      <point x="317" y="366" type="line"/>
      <point x="156" y="366" type="line"/>
      <point x="156" y="436" type="line"/>
      <point x="317" y="436" type="line"/>
      <point x="317" y="592" type="line"/>
      <point x="389" y="592" type="line"/>
      <point x="389" y="78" type="line"/>
      <point x="485" y="78" type="line"/>
      <point x="485" y="678" type="line"/>
    </contour>
    <contour>
      <point x="48" y="-68" type="line"/>
      <point x="389" y="-68" type="line"/>
      <point x="389" y="-128" type="line"/>
      <point x="48" y="-128" type="line"/>
      <point x="48" y="-214" type="line"/>
      <point x="218" y="-214" type="line"/>
      <point x="218" y="-315" type="line"/>
      <point x="171" y="-293"/>
      <point x="105" y="-282"/>
      <point x="48" y="-285" type="curve"/>
      <point x="48" y="-480" type="line"/>
      <point x="144" y="-539" type="line"/>
      <point x="144" y="-369" type="line"/>
      <point x="168" y="-367"/>
      <point x="194" y="-372"/>
      <point x="218" y="-384" type="curve"/>
      <point x="218" y="-522" type="line"/>
      <point x="314" y="-581" type="line"/>
      <point x="314" y="-214" type="line"/>
      <point x="389" y="-214" type="line"/>
      <point x="389" y="-552" type="line"/>
      <point x="485" y="-611" type="line"/>
      <point x="485" y="18" type="line"/>
      <point x="48" y="18" type="line"/>
    </contour>
  </outline>
</glyph>
<glyph name="ga_e_marc" format="2">
	<advance width="538"/>
	<anchor x="268" y="718" name="top"/>
	<anchor x="253" y="-68" name="bottom"/>
	<anchor x="433" y="14" name="bottom_right"/>
	<outline>
		<contour>
			<point x="60" y="678" type="line"/>
			<point x="60" y="592" type="line"/>
			<point x="382" y="592" type="line"/>
			<point x="382" y="532" type="line"/>
			<point x="60" y="532" type="line"/>
			<point x="60" y="446" type="line"/>
			<point x="226" y="446" type="line"/>
			<point x="226" y="376" type="line"/>
			<point x="60" y="376" type="line"/>
			<point x="60" y="134" type="line"/>
			<point x="108" y="134" type="line"/>
			<point x="38" y="2" type="line"/>
			<point x="50" y="-44" type="line"/>
			<point x="74" y="-25"/>
			<point x="113" y="-8"/>
			<point x="162" y="-8" type="curve" smooth="yes"/>
			<point x="209" y="-8"/>
			<point x="254" y="-24"/>
			<point x="292" y="-62" type="curve"/>
			<point x="338" y="-54" type="line"/>
			<point x="297" y="25"/>
			<point x="217" y="71"/>
			<point x="155" y="71" type="curve" smooth="yes"/>
			<point x="149" y="71"/>
			<point x="141" y="71"/>
			<point x="133" y="69" type="curve"/>
			<point x="167" y="134" type="line"/>
			<point x="293" y="134" type="line"/>
			<point x="311" y="220" type="line"/>
			<point x="156" y="220" type="line"/>
			<point x="156" y="290" type="line"/>
			<point x="312" y="290" type="line"/>
			<point x="312" y="446" type="line"/>
			<point x="382" y="446" type="line"/>
			<point x="382" y="-9" type="line"/>
			<point x="478" y="-68" type="line"/>
			<point x="478" y="678" type="line"/>
		</contour>
	</outline>
</glyph>
<glyph name="ga_i_marc" format="2">
	<advance width="704"/>
	<anchor x="590" y="718" name="candrabindu_narrow"/>
	<anchor x="510" y="718" name="top"/>
	<anchor x="599" y="160" name="bottom_right"/>
	<anchor x="419" y="78" name="bottom"/>
	<outline>
		<contour>
			<point x="430" y="678" type="line"/>
			<point x="391" y="759"/>
			<point x="309" y="869"/>
			<point x="192" y="869" type="curve" smooth="yes"/>
			<point x="108" y="869"/>
			<point x="60" y="808"/>
			<point x="60" y="714" type="curve" smooth="yes"/>
			<point x="60" y="138" type="line"/>
			<point x="156" y="79" type="line"/>
			<point x="156" y="717" type="line" smooth="yes"/>
			<point x="156" y="768"/>
			<point x="169" y="797"/>
			<point x="221" y="797" type="curve" smooth="yes"/>
			<point x="298" y="797"/>
			<point x="363" y="731"/>
			<point x="396" y="678" type="curve"/>
			<point x="226" y="678" type="line"/>
			<point x="226" y="592" type="line"/>
			<point x="392" y="592" type="line"/>
			<point x="392" y="522" type="line"/>
			<point x="226" y="522" type="line"/>
			<point x="226" y="280" type="line"/>
			<point x="274" y="280" type="line"/>
			<point x="204" y="148" type="line"/>
			<point x="216" y="102" type="line"/>
			<point x="240" y="121"/>
			<point x="279" y="138"/>
			<point x="328" y="138" type="curve" smooth="yes"/>
			<point x="375" y="138"/>
			<point x="420" y="122"/>
			<point x="458" y="84" type="curve"/>
			<point x="504" y="92" type="line"/>
			<point x="463" y="171"/>
			<point x="383" y="217"/>
			<point x="321" y="217" type="curve" smooth="yes"/>
			<point x="315" y="217"/>
			<point x="307" y="217"/>
			<point x="299" y="215" type="curve"/>
			<point x="333" y="280" type="line"/>
			<point x="459" y="280" type="line"/>
			<point x="477" y="366" type="line"/>
			<point x="322" y="366" type="line"/>
			<point x="322" y="436" type="line"/>
			<point x="478" y="436" type="line"/>
			<point x="478" y="592" type="line"/>
			<point x="548" y="592" type="line"/>
			<point x="548" y="137" type="line"/>
			<point x="644" y="78" type="line"/>
			<point x="644" y="678" type="line"/>
		</contour>
	</outline>
</glyph>
<glyph name="ga_la.sub_i_marc_short" format="2">
	<advance width="764"/>
	<anchor x="533" y="718" name="top"/>
	<anchor x="593" y="718" name="candrabindu_narrow"/>
	<outline>
		<contour>
			<point x="473" y="678" type="line"/>
			<point x="430" y="759"/>
			<point x="335" y="869"/>
			<point x="201" y="869" type="curve" smooth="yes"/>
			<point x="108" y="869"/>
			<point x="60" y="808"/>
			<point x="60" y="714" type="curve" smooth="yes"/>
			<point x="60" y="138" type="line"/>
			<point x="156" y="79" type="line"/>
			<point x="156" y="717" type="line" smooth="yes"/>
			<point x="156" y="768"/>
			<point x="169" y="797"/>
			<point x="232" y="797" type="curve" smooth="yes"/>
			<point x="324" y="797"/>
			<point x="401" y="731"/>
			<point x="440" y="678" type="curve"/>
			<point x="226" y="678" type="line"/>
			<point x="226" y="592" type="line"/>
			<point x="435" y="592" type="line"/>
			<point x="435" y="522" type="line"/>
			<point x="226" y="522" type="line"/>
			<point x="226" y="280" type="line"/>
			<point x="274" y="280" type="line"/>
			<point x="204" y="148" type="line"/>
			<point x="216" y="102" type="line"/>
			<point x="240" y="121"/>
			<point x="279" y="138"/>
			<point x="328" y="138" type="curve" smooth="yes"/>
			<point x="375" y="138"/>
			<point x="420" y="122"/>
			<point x="458" y="84" type="curve"/>
			<point x="504" y="92" type="line"/>
			<point x="463" y="171"/>
			<point x="383" y="217"/>
			<point x="321" y="217" type="curve" smooth="yes"/>
			<point x="315" y="217"/>
			<point x="307" y="217"/>
			<point x="299" y="215" type="curve"/>
			<point x="333" y="280" type="line"/>
			<point x="510" y="280" type="line"/>
			<point x="528" y="366" type="line"/>
			<point x="322" y="366" type="line"/>
			<point x="322" y="436" type="line"/>
			<point x="521" y="436" type="line"/>
			<point x="521" y="592" type="line"/>
			<point x="608" y="592" type="line"/>
			<point x="608" y="78" type="line"/>
			<point x="704" y="78" type="line"/>
			<point x="704" y="678" type="line"/>
		</contour>
		<contour>
			<point x="393" y="-138" type="line"/>
			<point x="323" y="-138" type="line"/>
			<point x="323" y="18" type="line"/>
			<point x="227" y="18" type="line"/>
			<point x="227" y="-224" type="line"/>
			<point x="441" y="-224" type="line"/>
			<point x="441" y="-294" type="line"/>
			<point x="227" y="-294" type="line"/>
			<point x="227" y="-380" type="line"/>
			<point x="537" y="-380" type="line"/>
			<point x="537" y="-138" type="line"/>
			<point x="489" y="-138" type="line"/>
			<point x="489" y="-68" type="line"/>
			<point x="607" y="-68" type="line"/>
			<point x="607" y="-460" type="line"/>
			<point x="703" y="-519" type="line"/>
			<point x="703" y="18" type="line"/>
			<point x="393" y="18" type="line"/>
		</contour>
	</outline>
</glyph>
<glyph name="ga_la.sub_u_marc" format="2">
  <advance width="598"/>
  <anchor x="316" y="718" name="top"/>
  <outline>
    <contour>
      <point x="60" y="678" type="line"/>
      <point x="60" y="592" type="line"/>
      <point x="269" y="592" type="line"/>
      <point x="269" y="522" type="line"/>
      <point x="60" y="522" type="line"/>
      <point x="60" y="280" type="line"/>
      <point x="108" y="280" type="line"/>
      <point x="38" y="148" type="line"/>
      <point x="50" y="102" type="line"/>
      <point x="74" y="121"/>
      <point x="113" y="138"/>
      <point x="162" y="138" type="curve" smooth="yes"/>
      <point x="209" y="138"/>
      <point x="254" y="122"/>
      <point x="292" y="84" type="curve"/>
      <point x="338" y="92" type="line"/>
      <point x="297" y="171"/>
      <point x="217" y="217"/>
      <point x="155" y="217" type="curve" smooth="yes"/>
      <point x="149" y="217"/>
      <point x="141" y="217"/>
      <point x="133" y="215" type="curve"/>
      <point x="167" y="280" type="line"/>
      <point x="344" y="280" type="line"/>
      <point x="362" y="366" type="line"/>
      <point x="156" y="366" type="line"/>
      <point x="156" y="436" type="line"/>
      <point x="355" y="436" type="line"/>
      <point x="355" y="592" type="line"/>
      <point x="442" y="592" type="line"/>
      <point x="442" y="78" type="line"/>
      <point x="538" y="78" type="line"/>
      <point x="538" y="678" type="line"/>
    </contour>
    <contour>
      <point x="227" y="-138" type="line"/>
      <point x="157" y="-138" type="line"/>
      <point x="157" y="18" type="line"/>
      <point x="61" y="18" type="line"/>
      <point x="61" y="-224" type="line"/>
      <point x="275" y="-224" type="line"/>
      <point x="275" y="-294" type="line"/>
      <point x="61" y="-294" type="line"/>
      <point x="61" y="-380" type="line"/>
      <point x="371" y="-380" type="line"/>
      <point x="371" y="-138" type="line"/>
      <point x="323" y="-138" type="line"/>
      <point x="323" y="-68" type="line"/>
      <point x="441" y="-68" type="line"/>
      <point x="441" y="-450" type="line"/>
      <point x="60" y="-450" type="line"/>
      <point x="60" y="-536" type="line"/>
      <point x="537" y="-536" type="line"/>
      <point x="537" y="18" type="line"/>
      <point x="227" y="18" type="line"/>
    </contour>
  </outline>
</glyph>
<glyph name="ga_ra.sub_wa.sub" format="2">
	<advance width="538"/>
	<outline>
		<contour>
			<point x="60" y="678" type="line"/>
			<point x="60" y="592" type="line"/>
			<point x="226" y="592" type="line"/>
			<point x="226" y="522" type="line"/>
			<point x="60" y="522" type="line"/>
			<point x="60" y="280" type="line"/>
			<point x="108" y="280" type="line"/>
			<point x="38" y="148" type="line"/>
			<point x="50" y="102" type="line"/>
			<point x="74" y="121"/>
			<point x="113" y="138"/>
			<point x="162" y="138" type="curve" smooth="yes"/>
			<point x="209" y="138"/>
			<point x="254" y="122"/>
			<point x="292" y="84" type="curve"/>
			<point x="338" y="92" type="line"/>
			<point x="297" y="171"/>
			<point x="217" y="217"/>
			<point x="155" y="217" type="curve" smooth="yes"/>
			<point x="149" y="217"/>
			<point x="141" y="217"/>
			<point x="133" y="215" type="curve"/>
			<point x="167" y="280" type="line"/>
			<point x="293" y="280" type="line"/>
			<point x="311" y="366" type="line"/>
			<point x="156" y="366" type="line"/>
			<point x="156" y="436" type="line"/>
			<point x="312" y="436" type="line"/>
			<point x="312" y="592" type="line"/>
			<point x="382" y="592" type="line"/>
			<point x="382" y="-26" type="line"/>
			<point x="286" y="24" type="line"/>
			<point x="60" y="24" type="line"/>
			<point x="60" y="-62" type="line"/>
			<point x="382" y="-62" type="line"/>
			<point x="382" y="-132" type="line"/>
			<point x="60" y="-132" type="line"/>
			<point x="60" y="-347" type="line"/>
			<point x="478" y="-347" type="line"/>
			<point x="478" y="678" type="line"/>
		</contour>
		<contour>
			<point x="382" y="-261" type="line"/>
			<point x="110" y="-261" type="line"/>
			<point x="110" y="-218" type="line"/>
			<point x="382" y="-218" type="line"/>
		</contour>
	</outline>
</glyph>
<glyph name="ga_wa.sub_i_marc" format="2">
	<advance width="704"/>
	<anchor x="490" y="718" name="top"/>
	<anchor x="569" y="718" name="candrabindu_narrow"/>
	<outline>
		<contour>
			<point x="422" y="678" type="line"/>
			<point x="384" y="759"/>
			<point x="305" y="869"/>
			<point x="191" y="869" type="curve" smooth="yes"/>
			<point x="108" y="869"/>
			<point x="60" y="808"/>
			<point x="60" y="714" type="curve" smooth="yes"/>
			<point x="60" y="-14" type="line"/>
			<point x="156" y="-73" type="line"/>
			<point x="156" y="717" type="line" smooth="yes"/>
			<point x="156" y="768"/>
			<point x="169" y="797"/>
			<point x="219" y="797" type="curve" smooth="yes"/>
			<point x="294" y="797"/>
			<point x="356" y="731"/>
			<point x="389" y="678" type="curve"/>
			<point x="226" y="678" type="line"/>
			<point x="226" y="592" type="line"/>
			<point x="392" y="592" type="line"/>
			<point x="392" y="522" type="line"/>
			<point x="226" y="522" type="line"/>
			<point x="226" y="280" type="line"/>
			<point x="274" y="280" type="line"/>
			<point x="204" y="148" type="line"/>
			<point x="216" y="102" type="line"/>
			<point x="240" y="121"/>
			<point x="279" y="138"/>
			<point x="328" y="138" type="curve" smooth="yes"/>
			<point x="375" y="138"/>
			<point x="420" y="122"/>
			<point x="458" y="84" type="curve"/>
			<point x="504" y="92" type="line"/>
			<point x="463" y="171"/>
			<point x="383" y="217"/>
			<point x="321" y="217" type="curve" smooth="yes"/>
			<point x="315" y="217"/>
			<point x="307" y="217"/>
			<point x="299" y="215" type="curve"/>
			<point x="333" y="280" type="line"/>
			<point x="459" y="280" type="line"/>
			<point x="477" y="366" type="line"/>
			<point x="322" y="366" type="line"/>
			<point x="322" y="436" type="line"/>
			<point x="478" y="436" type="line"/>
			<point x="478" y="592" type="line"/>
			<point x="548" y="592" type="line"/>
			<point x="548" y="37" type="line"/>
			<point x="221" y="37" type="line"/>
			<point x="221" y="-178" type="line"/>
			<point x="644" y="-178" type="line"/>
			<point x="644" y="678" type="line"/>
		</contour>
		<contour>
			<point x="548" y="-92" type="line"/>
			<point x="271" y="-92" type="line"/>
			<point x="271" y="-49" type="line"/>
			<point x="548" y="-49" type="line"/>
		</contour>
	</outline>
</glyph>
<glyph name="ga_ya.sub_o_marc" format="2">
	<advance width="870"/>
	<anchor x="434" y="718" name="top"/>
	<outline>
		<contour>
			<point x="61" y="678" type="line"/>
			<point x="61" y="592" type="line"/>
			<point x="714" y="592" type="line"/>
			<point x="714" y="-73" type="line"/>
			<point x="810" y="-132" type="line"/>
			<point x="810" y="678" type="line"/>
		</contour>
		<contour>
			<point x="548" y="6" type="line"/>
			<point x="478" y="6" type="line"/>
			<point x="478" y="532" type="line"/>
			<point x="60" y="532" type="line"/>
			<point x="60" y="446" type="line"/>
			<point x="226" y="446" type="line"/>
			<point x="226" y="376" type="line"/>
			<point x="60" y="376" type="line"/>
			<point x="60" y="134" type="line"/>
			<point x="108" y="134" type="line"/>
			<point x="38" y="2" type="line"/>
			<point x="50" y="-44" type="line"/>
			<point x="74" y="-25"/>
			<point x="113" y="-8"/>
			<point x="162" y="-8" type="curve" smooth="yes"/>
			<point x="209" y="-8"/>
			<point x="254" y="-24"/>
			<point x="292" y="-62" type="curve"/>
			<point x="338" y="-54" type="line"/>
			<point x="297" y="25"/>
			<point x="217" y="71"/>
			<point x="155" y="71" type="curve" smooth="yes"/>
			<point x="149" y="71"/>
			<point x="141" y="71"/>
			<point x="133" y="69" type="curve"/>
			<point x="167" y="134" type="line"/>
			<point x="293" y="134" type="line"/>
			<point x="311" y="220" type="line"/>
			<point x="156" y="220" type="line"/>
			<point x="156" y="290" type="line"/>
			<point x="312" y="290" type="line"/>
			<point x="312" y="446" type="line"/>
			<point x="382" y="446" type="line"/>
			<point x="382" y="-68" type="line"/>
			<point x="644" y="-68" type="line"/>
			<point x="644" y="532" type="line"/>
			<point x="548" y="532" type="line"/>
		</contour>
	</outline>
</glyph>
<glyph name="ha_aa_u_marc" format="2">
  <advance width="557"/>
  <anchor x="278" y="718" name="top"/>
  <outline>
    <contour>
      <point x="497" y="592" type="line"/>
      <point x="497" y="678" type="line"/>
      <point x="60" y="678" type="line"/>
      <point x="60" y="436" type="line"/>
      <point x="245" y="436" type="line"/>
      <point x="245" y="366" type="line"/>
      <point x="60" y="366" type="line"/>
      <point x="60" y="280" type="line"/>
      <point x="331" y="280" type="line"/>
      <point x="331" y="436" type="line"/>
      <point x="401" y="436" type="line"/>
      <point x="401" y="280" type="line"/>
      <point x="497" y="280" type="line"/>
      <point x="497" y="522" type="line"/>
      <point x="156" y="522" type="line"/>
      <point x="156" y="592" type="line"/>
    </contour>
    <contour>
      <point x="60" y="220" type="line"/>
      <point x="60" y="134" type="line"/>
      <point x="401" y="134" type="line"/>
      <point x="401" y="74" type="line"/>
      <point x="60" y="74" type="line"/>
      <point x="60" y="-12" type="line"/>
      <point x="230" y="-12" type="line"/>
      <point x="230" y="-113" type="line"/>
      <point x="183" y="-91"/>
      <point x="117" y="-80"/>
      <point x="60" y="-83" type="curve"/>
      <point x="60" y="-278" type="line"/>
      <point x="156" y="-337" type="line"/>
      <point x="156" y="-167" type="line"/>
      <point x="180" y="-165"/>
      <point x="206" y="-170"/>
      <point x="230" y="-182" type="curve"/>
      <point x="230" y="-320" type="line"/>
      <point x="326" y="-379" type="line"/>
      <point x="326" y="-12" type="line"/>
      <point x="401" y="-12" type="line"/>
      <point x="401" y="-448" type="line"/>
      <point x="61" y="-448" type="line"/>
      <point x="61" y="-534" type="line"/>
      <point x="497" y="-534" type="line"/>
      <point x="497" y="220" type="line"/>
    </contour>
  </outline>
</glyph>
<glyph name="ha_e_marc" format="2">
	<advance width="541"/>
	<anchor x="270" y="718" name="top"/>
	<anchor x="277" y="-68" name="bottom"/>
	<anchor x="436" y="158" name="bottom_right"/>
	<outline>
		<contour>
			<point x="60" y="678" type="line"/>
			<point x="60" y="592" type="line"/>
			<point x="385" y="592" type="line"/>
			<point x="385" y="532" type="line"/>
			<point x="60" y="532" type="line"/>
			<point x="60" y="290" type="line"/>
			<point x="229" y="290" type="line"/>
			<point x="229" y="220" type="line"/>
			<point x="60" y="220" type="line"/>
			<point x="60" y="134" type="line"/>
			<point x="315" y="134" type="line"/>
			<point x="315" y="290" type="line"/>
			<point x="385" y="290" type="line"/>
			<point x="385" y="54" type="line"/>
			<point x="481" y="-5" type="line"/>
			<point x="481" y="376" type="line"/>
			<point x="156" y="376" type="line"/>
			<point x="156" y="446" type="line"/>
			<point x="481" y="446" type="line"/>
			<point x="481" y="678" type="line"/>
		</contour>
	</outline>
</glyph>
<glyph name="ha_o_marc" format="2">
	<advance width="709"/>
	<anchor x="353" y="718" name="top"/>
	<anchor x="279" y="-68" name="bottom"/>
	<anchor x="438" y="158" name="bottom_right"/>
	<outline>
		<contour>
			<point x="60" y="678" type="line"/>
			<point x="60" y="592" type="line"/>
			<point x="553" y="592" type="line"/>
			<point x="553" y="-41" type="line"/>
			<point x="649" y="-100" type="line"/>
			<point x="649" y="678" type="line"/>
		</contour>
		<contour>
			<point x="62" y="290" type="line"/>
			<point x="231" y="290" type="line"/>
			<point x="231" y="220" type="line"/>
			<point x="62" y="220" type="line"/>
			<point x="62" y="134" type="line"/>
			<point x="317" y="134" type="line"/>
			<point x="317" y="290" type="line"/>
			<point x="387" y="290" type="line"/>
			<point x="387" y="54" type="line"/>
			<point x="483" y="-5" type="line"/>
			<point x="483" y="376" type="line"/>
			<point x="158" y="376" type="line"/>
			<point x="158" y="446" type="line"/>
			<point x="483" y="446" type="line"/>
			<point x="483" y="532" type="line"/>
			<point x="62" y="532" type="line"/>
		</contour>
	</outline>
</glyph>
<glyph name="ha_ra.sub" format="2">
  <advance width="541"/>
  <anchor x="270" y="718" name="top"/>
  <outline>
    <contour>
      <point x="481" y="592" type="line"/>
      <point x="481" y="678" type="line"/>
      <point x="60" y="678" type="line"/>
      <point x="60" y="436" type="line"/>
      <point x="229" y="436" type="line"/>
      <point x="229" y="366" type="line"/>
      <point x="60" y="366" type="line"/>
      <point x="60" y="280" type="line"/>
      <point x="315" y="280" type="line"/>
      <point x="315" y="436" type="line"/>
      <point x="385" y="436" type="line"/>
      <point x="385" y="130" type="line"/>
      <point x="289" y="180" type="line"/>
      <point x="60" y="180" type="line"/>
      <point x="60" y="94" type="line"/>
      <point x="481" y="94" type="line"/>
      <point x="481" y="522" type="line"/>
      <point x="156" y="522" type="line"/>
      <point x="156" y="592" type="line"/>
    </contour>
  </outline>
</glyph>
<glyph name="ha_ra.sub_aa_i_marc" format="2">
	<advance width="723"/>
	<anchor x="464" y="718" name="top"/>
	<anchor x="544" y="718" name="candrabindu_narrow"/>
	<outline>
		<contour>
			<point x="663" y="592" type="line"/>
			<point x="663" y="678" type="line"/>
			<point x="375" y="678" type="line"/>
			<point x="342" y="759"/>
			<point x="276" y="869"/>
			<point x="181" y="869" type="curve" smooth="yes"/>
			<point x="108" y="869"/>
			<point x="60" y="808"/>
			<point x="60" y="714" type="curve" smooth="yes"/>
			<point x="60" y="-456" type="line"/>
			<point x="156" y="-515" type="line"/>
			<point x="156" y="717" type="line" smooth="yes"/>
			<point x="156" y="768"/>
			<point x="169" y="797"/>
			<point x="207" y="797" type="curve" smooth="yes"/>
			<point x="266" y="797"/>
			<point x="314" y="731"/>
			<point x="342" y="678" type="curve"/>
			<point x="226" y="678" type="line"/>
			<point x="226" y="436" type="line"/>
			<point x="411" y="436" type="line"/>
			<point x="411" y="366" type="line"/>
			<point x="226" y="366" type="line"/>
			<point x="226" y="280" type="line"/>
			<point x="497" y="280" type="line"/>
			<point x="497" y="436" type="line"/>
			<point x="567" y="436" type="line"/>
			<point x="567" y="280" type="line"/>
			<point x="663" y="280" type="line"/>
			<point x="663" y="522" type="line"/>
			<point x="322" y="522" type="line"/>
			<point x="322" y="592" type="line"/>
		</contour>
		<contour>
			<point x="226" y="220" type="line"/>
			<point x="226" y="134" type="line"/>
			<point x="567" y="134" type="line"/>
			<point x="567" y="74" type="line"/>
			<point x="226" y="74" type="line"/>
			<point x="226" y="-12" type="line"/>
			<point x="396" y="-12" type="line"/>
			<point x="396" y="-113" type="line"/>
			<point x="349" y="-91"/>
			<point x="283" y="-80"/>
			<point x="226" y="-83" type="curve"/>
			<point x="226" y="-278" type="line"/>
			<point x="322" y="-337" type="line"/>
			<point x="322" y="-167" type="line"/>
			<point x="346" y="-165"/>
			<point x="372" y="-170"/>
			<point x="396" y="-182" type="curve"/>
			<point x="396" y="-320" type="line"/>
			<point x="492" y="-379" type="line"/>
			<point x="492" y="-12" type="line"/>
			<point x="567" y="-12" type="line"/>
			<point x="567" y="-471" type="line"/>
			<point x="471" y="-421" type="line"/>
			<point x="226" y="-421" type="line"/>
			<point x="226" y="-507" type="line"/>
			<point x="663" y="-507" type="line"/>
			<point x="663" y="220" type="line"/>
		</contour>
	</outline>
</glyph>
<glyph name="ha_ra.sub_e_marc" format="2">
	<advance width="541"/>
	<anchor x="269" y="718" name="top"/>
	<outline>
		<contour>
			<point x="60" y="678" type="line"/>
			<point x="60" y="592" type="line"/>
			<point x="385" y="592" type="line"/>
			<point x="385" y="532" type="line"/>
			<point x="60" y="532" type="line"/>
			<point x="60" y="290" type="line"/>
			<point x="229" y="290" type="line"/>
			<point x="229" y="220" type="line"/>
			<point x="60" y="220" type="line"/>
			<point x="60" y="134" type="line"/>
			<point x="315" y="134" type="line"/>
			<point x="315" y="290" type="line"/>
			<point x="385" y="290" type="line"/>
			<point x="385" y="-16" type="line"/>
			<point x="289" y="34" type="line"/>
			<point x="61" y="34" type="line"/>
			<point x="61" y="-52" type="line"/>
			<point x="481" y="-52" type="line"/>
			<point x="481" y="376" type="line"/>
			<point x="156" y="376" type="line"/>
			<point x="156" y="446" type="line"/>
			<point x="481" y="446" type="line"/>
			<point x="481" y="678" type="line"/>
		</contour>
	</outline>
</glyph>
<glyph name="ha_wa.sub" format="2">
	<advance width="541"/>
	<anchor x="270" y="718" name="top"/>
	<outline>
		<contour>
			<point x="481" y="592" type="line"/>
			<point x="481" y="678" type="line"/>
			<point x="60" y="678" type="line"/>
			<point x="60" y="436" type="line"/>
			<point x="229" y="436" type="line"/>
			<point x="229" y="366" type="line"/>
			<point x="60" y="366" type="line"/>
			<point x="60" y="280" type="line"/>
			<point x="315" y="280" type="line"/>
			<point x="315" y="436" type="line"/>
			<point x="385" y="436" type="line"/>
			<point x="385" y="210" type="line"/>
			<point x="60" y="210" type="line"/>
			<point x="60" y="-5" type="line"/>
			<point x="481" y="-5" type="line"/>
			<point x="481" y="522" type="line"/>
			<point x="156" y="522" type="line"/>
			<point x="156" y="592" type="line"/>
		</contour>
		<contour>
			<point x="385" y="81" type="line"/>
			<point x="110" y="81" type="line"/>
			<point x="110" y="124" type="line"/>
			<point x="385" y="124" type="line"/>
		</contour>
	</outline>
</glyph>
<glyph name="ha_wa.sub_o_marc" format="2">
	<advance width="707"/>
	<anchor x="353" y="718" name="top"/>
	<outline>
		<contour>
			<point x="60" y="678" type="line"/>
			<point x="60" y="592" type="line"/>
			<point x="551" y="592" type="line"/>
			<point x="551" y="-173" type="line"/>
			<point x="647" y="-232" type="line"/>
			<point x="647" y="678" type="line"/>
		</contour>
		<contour>
			<point x="60" y="290" type="line"/>
			<point x="229" y="290" type="line"/>
			<point x="229" y="220" type="line"/>
			<point x="60" y="220" type="line"/>
			<point x="60" y="134" type="line"/>
			<point x="315" y="134" type="line"/>
			<point x="315" y="290" type="line"/>
			<point x="385" y="290" type="line"/>
			<point x="385" y="64" type="line"/>
			<point x="60" y="64" type="line"/>
			<point x="60" y="-151" type="line"/>
			<point x="481" y="-151" type="line"/>
			<point x="481" y="376" type="line"/>
			<point x="156" y="376" type="line"/>
			<point x="156" y="446" type="line"/>
			<point x="481" y="446" type="line"/>
			<point x="481" y="532" type="line"/>
			<point x="60" y="532" type="line"/>
		</contour>
		<contour>
			<point x="385" y="-65" type="line"/>
			<point x="110" y="-65" type="line"/>
			<point x="110" y="-22" type="line"/>
			<point x="385" y="-22" type="line"/>
		</contour>
	</outline>
</glyph>
<glyph name="ja_aa_marc.sub" format="2">
  <advance width="575"/>
  <anchor x="276" y="718" name="top"/>
  <outline>
    <contour>
      <point x="109" y="436" type="line"/>
      <point x="382" y="436" type="line"/>
      <point x="382" y="366" type="line"/>
      <point x="70" y="366" type="line"/>
      <point x="70" y="78" type="line"/>
      <point x="166" y="78" type="line"/>
      <point x="166" y="280" type="line"/>
      <point x="278" y="280" type="line"/>
      <point x="209" y="150" type="line"/>
      <point x="221" y="104" type="line"/>
      <point x="245" y="123"/>
      <point x="284" y="140"/>
      <point x="333" y="140" type="curve" smooth="yes"/>
      <point x="380" y="140"/>
      <point x="425" y="124"/>
      <point x="463" y="86" type="curve"/>
      <point x="509" y="94" type="line"/>
      <point x="468" y="173"/>
      <point x="388" y="219"/>
      <point x="326" y="219" type="curve" smooth="yes"/>
      <point x="320" y="219"/>
      <point x="312" y="219"/>
      <point x="304" y="217" type="curve"/>
      <point x="337" y="280" type="line"/>
      <point x="478" y="280" type="line"/>
      <point x="478" y="522" type="line"/>
      <point x="205" y="522" type="line"/>
      <point x="205" y="592" type="line"/>
      <point x="478" y="592" type="line"/>
      <point x="478" y="678" type="line"/>
      <point x="60" y="678" type="line"/>
      <point x="60" y="592" type="line"/>
      <point x="109" y="592" type="line"/>
    </contour>
    <contour>
      <point x="69" y="18" type="line"/>
      <point x="69" y="-68" type="line"/>
      <point x="419" y="-68" type="line"/>
      <point x="419" y="-128" type="line"/>
      <point x="69" y="-128" type="line"/>
      <point x="69" y="-214" type="line"/>
      <point x="244" y="-214" type="line"/>
      <point x="244" y="-315" type="line"/>
      <point x="197" y="-293"/>
      <point x="126" y="-282"/>
      <point x="69" y="-285" type="curve"/>
      <point x="69" y="-480" type="line"/>
      <point x="165" y="-539" type="line"/>
      <point x="165" y="-369" type="line"/>
      <point x="189" y="-367"/>
      <point x="220" y="-372"/>
      <point x="244" y="-384" type="curve"/>
      <point x="244" y="-522" type="line"/>
      <point x="340" y="-581" type="line"/>
      <point x="340" y="-214" type="line"/>
      <point x="419" y="-214" type="line"/>
      <point x="419" y="-552" type="line"/>
      <point x="515" y="-611" type="line"/>
      <point x="515" y="18" type="line"/>
    </contour>
  </outline>
</glyph>
<glyph name="ja_e_marc" format="2">
	<advance width="513"/>
	<anchor x="254" y="718" name="top"/>
	<anchor x="267" y="-68" name="bottom"/>
	<outline>
		<contour>
			<point x="326" y="73" type="curve" smooth="yes"/>
			<point x="320" y="73"/>
			<point x="312" y="73"/>
			<point x="304" y="71" type="curve"/>
			<point x="337" y="134" type="line"/>
			<point x="451" y="134" type="line"/>
			<point x="451" y="376" type="line"/>
			<point x="205" y="376" type="line"/>
			<point x="205" y="446" type="line"/>
			<point x="451" y="446" type="line"/>
			<point x="451" y="678" type="line"/>
			<point x="60" y="678" type="line"/>
			<point x="60" y="592" type="line"/>
			<point x="355" y="592" type="line"/>
			<point x="355" y="532" type="line"/>
			<point x="60" y="532" type="line"/>
			<point x="60" y="446" type="line"/>
			<point x="109" y="446" type="line"/>
			<point x="109" y="290" type="line"/>
			<point x="355" y="290" type="line"/>
			<point x="355" y="220" type="line"/>
			<point x="70" y="220" type="line"/>
			<point x="70" y="-68" type="line"/>
			<point x="166" y="-68" type="line"/>
			<point x="166" y="134" type="line"/>
			<point x="278" y="134" type="line"/>
			<point x="209" y="4" type="line"/>
			<point x="221" y="-42" type="line"/>
			<point x="245" y="-23"/>
			<point x="284" y="-6"/>
			<point x="333" y="-6" type="curve" smooth="yes"/>
			<point x="380" y="-6"/>
			<point x="425" y="-22"/>
			<point x="463" y="-60" type="curve"/>
			<point x="509" y="-52" type="line"/>
			<point x="468" y="27"/>
			<point x="388" y="73"/>
		</contour>
	</outline>
</glyph>
<glyph name="ja_i_marc" format="2">
	<advance width="669"/>
	<anchor x="470" y="718" name="top"/>
	<anchor x="423" y="78" name="bottom"/>
	<anchor x="540" y="718" name="candrabindu_narrow"/>
	<outline>
		<contour>
			<point x="482" y="219" type="curve" smooth="yes"/>
			<point x="476" y="219"/>
			<point x="468" y="219"/>
			<point x="460" y="217" type="curve"/>
			<point x="493" y="280" type="line"/>
			<point x="607" y="280" type="line"/>
			<point x="607" y="522" type="line"/>
			<point x="361" y="522" type="line"/>
			<point x="361" y="592" type="line"/>
			<point x="607" y="592" type="line"/>
			<point x="607" y="678" type="line"/>
			<point x="375" y="678" type="line"/>
			<point x="342" y="759"/>
			<point x="276" y="869"/>
			<point x="181" y="869" type="curve" smooth="yes"/>
			<point x="108" y="869"/>
			<point x="60" y="808"/>
			<point x="60" y="714" type="curve" smooth="yes"/>
			<point x="60" y="138" type="line"/>
			<point x="156" y="79" type="line"/>
			<point x="156" y="717" type="line" smooth="yes"/>
			<point x="156" y="768"/>
			<point x="169" y="797"/>
			<point x="207" y="797" type="curve" smooth="yes"/>
			<point x="266" y="797"/>
			<point x="314" y="731"/>
			<point x="342" y="678" type="curve"/>
			<point x="216" y="678" type="line"/>
			<point x="216" y="592" type="line"/>
			<point x="265" y="592" type="line"/>
			<point x="265" y="436" type="line"/>
			<point x="511" y="436" type="line"/>
			<point x="511" y="366" type="line"/>
			<point x="226" y="366" type="line"/>
			<point x="226" y="78" type="line"/>
			<point x="322" y="78" type="line"/>
			<point x="322" y="280" type="line"/>
			<point x="434" y="280" type="line"/>
			<point x="365" y="150" type="line"/>
			<point x="377" y="104" type="line"/>
			<point x="401" y="123"/>
			<point x="440" y="140"/>
			<point x="489" y="140" type="curve" smooth="yes"/>
			<point x="536" y="140"/>
			<point x="581" y="124"/>
			<point x="619" y="86" type="curve"/>
			<point x="665" y="94" type="line"/>
			<point x="624" y="173"/>
			<point x="544" y="219"/>
		</contour>
	</outline>
</glyph>
<glyph name="ja_o_marc" format="2">
	<advance width="677"/>
	<anchor x="339" y="718" name="top"/>
	<anchor x="267" y="-67" name="bottom"/>
	<outline>
		<contour>
			<point x="63" y="678" type="line"/>
			<point x="63" y="592" type="line"/>
			<point x="521" y="592" type="line"/>
			<point x="521" y="-89" type="line"/>
			<point x="617" y="-148" type="line"/>
			<point x="617" y="678" type="line"/>
		</contour>
		<contour>
			<point x="316" y="73" type="curve" smooth="yes"/>
			<point x="310" y="73"/>
			<point x="302" y="73"/>
			<point x="294" y="71" type="curve"/>
			<point x="327" y="134" type="line"/>
			<point x="451" y="134" type="line"/>
			<point x="451" y="376" type="line"/>
			<point x="205" y="376" type="line"/>
			<point x="205" y="446" type="line"/>
			<point x="451" y="446" type="line"/>
			<point x="451" y="532" type="line"/>
			<point x="60" y="532" type="line"/>
			<point x="60" y="446" type="line"/>
			<point x="109" y="446" type="line"/>
			<point x="109" y="290" type="line"/>
			<point x="355" y="290" type="line"/>
			<point x="355" y="220" type="line"/>
			<point x="70" y="220" type="line"/>
			<point x="70" y="-68" type="line"/>
			<point x="166" y="-68" type="line"/>
			<point x="166" y="134" type="line"/>
			<point x="268" y="134" type="line"/>
			<point x="199" y="4" type="line"/>
			<point x="211" y="-42" type="line"/>
			<point x="235" y="-23"/>
			<point x="274" y="-6"/>
			<point x="323" y="-6" type="curve" smooth="yes"/>
			<point x="370" y="-6"/>
			<point x="415" y="-22"/>
			<point x="453" y="-60" type="curve"/>
			<point x="499" y="-52" type="line"/>
			<point x="458" y="27"/>
			<point x="378" y="73"/>
		</contour>
	</outline>
</glyph>
